{
.appVersion = "1192";
classes = (
{
automatic = 1;

glyphs = (
{
glyphname = .notdef;
lastChange = "2015-04-18 15:15:14 +0000";
layers = (
{
layerId = "6B6936E6-7670-4A82-900D-EAF583C971AF";
paths = (
{
closed = 1;
nodes = (
"88 -177 LINE SMOOTH",
"78 -177 OFFCURVE",
"73 -172 OFFCURVE",
"73 -162 CURVE SMOOTH",
"73 768 LINE SMOOTH",
"73 778 OFFCURVE",
"78 783 OFFCURVE",
"88 783 CURVE SMOOTH",
"538 783 LINE SMOOTH",
"548 783 OFFCURVE",
"553 778 OFFCURVE",
"553 768 CURVE SMOOTH",
"553 -162 LINE SMOOTH",
"553 -172 OFFCURVE",
"548 -177 OFFCURVE",
"538 -177 CURVE SMOOTH"
);
},
{
closed = 1;
nodes = (
"139 2 LINE SMOOTH",
"139 -8 OFFCURVE",
"144 -13 OFFCURVE",
"154 -13 CURVE SMOOTH",
"473 -13 LINE SMOOTH",
"483 -13 OFFCURVE",
"488 -8 OFFCURVE",
"488 2 CURVE SMOOTH",
"488 702 LINE SMOOTH",
"488 712 OFFCURVE",
"483 717 OFFCURVE",
"473 717 CURVE SMOOTH",
"154 717 LINE SMOOTH",
"144 717 OFFCURVE",
"139 712 OFFCURVE",
"139 702 CURVE SMOOTH"
);
}
);
width = 626;
},
{
layerId = "285E899F-63D1-4687-98EA-700375B8DCD4";
paths = (
{
closed = 1;
nodes = (
"101 -182 LINE SMOOTH",
"90 -182 OFFCURVE",
"84 -177 OFFCURVE",
"84 -167 CURVE SMOOTH",
"84 791 LINE SMOOTH",
"84 801 OFFCURVE",
"90 806 OFFCURVE",
"101 806 CURVE SMOOTH",
"619 806 LINE SMOOTH",
"630 806 OFFCURVE",
"636 801 OFFCURVE",
"636 791 CURVE SMOOTH",
"636 -167 LINE SMOOTH",
"636 -177 OFFCURVE",
"630 -182 OFFCURVE",
"619 -182 CURVE SMOOTH"
);
},
{
closed = 1;
nodes = (
"160 2 LINE SMOOTH",
"160 -8 OFFCURVE",
"166 -13 OFFCURVE",
"177 -13 CURVE SMOOTH",
"544 -13 LINE SMOOTH",
"555 -13 OFFCURVE",
"561 -8 OFFCURVE",
"561 2 CURVE SMOOTH",
"561 723 LINE SMOOTH",
"561 733 OFFCURVE",
"555 739 OFFCURVE",
"544 739 CURVE SMOOTH",
"177 739 LINE SMOOTH",
"166 739 OFFCURVE",
"160 733 OFFCURVE",
"160 723 CURVE SMOOTH"
);
}
);
width = 720;
},
{
layerId = "0964CBBB-CC62-4658-9513-E390A08878CC";
paths = (
{
closed = 1;
nodes = (
"79 -175 LINE SMOOTH",
"70 -175 OFFCURVE",
"66 -170 OFFCURVE",
"66 -160 CURVE SMOOTH",
"66 760 LINE SMOOTH",
"66 770 OFFCURVE",
"70 775 OFFCURVE",
"79 775 CURVE SMOOTH",
"484 775 LINE SMOOTH",
"493 775 OFFCURVE",
"498 770 OFFCURVE",
"498 760 CURVE SMOOTH",
"498 -160 LINE SMOOTH",
"498 -170 OFFCURVE",
"493 -175 OFFCURVE",
"484 -175 CURVE SMOOTH"
);
},
{
closed = 1;
nodes = (
"125 2 LINE SMOOTH",
"125 -8 OFFCURVE",
"130 -13 OFFCURVE",
"139 -13 CURVE SMOOTH",
"426 -13 LINE SMOOTH",
"435 -13 OFFCURVE",
"439 -8 OFFCURVE",
"439 2 CURVE SMOOTH",
"439 695 LINE SMOOTH",
"439 705 OFFCURVE",
"435 710 OFFCURVE",
"426 710 CURVE SMOOTH",
"139 710 LINE SMOOTH",
"130 710 OFFCURVE",
"125 705 OFFCURVE",
"125 695 CURVE SMOOTH"
);
}
);
width = 563;
}
);
},
{
color = 0;
glyphname = exclam;
lastChange = "2019-03-31 15:49:30 +0000";
layers = (
{
layerId = "6B6936E6-7670-4A82-900D-EAF583C971AF";
paths = (
{
closed = 1;
nodes = (
"83 122 LINE SMOOTH",
"84 140 OFFCURVE",
"94 150 OFFCURVE",
"113 150 CURVE SMOOTH",
"182 150 LINE SMOOTH",
"202 150 OFFCURVE",
"211 140 OFFCURVE",
"212 122 CURVE SMOOTH",
"220 30 LINE SMOOTH",
"222 11 OFFCURVE",
"211 0 OFFCURVE",
"192 0 CURVE SMOOTH",
"104 0 LINE SMOOTH",
"84 0 OFFCURVE",
"73 11 OFFCURVE",
"76 30 CURVE SMOOTH"
);
},
{
closed = 1;
nodes = (
"99 995 LINE SMOOTH",
"99 1011 OFFCURVE",
"109 1016 OFFCURVE",
"124 1019 CURVE SMOOTH",
"170 1029 LINE SMOOTH",
"186 1032 OFFCURVE",
"195 1021 OFFCURVE",
"195 1005 CURVE SMOOTH",
"199 679 LINE SMOOTH",
"222 300 LINE",
"223 284 OFFCURVE",
"215 275 OFFCURVE",
"199 275 CURVE SMOOTH",
"96 275 LINE SMOOTH",
"80 275 OFFCURVE",
"72 284 OFFCURVE",
"73 300 CURVE SMOOTH",
"91 679 LINE"
);
}
);
width = 295.084;
},
{
layerId = "285E899F-63D1-4687-98EA-700375B8DCD4";
paths = (
{
closed = 1;
nodes = (
"95 126 LINE SMOOTH",
"97 144 OFFCURVE",
"108 155 OFFCURVE",
"130 155 CURVE SMOOTH",
"209 155 LINE SMOOTH",
"232 155 OFFCURVE",
"243 144 OFFCURVE",
"244 126 CURVE SMOOTH",
"253 31 LINE SMOOTH",
"255 11 OFFCURVE",
"243 0 OFFCURVE",
"221 0 CURVE SMOOTH",
"120 0 LINE SMOOTH",
"97 0 OFFCURVE",
"84 11 OFFCURVE",
"87 31 CURVE SMOOTH"
);
},
{
closed = 1;
nodes = (
"114 1025 LINE SMOOTH",
"114 1041 OFFCURVE",
"125 1046 OFFCURVE",
"143 1050 CURVE SMOOTH",
"195 1060 LINE SMOOTH",
"214 1063 OFFCURVE",
"224 1052 OFFCURVE",
"224 1035 CURVE SMOOTH",
"229 699 LINE SMOOTH",
"255 309 LINE",
"256 293 OFFCURVE",
"247 283 OFFCURVE",
"229 283 CURVE SMOOTH",
"110 283 LINE SMOOTH",
"92 283 OFFCURVE",
"83 293 OFFCURVE",
"84 309 CURVE SMOOTH",
"105 699 LINE"
);
}
);
width = 339;
},
{
layerId = "0964CBBB-CC62-4658-9513-E390A08878CC";
paths = (
{
closed = 1;
nodes = (
"75 121 LINE SMOOTH",
"76 139 OFFCURVE",
"85 149 OFFCURVE",
"102 149 CURVE SMOOTH",
"164 149 LINE SMOOTH",
"182 149 OFFCURVE",
"190 139 OFFCURVE",
"191 121 CURVE SMOOTH",
"198 30 LINE SMOOTH",
"200 11 OFFCURVE",
"190 0 OFFCURVE",
"173 0 CURVE SMOOTH",
"94 0 LINE SMOOTH",
"76 0 OFFCURVE",
"66 11 OFFCURVE",
"68 30 CURVE SMOOTH"
);
},
{
closed = 1;
nodes = (
"89 985 LINE SMOOTH",
"89 1001 OFFCURVE",
"98 1006 OFFCURVE",
"112 1009 CURVE SMOOTH",
"153 1019 LINE SMOOTH",
"167 1022 OFFCURVE",
"176 1011 OFFCURVE",
"176 995 CURVE SMOOTH",
"179 672 LINE SMOOTH",
"200 297 LINE",
"201 281 OFFCURVE",
"194 272 OFFCURVE",
"179 272 CURVE SMOOTH",
"86 272 LINE SMOOTH",
"72 272 OFFCURVE",
"65 281 OFFCURVE",
"66 297 CURVE SMOOTH",
"82 672 LINE"
);
}
);
width = 266;
}
);
unicode = 0021;
},
{
color = 0;
glyphname = quotedbl;
lastChange = "2019-03-31 15:49:30 +0000";
layers = (
{
layerId = "6B6936E6-7670-4A82-900D-EAF583C971AF";
paths = (
{
closed = 1;
nodes = (
"151 1030 LINE SMOOTH",
"167 1030 OFFCURVE",
"176 1022 OFFCURVE",
"176 1006 CURVE SMOOTH",
"180 768 LINE SMOOTH",
"181 752 OFFCURVE",
"172 743 OFFCURVE",
"156 743 CURVE SMOOTH",
"97 743 LINE SMOOTH",
"82 743 OFFCURVE",
"73 752 OFFCURVE",
"73 768 CURVE SMOOTH",
"78 1006 LINE SMOOTH",
"78 1022 OFFCURVE",
"86 1030 OFFCURVE",
"103 1030 CURVE SMOOTH"
);
},
{
closed = 1;
nodes = (
"356 1030 LINE SMOOTH",
"373 1030 OFFCURVE",
"381 1022 OFFCURVE",
"381 1006 CURVE SMOOTH",
"386 768 LINE SMOOTH",
"386 752 OFFCURVE",
"377 743 OFFCURVE",
"362 743 CURVE SMOOTH",
"302 743 LINE SMOOTH",
"287 743 OFFCURVE",
"278 752 OFFCURVE",
"279 768 CURVE SMOOTH",
"282 1006 LINE SMOOTH",
"283 1022 OFFCURVE",
"291 1030 OFFCURVE",
"307 1030 CURVE SMOOTH"
);
}
);
width = 459;
},
{
layerId = "285E899F-63D1-4687-98EA-700375B8DCD4";
paths = (
{
closed = 1;
nodes = (
"174 1061 LINE SMOOTH",
"192 1061 OFFCURVE",
"202 1053 OFFCURVE",
"202 1036 CURVE SMOOTH",
"207 791 LINE SMOOTH",
"208 775 OFFCURVE",
"198 765 OFFCURVE",
"179 765 CURVE SMOOTH",
"112 765 LINE SMOOTH",
"94 765 OFFCURVE",
"84 775 OFFCURVE",
"84 791 CURVE SMOOTH",
"90 1036 LINE SMOOTH",
"90 1053 OFFCURVE",
"99 1061 OFFCURVE",
"118 1061 CURVE SMOOTH"
);
},
{
closed = 1;
nodes = (
"409 1061 LINE SMOOTH",
"429 1061 OFFCURVE",
"438 1053 OFFCURVE",
"438 1036 CURVE SMOOTH",
"444 791 LINE SMOOTH",
"444 775 OFFCURVE",
"434 765 OFFCURVE",
"416 765 CURVE SMOOTH",
"347 765 LINE SMOOTH",
"330 765 OFFCURVE",
"320 775 OFFCURVE",
"321 791 CURVE SMOOTH",
"324 1036 LINE SMOOTH",
"325 1053 OFFCURVE",
"335 1061 OFFCURVE",
"353 1061 CURVE SMOOTH"
);
}
);
width = 528;
},
{
layerId = "0964CBBB-CC62-4658-9513-E390A08878CC";
paths = (
{
closed = 1;
nodes = (
"136 1020 LINE SMOOTH",
"150 1020 OFFCURVE",
"158 1012 OFFCURVE",
"158 996 CURVE SMOOTH",
"162 760 LINE SMOOTH",
"163 744 OFFCURVE",
"155 736 OFFCURVE",
"140 736 CURVE SMOOTH",
"87 736 LINE SMOOTH",
"74 736 OFFCURVE",
"66 744 OFFCURVE",
"66 760 CURVE SMOOTH",
"70 996 LINE SMOOTH",
"70 1012 OFFCURVE",
"77 1020 OFFCURVE",
"93 1020 CURVE SMOOTH"
);
},
{
closed = 1;
nodes = (
"320 1020 LINE SMOOTH",
"336 1020 OFFCURVE",
"343 1012 OFFCURVE",
"343 996 CURVE SMOOTH",
"347 760 LINE SMOOTH",
"347 744 OFFCURVE",
"339 736 OFFCURVE",
"326 736 CURVE SMOOTH",
"272 736 LINE SMOOTH",
"258 736 OFFCURVE",
"250 744 OFFCURVE",
"251 760 CURVE SMOOTH",
"254 996 LINE SMOOTH",
"255 1012 OFFCURVE",
"262 1020 OFFCURVE",
"276 1020 CURVE SMOOTH"
);
}
);
width = 413;
}
);
unicode = 0022;
},
{
color = 0;
glyphname = numbersign;
lastChange = "2019-03-31 15:49:30 +0000";
layers = (
{
guideLines = (
{
angle = 90;
position = "{229, 390}";
},
{
angle = 90;
position = "{308, 383}";
},
{
angle = 90;
position = "{495, 359}";
},
{
angle = 90;
position = "{574, 366}";
},
{
position = "{396, 192}";
},
{
position = "{401, 277}";
}
);
layerId = "6B6936E6-7670-4A82-900D-EAF583C971AF";
paths = (
{
closed = 1;
nodes = (
"481 387 LINE SMOOTH",
"481 403 OFFCURVE",
"477 412 OFFCURVE",
"461 412 CURVE SMOOTH",
"348 412 LINE SMOOTH",
"335 412 OFFCURVE",
"322 406 OFFCURVE",
"322 392 CURVE SMOOTH",
"322 303 LINE SMOOTH",
"322 287 OFFCURVE",
"326 277 OFFCURVE",
"342 277 CURVE SMOOTH",
"455 277 LINE SMOOTH",
"468 277 OFFCURVE",
"481 284 OFFCURVE",
"481 297 CURVE SMOOTH"
);
},
{
closed = 1;
nodes = (
"295 718 LINE SMOOTH",
"312 718 OFFCURVE",
"316 708 OFFCURVE",
"316 690 CURVE SMOOTH",
"318 542 LINE SMOOTH",
"318 525 OFFCURVE",
"322 515 OFFCURVE",
"339 515 CURVE SMOOTH",
"458 515 LINE SMOOTH",
"472 515 OFFCURVE",
"485 522 OFFCURVE",
"485 536 CURVE SMOOTH",
"485 697 LINE SMOOTH",
"485 711 OFFCURVE",
"498 718 OFFCURVE",
"512 718 CURVE SMOOTH",
"553 718 LINE SMOOTH",
"570 718 OFFCURVE",
"574 708 OFFCURVE",
"574 690 CURVE SMOOTH",
"577 542 LINE SMOOTH",
"577 525 OFFCURVE",
"581 515 OFFCURVE",
"598 515 CURVE SMOOTH",
"702 515 LINE SMOOTH",
"718 515 OFFCURVE",
"726 507 OFFCURVE",
"726 491 CURVE SMOOTH",
"726 444 LINE SMOOTH",
"726 429 OFFCURVE",
"717 420 OFFCURVE",
"702 420 CURVE SMOOTH",
"603 420 LINE SMOOTH",
"589 420 OFFCURVE",
"576 413 OFFCURVE",
"576 399 CURVE SMOOTH",
"576 305 LINE SMOOTH",
"576 288 OFFCURVE",
"580 278 OFFCURVE",
"597 278 CURVE SMOOTH",
"702 277 LINE SMOOTH",
"718 277 OFFCURVE",
"726 269 OFFCURVE",
"726 252 CURVE SMOOTH",
"726 197 LINE SMOOTH",
"726 181 OFFCURVE",
"717 172 OFFCURVE",
"702 172 CURVE SMOOTH",
"603 172 LINE SMOOTH",
"589 172 OFFCURVE",
"576 165 OFFCURVE",
"576 151 CURVE SMOOTH",
"577 21 LINE SMOOTH",
"577 7 OFFCURVE",
"564 0 OFFCURVE",
"549 0 CURVE SMOOTH",
"505 0 LINE SMOOTH",
"488 0 OFFCURVE",
"484 10 OFFCURVE",
"484 27 CURVE SMOOTH",
"485 145 LINE SMOOTH",
"485 162 OFFCURVE",
"481 172 OFFCURVE",
"464 172 CURVE SMOOTH",
"355 172 LINE SMOOTH",
"330 172 OFFCURVE",
"318 165 OFFCURVE",
"318 151 CURVE SMOOTH",
"319 21 LINE SMOOTH",
"319 7 OFFCURVE",
"307 0 OFFCURVE",
"292 0 CURVE SMOOTH",
"248 0 LINE SMOOTH",
"231 0 OFFCURVE",
"227 10 OFFCURVE",
"227 27 CURVE SMOOTH",
"228 145 LINE SMOOTH",
"228 162 OFFCURVE",
"224 172 OFFCURVE",
"207 172 CURVE SMOOTH",
"98 172 LINE SMOOTH",
"82 172 OFFCURVE",
"73 180 OFFCURVE",
"73 197 CURVE SMOOTH",
"73 252 LINE SMOOTH",
"73 269 OFFCURVE",
"82 277 OFFCURVE",
"98 277 CURVE SMOOTH",
"202 277 LINE SMOOTH",
"216 277 OFFCURVE",
"228 284 OFFCURVE",
"228 298 CURVE SMOOTH",
"229 393 LINE SMOOTH",
"229 409 OFFCURVE",
"225 420 OFFCURVE",
"208 420 CURVE SMOOTH",
"97 420 LINE SMOOTH",
"82 420 OFFCURVE",
"73 428 OFFCURVE",
"73 444 CURVE SMOOTH",
"73 491 LINE SMOOTH",
"73 507 OFFCURVE",
"81 515 OFFCURVE",
"97 515 CURVE SMOOTH",
"201 515 LINE SMOOTH",
"216 515 OFFCURVE",
"229 522 OFFCURVE",
"229 536 CURVE SMOOTH",
"229 697 LINE SMOOTH",
"229 711 OFFCURVE",
"241 718 OFFCURVE",
"256 718 CURVE SMOOTH"
);
}
);
width = 799;
},
{
guideLines = (
{
angle = 90;
position = "{229, 390}";
},
{
angle = 90;
position = "{308, 383}";
},
{
angle = 90;
position = "{495, 359}";
},
{
angle = 90;
position = "{574, 366}";
},
{
position = "{396, 192}";
},
{
position = "{401, 277}";
}
);
layerId = "285E899F-63D1-4687-98EA-700375B8DCD4";
paths = (
{
closed = 1;
nodes = (
"553 399 LINE SMOOTH",
"553 415 OFFCURVE",
"549 424 OFFCURVE",
"530 424 CURVE SMOOTH",
"400 424 LINE SMOOTH",
"385 424 OFFCURVE",
"370 418 OFFCURVE",
"370 404 CURVE SMOOTH",
"370 312 LINE SMOOTH",
"370 296 OFFCURVE",
"375 285 OFFCURVE",
"393 285 CURVE SMOOTH",
"523 285 LINE SMOOTH",
"538 285 OFFCURVE",
"553 293 OFFCURVE",
"553 306 CURVE SMOOTH"
);
},
{
closed = 1;
nodes = (
"339 740 LINE SMOOTH",
"359 740 OFFCURVE",
"363 729 OFFCURVE",
"363 711 CURVE SMOOTH",
"366 558 LINE SMOOTH",
"366 541 OFFCURVE",
"370 530 OFFCURVE",
"390 530 CURVE SMOOTH",
"527 530 LINE SMOOTH",
"543 530 OFFCURVE",
"558 538 OFFCURVE",
"558 552 CURVE SMOOTH",
"558 718 LINE SMOOTH",
"558 732 OFFCURVE",
"573 740 OFFCURVE",
"589 740 CURVE SMOOTH",
"636 740 LINE SMOOTH",
"656 740 OFFCURVE",
"660 729 OFFCURVE",
"660 711 CURVE SMOOTH",
"664 558 LINE SMOOTH",
"664 541 OFFCURVE",
"668 530 OFFCURVE",
"688 530 CURVE SMOOTH",
"807 530 LINE SMOOTH",
"826 530 OFFCURVE",
"835 522 OFFCURVE",
"835 506 CURVE SMOOTH",
"835 457 LINE SMOOTH",
"835 442 OFFCURVE",
"825 433 OFFCURVE",
"807 433 CURVE SMOOTH",
"693 433 LINE SMOOTH",
"677 433 OFFCURVE",
"662 425 OFFCURVE",
"662 411 CURVE SMOOTH",
"662 314 LINE SMOOTH",
"662 297 OFFCURVE",
"667 286 OFFCURVE",
"687 286 CURVE SMOOTH",
"807 285 LINE SMOOTH",
"826 285 OFFCURVE",
"835 277 OFFCURVE",
"835 260 CURVE SMOOTH",
"835 203 LINE SMOOTH",
"835 186 OFFCURVE",
"825 177 OFFCURVE",
"807 177 CURVE SMOOTH",
"693 177 LINE SMOOTH",
"677 177 OFFCURVE",
"662 170 OFFCURVE",
"662 156 CURVE SMOOTH",
"664 22 LINE SMOOTH",
"664 7 OFFCURVE",
"649 0 OFFCURVE",
"631 0 CURVE SMOOTH",
"581 0 LINE SMOOTH",
"561 0 OFFCURVE",
"557 10 OFFCURVE",
"557 28 CURVE SMOOTH",
"558 149 LINE SMOOTH",
"558 167 OFFCURVE",
"553 177 OFFCURVE",
"534 177 CURVE SMOOTH",
"408 177 LINE SMOOTH",
"379 177 OFFCURVE",
"366 170 OFFCURVE",
"366 156 CURVE SMOOTH",
"367 22 LINE SMOOTH",
"367 7 OFFCURVE",
"353 0 OFFCURVE",
"336 0 CURVE SMOOTH",
"285 0 LINE SMOOTH",
"266 0 OFFCURVE",
"261 10 OFFCURVE",
"261 28 CURVE SMOOTH",
"262 149 LINE SMOOTH",
"262 167 OFFCURVE",
"258 177 OFFCURVE",
"238 177 CURVE SMOOTH",
"113 177 LINE SMOOTH",
"94 177 OFFCURVE",
"84 185 OFFCURVE",
"84 203 CURVE SMOOTH",
"84 260 LINE SMOOTH",
"84 277 OFFCURVE",
"94 285 OFFCURVE",
"113 285 CURVE SMOOTH",
"232 285 LINE SMOOTH",
"248 285 OFFCURVE",
"262 293 OFFCURVE",
"262 307 CURVE SMOOTH",
"263 405 LINE SMOOTH",
"263 421 OFFCURVE",
"259 433 OFFCURVE",
"239 433 CURVE SMOOTH",
"112 433 LINE SMOOTH",
"94 433 OFFCURVE",
"84 441 OFFCURVE",
"84 457 CURVE SMOOTH",
"84 506 LINE SMOOTH",
"84 522 OFFCURVE",
"93 530 OFFCURVE",
"112 530 CURVE SMOOTH",
"231 530 LINE SMOOTH",
"248 530 OFFCURVE",
"263 538 OFFCURVE",
"263 552 CURVE SMOOTH",
"263 718 LINE SMOOTH",
"263 732 OFFCURVE",
"277 740 OFFCURVE",
"294 740 CURVE SMOOTH"
);
}
);
width = 919;
},
{
guideLines = (
{
angle = 90;
position = "{229, 390}";
},
{
angle = 90;
position = "{308, 383}";
},
{
angle = 90;
position = "{495, 359}";
},
{
angle = 90;
position = "{574, 366}";
},
{
position = "{396, 192}";
},
{
position = "{401, 277}";
}
);
layerId = "0964CBBB-CC62-4658-9513-E390A08878CC";
paths = (
{
closed = 1;
nodes = (
"433 383 LINE SMOOTH",
"433 399 OFFCURVE",
"429 408 OFFCURVE",
"415 408 CURVE SMOOTH",
"313 408 LINE SMOOTH",
"302 408 OFFCURVE",
"290 402 OFFCURVE",
"290 388 CURVE SMOOTH",
"290 300 LINE SMOOTH",
"290 284 OFFCURVE",
"293 274 OFFCURVE",
"308 274 CURVE SMOOTH",
"410 274 LINE SMOOTH",
"421 274 OFFCURVE",
"433 281 OFFCURVE",
"433 294 CURVE SMOOTH"
);
},
{
closed = 1;
nodes = (
"266 711 LINE SMOOTH",
"281 711 OFFCURVE",
"284 701 OFFCURVE",
"284 683 CURVE SMOOTH",
"286 537 LINE SMOOTH",
"286 520 OFFCURVE",
"290 510 OFFCURVE",
"305 510 CURVE SMOOTH",
"412 510 LINE SMOOTH",
"425 510 OFFCURVE",
"437 517 OFFCURVE",
"437 531 CURVE SMOOTH",
"437 690 LINE SMOOTH",
"437 704 OFFCURVE",
"448 711 OFFCURVE",
"461 711 CURVE SMOOTH",
"498 711 LINE SMOOTH",
"513 711 OFFCURVE",
"517 701 OFFCURVE",
"517 683 CURVE SMOOTH",
"519 537 LINE SMOOTH",
"519 520 OFFCURVE",
"523 510 OFFCURVE",
"538 510 CURVE SMOOTH",
"632 510 LINE SMOOTH",
"646 510 OFFCURVE",
"653 502 OFFCURVE",
"653 486 CURVE SMOOTH",
"653 440 LINE SMOOTH",
"653 425 OFFCURVE",
"645 416 OFFCURVE",
"632 416 CURVE SMOOTH",
"543 416 LINE SMOOTH",
"530 416 OFFCURVE",
"518 409 OFFCURVE",
"518 395 CURVE SMOOTH",
"518 302 LINE SMOOTH",
"518 285 OFFCURVE",
"522 275 OFFCURVE",
"537 275 CURVE SMOOTH",
"632 274 LINE SMOOTH",
"646 274 OFFCURVE",
"653 266 OFFCURVE",
"653 249 CURVE SMOOTH",
"653 195 LINE SMOOTH",
"653 179 OFFCURVE",
"645 170 OFFCURVE",
"632 170 CURVE SMOOTH",
"543 170 LINE SMOOTH",
"530 170 OFFCURVE",
"518 163 OFFCURVE",
"518 149 CURVE SMOOTH",
"519 21 LINE SMOOTH",
"519 7 OFFCURVE",
"508 0 OFFCURVE",
"494 0 CURVE SMOOTH",
"455 0 LINE SMOOTH",
"439 0 OFFCURVE",
"436 10 OFFCURVE",
"436 27 CURVE SMOOTH",
"437 144 LINE SMOOTH",
"437 160 OFFCURVE",
"433 170 OFFCURVE",
"418 170 CURVE SMOOTH",
"320 170 LINE SMOOTH",
"297 170 OFFCURVE",
"286 163 OFFCURVE",
"286 149 CURVE SMOOTH",
"287 21 LINE SMOOTH",
"287 7 OFFCURVE",
"276 0 OFFCURVE",
"263 0 CURVE SMOOTH",
"223 0 LINE SMOOTH",
"208 0 OFFCURVE",
"204 10 OFFCURVE",
"204 27 CURVE SMOOTH",
"205 144 LINE SMOOTH",
"205 160 OFFCURVE",
"202 170 OFFCURVE",
"186 170 CURVE SMOOTH",
"88 170 LINE SMOOTH",
"74 170 OFFCURVE",
"66 178 OFFCURVE",
"66 195 CURVE SMOOTH",
"66 249 LINE SMOOTH",
"66 266 OFFCURVE",
"74 274 OFFCURVE",
"88 274 CURVE SMOOTH",
"182 274 LINE SMOOTH",
"194 274 OFFCURVE",
"205 281 OFFCURVE",
"205 295 CURVE SMOOTH",
"206 389 LINE SMOOTH",
"206 405 OFFCURVE",
"203 416 OFFCURVE",
"187 416 CURVE SMOOTH",
"87 416 LINE SMOOTH",
"74 416 OFFCURVE",
"66 424 OFFCURVE",
"66 440 CURVE SMOOTH",
"66 486 LINE SMOOTH",
"66 502 OFFCURVE",
"73 510 OFFCURVE",
"87 510 CURVE SMOOTH",
"181 510 LINE SMOOTH",
"194 510 OFFCURVE",
"206 517 OFFCURVE",
"206 531 CURVE SMOOTH",
"206 690 LINE SMOOTH",
"206 704 OFFCURVE",
"217 711 OFFCURVE",
"230 711 CURVE SMOOTH"
);
}
);
width = 719;
}
);
unicode = 0023;
},
{
color = 4;
glyphname = dollar;
lastChange = "2019-03-31 15:49:45 +0000";
layers = (
{
layerId = "6B6936E6-7670-4A82-900D-EAF583C971AF";
paths = (
{
closed = 1;
nodes = (
"397 -116 LINE SMOOTH",
"398 -137 OFFCURVE",
"388 -147 OFFCURVE",
"368 -146 CURVE SMOOTH",
"325 -146 LINE SMOOTH",
"306 -145 OFFCURVE",
"295 -134 OFFCURVE",
"298 -115 CURVE SMOOTH",
"307 -1 LINE SMOOTH",
"308 18 OFFCURVE",
"299 29 OFFCURVE",
"280 30 CURVE SMOOTH",
"221 36 OFFCURVE",
"158 50 OFFCURVE",
"96 76 CURVE SMOOTH",
"81 82 OFFCURVE",
"73 94 OFFCURVE",
"73 110 CURVE SMOOTH",
"75 208 LINE SMOOTH",
"75 230 OFFCURVE",
"90 239 OFFCURVE",
"110 227 CURVE SMOOTH",
"167 195 OFFCURVE",
"226 176 OFFCURVE",
"282 170 CURVE SMOOTH",
"301 169 OFFCURVE",
"312 179 OFFCURVE",
"313 197 CURVE SMOOTH",
"315 370 LINE SMOOTH",
"315 387 OFFCURVE",
"307 398 OFFCURVE",
"289 402 CURVE SMOOTH",
"-1 469 OFFCURVE",
"8 790 OFFCURVE",
"300 822 CURVE SMOOTH",
"319 824 OFFCURVE",
"328 833 OFFCURVE",
"329 852 CURVE SMOOTH",
"331 931 LINE SMOOTH",
"331 949 OFFCURVE",
"341 948 OFFCURVE",
"360 948 CURVE SMOOTH",
"379 947 OFFCURVE",
"388 949 OFFCURVE",
"387 930 CURVE SMOOTH",
"387 853 LINE SMOOTH",
"386 835 OFFCURVE",
"396 824 OFFCURVE",
"414 823 CURVE SMOOTH",
"466 818 OFFCURVE",
"516 809 OFFCURVE",
"563 794 CURVE SMOOTH",
"580 789 OFFCURVE",
"587 778 OFFCURVE",
"587 761 CURVE SMOOTH",
"586 733 LINE SMOOTH",
"586 712 OFFCURVE",
"573 704 OFFCURVE",
"553 713 CURVE SMOOTH",
"509 733 OFFCURVE",
"463 745 OFFCURVE",
"414 751 CURVE SMOOTH",
"396 752 OFFCURVE",
"385 743 OFFCURVE",
"385 722 CURVE SMOOTH",
"381 499 LINE SMOOTH",
"381 482 OFFCURVE",
"390 471 OFFCURVE",
"407 468 CURVE SMOOTH",
"739 411 OFFCURVE",
"718 71 OFFCURVE",
"418 31 CURVE SMOOTH",
"400 29 OFFCURVE",
"391 18 OFFCURVE",
"391 -1 CURVE SMOOTH"
);
},
{
closed = 1;
nodes = (
"318 718 LINE SMOOTH",
"318 738 OFFCURVE",
"306 748 OFFCURVE",
"287 745 CURVE SMOOTH",
"123 707 OFFCURVE",
"119 527 OFFCURVE",
"281 485 CURVE SMOOTH",
"300 481 OFFCURVE",
"313 490 OFFCURVE",
"313 510 CURVE SMOOTH"
);
},
{
closed = 1;
nodes = (
"381 195 LINE SMOOTH",
"381 176 OFFCURVE",
"393 167 OFFCURVE",
"412 169 CURVE SMOOTH",
"559 196 OFFCURVE",
"581 345 OFFCURVE",
"410 371 CURVE SMOOTH",
"387 374 OFFCURVE",
"377 366 OFFCURVE",
"377 346 CURVE SMOOTH"
);
}
);
width = 705;
},
{
layerId = "285E899F-63D1-4687-98EA-700375B8DCD4";
paths = (
{
closed = 1;
nodes = (
"457 -119 LINE SMOOTH",
"458 -141 OFFCURVE",
"446 -151 OFFCURVE",
"423 -150 CURVE SMOOTH",
"374 -150 LINE SMOOTH",
"352 -149 OFFCURVE",
"339 -138 OFFCURVE",
"343 -118 CURVE SMOOTH",
"353 -1 LINE SMOOTH",
"354 19 OFFCURVE",
"344 30 OFFCURVE",
"322 31 CURVE SMOOTH",
"254 37 OFFCURVE",
"182 52 OFFCURVE",
"110 78 CURVE SMOOTH",
"93 84 OFFCURVE",
"84 97 OFFCURVE",
"84 113 CURVE SMOOTH",
"86 214 LINE SMOOTH",
"86 237 OFFCURVE",
"103 246 OFFCURVE",
"126 234 CURVE SMOOTH",
"192 201 OFFCURVE",
"260 181 OFFCURVE",
"324 175 CURVE SMOOTH",
"346 174 OFFCURVE",
"359 184 OFFCURVE",
"360 203 CURVE SMOOTH",
"362 381 LINE SMOOTH",
"362 399 OFFCURVE",
"353 410 OFFCURVE",
"332 414 CURVE SMOOTH",
"-1 483 OFFCURVE",
"9 814 OFFCURVE",
"345 847 CURVE SMOOTH",
"367 849 OFFCURVE",
"377 858 OFFCURVE",
"378 878 CURVE SMOOTH",
"381 959 LINE SMOOTH",
"381 977 OFFCURVE",
"392 976 OFFCURVE",
"414 976 CURVE SMOOTH",
"436 975 OFFCURVE",
"446 977 OFFCURVE",
"445 958 CURVE SMOOTH",
"445 879 LINE SMOOTH",
"444 860 OFFCURVE",
"455 849 OFFCURVE",
"476 848 CURVE SMOOTH",
"536 843 OFFCURVE",
"593 833 OFFCURVE",
"647 818 CURVE SMOOTH",
"667 813 OFFCURVE",
"675 801 OFFCURVE",
"675 784 CURVE SMOOTH",
"674 755 LINE SMOOTH",
"674 733 OFFCURVE",
"659 725 OFFCURVE",
"636 734 CURVE SMOOTH",
"585 755 OFFCURVE",
"532 767 OFFCURVE",
"476 774 CURVE SMOOTH",
"455 775 OFFCURVE",
"443 765 OFFCURVE",
"443 744 CURVE SMOOTH",
"438 514 LINE SMOOTH",
"438 496 OFFCURVE",
"448 485 OFFCURVE",
"468 482 CURVE SMOOTH",
"850 423 OFFCURVE",
"826 73 OFFCURVE",
"481 32 CURVE SMOOTH",
"460 30 OFFCURVE",
"450 19 OFFCURVE",
"450 -1 CURVE SMOOTH"
);
},
{
closed = 1;
nodes = (
"366 740 LINE SMOOTH",
"366 760 OFFCURVE",
"352 770 OFFCURVE",
"330 767 CURVE SMOOTH",
"141 728 OFFCURVE",
"137 543 OFFCURVE",
"323 500 CURVE SMOOTH",
"345 495 OFFCURVE",
"360 505 OFFCURVE",
"360 525 CURVE SMOOTH"
);
},
{
closed = 1;
nodes = (
"438 201 LINE SMOOTH",
"438 181 OFFCURVE",
"452 172 OFFCURVE",
"474 174 CURVE SMOOTH",
"643 202 OFFCURVE",
"668 355 OFFCURVE",
"471 382 CURVE SMOOTH",
"445 385 OFFCURVE",
"434 377 OFFCURVE",
"434 356 CURVE SMOOTH"
);
}
);
width = 811;
},
{
layerId = "0964CBBB-CC62-4658-9513-E390A08878CC";
paths = (
{
closed = 1;
nodes = (
"357 -115 LINE SMOOTH",
"358 -136 OFFCURVE",
"349 -146 OFFCURVE",
"331 -145 CURVE SMOOTH",
"293 -145 LINE SMOOTH",
"275 -144 OFFCURVE",
"266 -133 OFFCURVE",
"268 -114 CURVE SMOOTH",
"276 -1 LINE SMOOTH",
"277 18 OFFCURVE",
"269 29 OFFCURVE",
"252 30 CURVE SMOOTH",
"199 36 OFFCURVE",
"142 50 OFFCURVE",
"86 75 CURVE SMOOTH",
"73 81 OFFCURVE",
"66 93 OFFCURVE",
"66 109 CURVE SMOOTH",
"68 206 LINE SMOOTH",
"68 228 OFFCURVE",
"81 237 OFFCURVE",
"99 225 CURVE SMOOTH",
"150 193 OFFCURVE",
"203 174 OFFCURVE",
"254 168 CURVE SMOOTH",
"271 167 OFFCURVE",
"281 177 OFFCURVE",
"282 195 CURVE SMOOTH",
"284 366 LINE SMOOTH",
"284 383 OFFCURVE",
"276 394 OFFCURVE",
"260 398 CURVE SMOOTH",
"-1 464 OFFCURVE",
"7 782 OFFCURVE",
"270 814 CURVE SMOOTH",
"287 816 OFFCURVE",
"295 825 OFFCURVE",
"296 843 CURVE SMOOTH",
"298 922 LINE SMOOTH",
"298 940 OFFCURVE",
"307 939 OFFCURVE",
"324 939 CURVE SMOOTH",
"341 938 OFFCURVE",
"349 940 OFFCURVE",
"348 921 CURVE SMOOTH",
"348 844 LINE SMOOTH",
"347 827 OFFCURVE",
"356 816 OFFCURVE",
"373 815 CURVE SMOOTH",
"419 810 OFFCURVE",
"464 801 OFFCURVE",
"507 786 CURVE SMOOTH",
"522 781 OFFCURVE",
"528 770 OFFCURVE",
"528 753 CURVE SMOOTH",
"527 726 LINE SMOOTH",
"527 705 OFFCURVE",
"516 697 OFFCURVE",
"498 706 CURVE SMOOTH",
"458 726 OFFCURVE",
"417 738 OFFCURVE",
"373 743 CURVE SMOOTH",
"356 744 OFFCURVE",
"347 736 OFFCURVE",
"347 715 CURVE SMOOTH",
"343 494 LINE SMOOTH",
"343 477 OFFCURVE",
"351 466 OFFCURVE",
"366 463 CURVE SMOOTH",
"665 407 OFFCURVE",
"646 70 OFFCURVE",
"376 31 CURVE SMOOTH",
"360 29 OFFCURVE",
"352 18 OFFCURVE",
"352 -1 CURVE SMOOTH"
);
},
{
closed = 1;
nodes = (
"286 711 LINE SMOOTH",
"286 731 OFFCURVE",
"275 741 OFFCURVE",
"258 738 CURVE SMOOTH",
"111 700 OFFCURVE",
"107 522 OFFCURVE",
"253 480 CURVE SMOOTH",
"270 476 OFFCURVE",
"282 485 OFFCURVE",
"282 505 CURVE SMOOTH"
);
},
{
closed = 1;
nodes = (
"343 193 LINE SMOOTH",
"343 174 OFFCURVE",
"354 165 OFFCURVE",
"371 167 CURVE SMOOTH",
"503 194 OFFCURVE",
"523 342 OFFCURVE",
"369 367 CURVE SMOOTH",
"348 370 OFFCURVE",
"339 362 OFFCURVE",
"339 343 CURVE SMOOTH"
);
}
);
width = 635;
}
);
unicode = 0024;
},
{
color = 4;
glyphname = percent;
lastChange = "2019-03-31 15:49:45 +0000";
layers = (
{
components = (
{
name = slash;
transform = "{1, 0, 0, 1, 69, 12}";
}
);
layerId = "6B6936E6-7670-4A82-900D-EAF583C971AF";
paths = (
{
closed = 1;
nodes = (
"495 291 OFFCURVE",
"461 244 OFFCURVE",
"461 164 CURVE SMOOTH",
"461 106 OFFCURVE",
"495 86 OFFCURVE",
"551 86 CURVE SMOOTH",
"607 86 OFFCURVE",
"641 106 OFFCURVE",
"641 164 CURVE SMOOTH",
"641 243 OFFCURVE",
"607 291 OFFCURVE",
"551 291 CURVE SMOOTH"
);
},
{
closed = 1;
nodes = (
"654 353 OFFCURVE",
"719 276 OFFCURVE",
"719 155 CURVE SMOOTH",
"719 33 OFFCURVE",
"653 -44 OFFCURVE",
"551 -44 CURVE SMOOTH",
"447 -44 OFFCURVE",
"382 33 OFFCURVE",
"382 155 CURVE SMOOTH",
"382 277 OFFCURVE",
"448 353 OFFCURVE",
"551 353 CURVE SMOOTH"
);
},
{
closed = 1;
nodes = (
"185 816 OFFCURVE",
"151 766 OFFCURVE",
"151 683 CURVE SMOOTH",
"151 619 OFFCURVE",
"185 598 OFFCURVE",
"242 598 CURVE SMOOTH",
"298 598 OFFCURVE",
"332 619 OFFCURVE",
"332 683 CURVE SMOOTH",
"332 765 OFFCURVE",
"298 816 OFFCURVE",
"242 816 CURVE SMOOTH"
);
},
{
closed = 1;
nodes = (
"345 878 OFFCURVE",
"411 802 OFFCURVE",
"411 680 CURVE SMOOTH",
"411 557 OFFCURVE",
"345 481 OFFCURVE",
"242 481 CURVE SMOOTH",
"138 481 OFFCURVE",
"73 558 OFFCURVE",
"73 680 CURVE SMOOTH",
"73 801 OFFCURVE",
"139 878 OFFCURVE",
"242 878 CURVE SMOOTH"
);
}
);
width = 792;
},
{
components = (
{
name = slash;
transform = "{1, 0, 0, 1, 79, 12}";
}
);
layerId = "285E899F-63D1-4687-98EA-700375B8DCD4";
paths = (
{
closed = 1;
nodes = (
"569 300 OFFCURVE",
"530 251 OFFCURVE",
"530 169 CURVE SMOOTH",
"530 109 OFFCURVE",
"569 89 OFFCURVE",
"634 89 CURVE SMOOTH",
"698 89 OFFCURVE",
"737 109 OFFCURVE",
"737 169 CURVE SMOOTH",
"737 250 OFFCURVE",
"698 300 OFFCURVE",
"634 300 CURVE SMOOTH"
);
},
{
closed = 1;
nodes = (
"752 364 OFFCURVE",
"827 284 OFFCURVE",
"827 160 CURVE SMOOTH",
"827 34 OFFCURVE",
"751 -45 OFFCURVE",
"634 -45 CURVE SMOOTH",
"514 -45 OFFCURVE",
"439 34 OFFCURVE",
"439 160 CURVE SMOOTH",
"439 285 OFFCURVE",
"515 364 OFFCURVE",
"634 364 CURVE SMOOTH"
);
},
{
closed = 1;
nodes = (
"213 840 OFFCURVE",
"174 789 OFFCURVE",
"174 703 CURVE SMOOTH",
"174 638 OFFCURVE",
"213 616 OFFCURVE",
"278 616 CURVE SMOOTH",
"343 616 OFFCURVE",
"382 638 OFFCURVE",
"382 703 CURVE SMOOTH",
"382 788 OFFCURVE",
"343 840 OFFCURVE",
"278 840 CURVE SMOOTH"
);
},
{
closed = 1;
nodes = (
"397 904 OFFCURVE",
"473 826 OFFCURVE",
"473 700 CURVE SMOOTH",
"473 574 OFFCURVE",
"397 495 OFFCURVE",
"278 495 CURVE SMOOTH",
"159 495 OFFCURVE",
"84 575 OFFCURVE",
"84 700 CURVE SMOOTH",
"84 825 OFFCURVE",
"160 904 OFFCURVE",
"278 904 CURVE SMOOTH"
);
}
);
width = 911;
},
{
components = (
{
name = slash;
transform = "{1, 0, 0, 1, 62, 12}";
}
);
layerId = "0964CBBB-CC62-4658-9513-E390A08878CC";
paths = (
{
closed = 1;
nodes = (
"446 288 OFFCURVE",
"415 242 OFFCURVE",
"415 162 CURVE SMOOTH",
"415 105 OFFCURVE",
"446 85 OFFCURVE",
"496 85 CURVE SMOOTH",
"546 85 OFFCURVE",
"577 105 OFFCURVE",
"577 162 CURVE SMOOTH",
"577 241 OFFCURVE",
"546 288 OFFCURVE",
"496 288 CURVE SMOOTH"
);
},
{
closed = 1;
nodes = (
"589 349 OFFCURVE",
"647 273 OFFCURVE",
"647 153 CURVE SMOOTH",
"647 33 OFFCURVE",
"588 -44 OFFCURVE",
"496 -44 CURVE SMOOTH",
"402 -44 OFFCURVE",
"344 33 OFFCURVE",
"344 153 CURVE SMOOTH",
"344 274 OFFCURVE",
"403 349 OFFCURVE",
"496 349 CURVE SMOOTH"
);
},
{
closed = 1;
nodes = (
"167 808 OFFCURVE",
"136 758 OFFCURVE",
"136 676 CURVE SMOOTH",
"136 613 OFFCURVE",
"167 592 OFFCURVE",
"218 592 CURVE SMOOTH",
"268 592 OFFCURVE",
"299 613 OFFCURVE",
"299 676 CURVE SMOOTH",
"299 757 OFFCURVE",
"268 808 OFFCURVE",
"218 808 CURVE SMOOTH"
);
},
{
closed = 1;
nodes = (
"311 869 OFFCURVE",
"370 794 OFFCURVE",
"370 673 CURVE SMOOTH",
"370 551 OFFCURVE",
"311 476 OFFCURVE",
"218 476 CURVE SMOOTH",
"124 476 OFFCURVE",
"66 552 OFFCURVE",
"66 673 CURVE SMOOTH",
"66 793 OFFCURVE",
"125 869 OFFCURVE",
"218 869 CURVE SMOOTH"
);
}
);
width = 713;
}
);
unicode = 0025;
},
{
color = 4;
glyphname = ampersand;
lastChange = "2019-03-31 15:49:45 +0000";
layers = (
{
guideLines = (
{
angle = 131.817;
position = "{489, 370}";
},
{
angle = -50;
position = "{387, 345}";
},
{
angle = 42.0177;
position = "{551, 255}";
},
{
angle = 45.1554;
position = "{638, 129}";
}
);
layerId = "6B6936E6-7670-4A82-900D-EAF583C971AF";
paths = (
{
closed = 1;
nodes = (
"691 144 LINE SMOOTH",
"679 158 OFFCURVE",
"679 170 OFFCURVE",
"689 184 CURVE",
"740 265 OFFCURVE",
"762 347 OFFCURVE",
"769 430 CURVE SMOOTH",
"771 449 OFFCURVE",
"761 460 OFFCURVE",
"742 460 CURVE SMOOTH",
"679 459 LINE SMOOTH",
"660 459 OFFCURVE",
"651 449 OFFCURVE",
"648 431 CURVE SMOOTH",
"641 389 OFFCURVE",
"632 337 OFFCURVE",
"599 297 CURVE SMOOTH",
"583 278 OFFCURVE",
"573 277 OFFCURVE",
"559 292 CURVE SMOOTH",
"351 525 LINE SMOOTH",
"344 533 OFFCURVE",
"345 540 OFFCURVE",
"353 546 CURVE SMOOTH",
"398 582 OFFCURVE",
"449 624 OFFCURVE",
"484 664 CURVE SMOOTH",
"548 737 OFFCURVE",
"504 861 OFFCURVE",
"404 878 CURVE SMOOTH",
"267 902 OFFCURVE",
"171 796 OFFCURVE",
"171 672 CURVE SMOOTH",
"171 633 OFFCURVE",
"185 593 OFFCURVE",
"211 551 CURVE SMOOTH",
"220 536 OFFCURVE",
"219 523 OFFCURVE",
"205 511 CURVE SMOOTH",
"116 439 OFFCURVE",
"73 359 OFFCURVE",
"73 268 CURVE SMOOTH",
"73 123 OFFCURVE",
"160 -14 OFFCURVE",
"388 -14 CURVE SMOOTH",
"448 -14 OFFCURVE",
"493 -9 OFFCURVE",
"578 69 CURVE SMOOTH",
"593 83 OFFCURVE",
"608 80 OFFCURVE",
"619 67 CURVE SMOOTH",
"664 13 LINE SMOOTH",
"672 3 OFFCURVE",
"684 -1 OFFCURVE",
"699 -1 CURVE SMOOTH",
"774 -1 LINE SMOOTH",
"800 -1 OFFCURVE",
"806 16 OFFCURVE",
"790 34 CURVE SMOOTH"
);
},
{
closed = 1;
nodes = (
"480 755 OFFCURVE",
"440 689 OFFCURVE",
"327 601 CURVE SMOOTH",
"310 588 OFFCURVE",
"297 585 OFFCURVE",
"291 592 CURVE SMOOTH",
"275 610 OFFCURVE",
"264 625 OFFCURVE",
"257 637 CURVE",
"183 743 OFFCURVE",
"353 908 OFFCURVE",
"436 808 CURVE SMOOTH"
);
},
{
closed = 1;
nodes = (
"456 174 OFFCURVE",
"366 173 OFFCURVE",
"333 173 CURVE SMOOTH",
"168 173 OFFCURVE",
"165 269 OFFCURVE",
"165 296 CURVE SMOOTH",
"165 358 OFFCURVE",
"190 412 OFFCURVE",
"246 467 CURVE",
"257.371 475.713 LINE",
"267.52 480.427 OFFCURVE",
"277.526 476.932 OFFCURVE",
"287 466 CURVE SMOOTH",
"481 231 LINE SMOOTH",
"494 216 OFFCURVE",
"493 202 OFFCURVE",
"477 190 CURVE SMOOTH"
);
}
);
width = 871.826;
},
{
guideLines = (
{
angle = 131.817;
position = "{489, 370}";
},
{
angle = -50;
position = "{387, 345}";
},
{
angle = 42.0177;
position = "{551, 255}";
},
{
angle = 45.1554;
position = "{638, 129}";
}
);
layerId = "285E899F-63D1-4687-98EA-700375B8DCD4";
paths = (
{
closed = 1;
nodes = (
"795 148 LINE SMOOTH",
"781 163 OFFCURVE",
"781 175 OFFCURVE",
"792 190 CURVE",
"851 273 OFFCURVE",
"876 357 OFFCURVE",
"884 443 CURVE SMOOTH",
"887 462 OFFCURVE",
"875 474 OFFCURVE",
"853 474 CURVE SMOOTH",
"781 473 LINE SMOOTH",
"759 473 OFFCURVE",
"749 462 OFFCURVE",
"745 444 CURVE SMOOTH",
"737 401 OFFCURVE",
"727 347 OFFCURVE",
"689 306 CURVE SMOOTH",
"670 286 OFFCURVE",
"659 285 OFFCURVE",
"643 301 CURVE SMOOTH",
"404 541 LINE SMOOTH",
"396 549 OFFCURVE",
"397 556 OFFCURVE",
"406 562 CURVE SMOOTH",
"458 599 OFFCURVE",
"516 643 OFFCURVE",
"557 684 CURVE SMOOTH",
"630 759 OFFCURVE",
"580 887 OFFCURVE",
"465 904 CURVE SMOOTH",
"307 929 OFFCURVE",
"197 820 OFFCURVE",
"197 692 CURVE SMOOTH",
"197 652 OFFCURVE",
"213 611 OFFCURVE",
"243 568 CURVE SMOOTH",
"253 552 OFFCURVE",
"252 539 OFFCURVE",
"236 526 CURVE SMOOTH",
"133 452 OFFCURVE",
"84 370 OFFCURVE",
"84 276 CURVE SMOOTH",
"84 127 OFFCURVE",
"184 -14 OFFCURVE",
"446 -14 CURVE SMOOTH",
"515 -14 OFFCURVE",
"567 -9 OFFCURVE",
"665 71 CURVE SMOOTH",
"682 85 OFFCURVE",
"699 82 OFFCURVE",
"712 69 CURVE SMOOTH",
"764 13 LINE SMOOTH",
"773 3 OFFCURVE",
"787 -1 OFFCURVE",
"804 -1 CURVE SMOOTH",
"890 -1 LINE SMOOTH",
"920 -1 OFFCURVE",
"927 16 OFFCURVE",
"908 35 CURVE SMOOTH"
);
},
{
closed = 1;
nodes = (
"552 778 OFFCURVE",
"506 710 OFFCURVE",
"376 619 CURVE SMOOTH",
"357 606 OFFCURVE",
"342 603 OFFCURVE",
"335 610 CURVE SMOOTH",
"316 628 OFFCURVE",
"304 644 OFFCURVE",
"296 656 CURVE",
"210 765 OFFCURVE",
"406 935 OFFCURVE",
"501 832 CURVE SMOOTH"
);
},
{
closed = 1;
nodes = (
"524 179 OFFCURVE",
"421 178 OFFCURVE",
"383 178 CURVE SMOOTH",
"193 178 OFFCURVE",
"190 277 OFFCURVE",
"190 305 CURVE SMOOTH",
"190 369 OFFCURVE",
"218 424 OFFCURVE",
"283 481 CURVE",
"296 490 LINE",
"308 495 OFFCURVE",
"319 491 OFFCURVE",
"330 480 CURVE SMOOTH",
"553 238 LINE SMOOTH",
"568 222 OFFCURVE",
"567 208 OFFCURVE",
"549 196 CURVE SMOOTH"
);
}
);
width = 1003;
},
{
guideLines = (
{
angle = 131.817;
position = "{489, 370}";
},
{
angle = -50;
position = "{387, 345}";
},
{
angle = 42.0177;
position = "{551, 255}";
},
{
angle = 45.1554;
position = "{638, 129}";
}
);
layerId = "0964CBBB-CC62-4658-9513-E390A08878CC";
paths = (
{
closed = 1;
nodes = (
"622 143 LINE SMOOTH",
"611 156 OFFCURVE",
"611 168 OFFCURVE",
"620 182 CURVE",
"666 262 OFFCURVE",
"686 344 OFFCURVE",
"692 426 CURVE SMOOTH",
"694 445 OFFCURVE",
"685 455 OFFCURVE",
"668 455 CURVE SMOOTH",
"611 454 LINE SMOOTH",
"594 454 OFFCURVE",
"586 445 OFFCURVE",
"583 427 CURVE SMOOTH",
"577 385 OFFCURVE",
"569 334 OFFCURVE",
"539 294 CURVE SMOOTH",
"525 275 OFFCURVE",
"516 274 OFFCURVE",
"503 289 CURVE SMOOTH",
"316 520 LINE SMOOTH",
"310 528 OFFCURVE",
"311 535 OFFCURVE",
"318 541 CURVE SMOOTH",
"358 576 OFFCURVE",
"404 618 OFFCURVE",
"436 657 CURVE SMOOTH",
"493 730 OFFCURVE",
"454 852 OFFCURVE",
"364 869 CURVE SMOOTH",
"240 893 OFFCURVE",
"154 788 OFFCURVE",
"154 665 CURVE SMOOTH",
"154 627 OFFCURVE",
"167 587 OFFCURVE",
"190 545 CURVE SMOOTH",
"198 531 OFFCURVE",
"197 518 OFFCURVE",
"185 506 CURVE SMOOTH",
"104 435 OFFCURVE",
"66 355 OFFCURVE",
"66 265 CURVE SMOOTH",
"66 122 OFFCURVE",
"144 -14 OFFCURVE",
"349 -14 CURVE SMOOTH",
"403 -14 OFFCURVE",
"444 -9 OFFCURVE",
"520 68 CURVE SMOOTH",
"534 82 OFFCURVE",
"547 79 OFFCURVE",
"557 66 CURVE SMOOTH",
"598 13 LINE SMOOTH",
"605 3 OFFCURVE",
"616 -1 OFFCURVE",
"629 -1 CURVE SMOOTH",
"697 -1 LINE SMOOTH",
"720 -1 OFFCURVE",
"725 16 OFFCURVE",
"711 34 CURVE SMOOTH"
);
},
{
closed = 1;
nodes = (
"432 747 OFFCURVE",
"396 682 OFFCURVE",
"294 595 CURVE SMOOTH",
"279 582 OFFCURVE",
"267 579 OFFCURVE",
"262 586 CURVE SMOOTH",
"248 604 OFFCURVE",
"238 619 OFFCURVE",
"231 631 CURVE",
"165 736 OFFCURVE",
"318 899 OFFCURVE",
"392 800 CURVE SMOOTH"
);
},
{
closed = 1;
nodes = (
"410 172 OFFCURVE",
"329 171 OFFCURVE",
"300 171 CURVE SMOOTH",
"151 171 OFFCURVE",
"149 266 OFFCURVE",
"149 293 CURVE SMOOTH",
"149 354 OFFCURVE",
"171 408 OFFCURVE",
"221 462 CURVE",
"232 471 LINE",
"241 476 OFFCURVE",
"250 472 OFFCURVE",
"258 461 CURVE SMOOTH",
"433 229 LINE SMOOTH",
"445 214 OFFCURVE",
"444 200 OFFCURVE",
"429 188 CURVE SMOOTH"
);
}
);
width = 785;
}
);
unicode = 0026;
},
{
color = 0;
glyphname = quotesingle;
lastChange = "2019-03-31 15:49:30 +0000";
layers = (
{
layerId = "6B6936E6-7670-4A82-900D-EAF583C971AF";
paths = (
{
closed = 1;
nodes = (
"171 1009 LINE SMOOTH",
"181 1009 OFFCURVE",
"187 1004 OFFCURVE",
"186 994 CURVE SMOOTH",
"156 753 LINE SMOOTH",
"155 743 OFFCURVE",
"151 738 OFFCURVE",
"141 738 CURVE SMOOTH",
"88 738 LINE SMOOTH",
"78 738 OFFCURVE",
"72 743 OFFCURVE",
"73 753 CURVE SMOOTH",
"103 994 LINE SMOOTH",
"104 1004 OFFCURVE",
"108 1009 OFFCURVE",
"118 1009 CURVE SMOOTH"
);
}
);
width = 259.108;
},
{
layerId = "285E899F-63D1-4687-98EA-700375B8DCD4";
paths = (
{
closed = 1;
nodes = (
"197 1039 LINE SMOOTH",
"208 1039 OFFCURVE",
"215 1034 OFFCURVE",
"214 1024 CURVE SMOOTH",
"179 776 LINE SMOOTH",
"178 765 OFFCURVE",
"174 760 OFFCURVE",
"162 760 CURVE SMOOTH",
"101 760 LINE SMOOTH",
"90 760 OFFCURVE",
"83 765 OFFCURVE",
"84 776 CURVE SMOOTH",
"118 1024 LINE SMOOTH",
"120 1034 OFFCURVE",
"124 1039 OFFCURVE",
"136 1039 CURVE SMOOTH"
);
}
);
width = 298;
},
{
layerId = "0964CBBB-CC62-4658-9513-E390A08878CC";
paths = (
{
closed = 1;
nodes = (
"154 999 LINE SMOOTH",
"163 999 OFFCURVE",
"168 994 OFFCURVE",
"167 984 CURVE SMOOTH",
"140 745 LINE SMOOTH",
"140 736 OFFCURVE",
"136 731 OFFCURVE",
"127 731 CURVE SMOOTH",
"79 731 LINE SMOOTH",
"70 731 OFFCURVE",
"65 736 OFFCURVE",
"66 745 CURVE SMOOTH",
"93 984 LINE SMOOTH",
"94 994 OFFCURVE",
"97 999 OFFCURVE",
"106 999 CURVE SMOOTH"
);
}
);
width = 233;
}
);
unicode = 0027;
},
{
color = 0;
glyphname = parenleft;
lastChange = "2019-03-31 15:49:30 +0000";
layers = (
{
layerId = "6B6936E6-7670-4A82-900D-EAF583C971AF";
paths = (
{
closed = 1;
nodes = (
"361 911 LINE SMOOTH",
"384 909 OFFCURVE",
"389 893 OFFCURVE",
"375 876 CURVE SMOOTH",
"132 548 OFFCURVE",
"146 274 OFFCURVE",
"251 -99 CURVE SMOOTH",
"257 -120 OFFCURVE",
"250 -133 OFFCURVE",
"228 -131 CURVE SMOOTH",
"145 -122 LINE SMOOTH",
"129 -120 OFFCURVE",
"118 -112 OFFCURVE",
"114 -97 CURVE SMOOTH",
"45 256 OFFCURVE",
"40 627 OFFCURVE",
"283 903 CURVE SMOOTH",
"293 915 OFFCURVE",
"303 919 OFFCURVE",
"319 917 CURVE SMOOTH"
);
}
);
width = 456;
},
{
layerId = "285E899F-63D1-4687-98EA-700375B8DCD4";
paths = (
{
closed = 1;
nodes = (
"415 938 LINE SMOOTH",
"442 936 OFFCURVE",
"447 920 OFFCURVE",
"431 902 CURVE SMOOTH",
"152 564 OFFCURVE",
"168 282 OFFCURVE",
"289 -102 CURVE SMOOTH",
"296 -124 OFFCURVE",
"288 -137 OFFCURVE",
"262 -135 CURVE SMOOTH",
"167 -126 LINE SMOOTH",
"148 -124 OFFCURVE",
"136 -115 OFFCURVE",
"131 -100 CURVE SMOOTH",
"52 264 OFFCURVE",
"46 646 OFFCURVE",
"325 930 CURVE SMOOTH",
"337 942 OFFCURVE",
"348 947 OFFCURVE",
"367 945 CURVE SMOOTH"
);
}
);
width = 524;
},
{
layerId = "0964CBBB-CC62-4658-9513-E390A08878CC";
paths = (
{
closed = 1;
nodes = (
"325 902 LINE SMOOTH",
"346 900 OFFCURVE",
"350 884 OFFCURVE",
"338 867 CURVE SMOOTH",
"119 543 OFFCURVE",
"131 271 OFFCURVE",
"226 -98 CURVE SMOOTH",
"231 -119 OFFCURVE",
"225 -132 OFFCURVE",
"205 -130 CURVE SMOOTH",
"131 -121 LINE SMOOTH",
"116 -119 OFFCURVE",
"106 -111 OFFCURVE",
"103 -96 CURVE SMOOTH",
"41 253 OFFCURVE",
"36 621 OFFCURVE",
"255 894 CURVE SMOOTH",
"264 906 OFFCURVE",
"273 910 OFFCURVE",
"287 908 CURVE SMOOTH"
);
}
);
width = 410;
}
);
unicode = 0028;
},
{
color = 0;
glyphname = parenright;
lastChange = "2019-03-31 15:49:30 +0000";
layers = (
{
layerId = "6B6936E6-7670-4A82-900D-EAF583C971AF";
paths = (
{
closed = 1;
nodes = (
"185 913 OFFCURVE",
"194 906 OFFCURVE",
"202 893 CURVE SMOOTH",
"397 583 OFFCURVE",
"339 222 OFFCURVE",
"213 -120 CURVE SMOOTH",
"207 -135 OFFCURVE",
"195 -141 OFFCURVE",
"179 -140 CURVE SMOOTH",
"96 -136 LINE SMOOTH",
"74 -135 OFFCURVE",
"68 -122 OFFCURVE",
"77 -101 CURVE SMOOTH",
"239 248 OFFCURVE",
"299 514 OFFCURVE",
"107 881 CURVE SMOOTH",
"96 901 OFFCURVE",
"104 914 OFFCURVE",
"127 914 CURVE SMOOTH",
"169 913 LINE SMOOTH"
);
}
);
width = 401.511;
},
{
layerId = "285E899F-63D1-4687-98EA-700375B8DCD4";
paths = (
{
closed = 1;
nodes = (
"213 940 OFFCURVE",
"223 933 OFFCURVE",
"232 920 CURVE SMOOTH",
"457 600 OFFCURVE",
"390 229 OFFCURVE",
"245 -124 CURVE SMOOTH",
"238 -139 OFFCURVE",
"224 -145 OFFCURVE",
"206 -144 CURVE SMOOTH",
"110 -140 LINE SMOOTH",
"85 -139 OFFCURVE",
"78 -126 OFFCURVE",
"89 -104 CURVE SMOOTH",
"275 255 OFFCURVE",
"344 529 OFFCURVE",
"123 907 CURVE SMOOTH",
"110 928 OFFCURVE",
"120 941 OFFCURVE",
"146 941 CURVE SMOOTH",
"194 940 LINE SMOOTH"
);
}
);
width = 462;
},
{
layerId = "0964CBBB-CC62-4658-9513-E390A08878CC";
paths = (
{
closed = 1;
nodes = (
"167 904 OFFCURVE",
"175 897 OFFCURVE",
"182 884 CURVE SMOOTH",
"357 577 OFFCURVE",
"305 220 OFFCURVE",
"192 -119 CURVE SMOOTH",
"186 -134 OFFCURVE",
"176 -140 OFFCURVE",
"161 -139 CURVE SMOOTH",
"86 -135 LINE SMOOTH",
"67 -134 OFFCURVE",
"61 -121 OFFCURVE",
"69 -100 CURVE SMOOTH",
"215 246 OFFCURVE",
"269 509 OFFCURVE",
"96 872 CURVE SMOOTH",
"86 892 OFFCURVE",
"94 905 OFFCURVE",
"114 905 CURVE SMOOTH",
"152 904 LINE SMOOTH"
);
}
);
width = 362;
}
);
unicode = 0029;
},
{
color = 0;
glyphname = asterisk;
lastChange = "2019-03-31 15:49:30 +0000";
layers = (
{
layerId = "6B6936E6-7670-4A82-900D-EAF583C971AF";
paths = (
{
closed = 1;
nodes = (
"516 629 LINE SMOOTH",
"517 615 OFFCURVE",
"513 606 OFFCURVE",
"500 599 CURVE SMOOTH",
"378 533 LINE SMOOTH",
"359 523 OFFCURVE",
"362 509 OFFCURVE",
"383 500 CURVE SMOOTH",
"522 447 LINE SMOOTH",
"539 440 OFFCURVE",
"543 427 OFFCURVE",
"532 412 CURVE SMOOTH",
"514 385 LINE SMOOTH",
"504 371 OFFCURVE",
"491 369 OFFCURVE",
"478 378 CURVE SMOOTH",
"360 449 LINE SMOOTH",
"342 460 OFFCURVE",
"329 451 OFFCURVE",
"331 430 CURVE SMOOTH",
"344 316 LINE SMOOTH",
"347 300 OFFCURVE",
"339 289 OFFCURVE",
"323 286 CURVE SMOOTH",
"296 282 LINE SMOOTH",
"278 278 OFFCURVE",
"268 286 OFFCURVE",
"268 304 CURVE SMOOTH",
"268 429 LINE SMOOTH",
"268 451 OFFCURVE",
"254 457 OFFCURVE",
"237 444 CURVE SMOOTH",
"137 362 LINE SMOOTH",
"124 350 OFFCURVE",
"111 352 OFFCURVE",
"101 366 CURVE SMOOTH",
"82 393 LINE SMOOTH",
"71 407 OFFCURVE",
"75 420 OFFCURVE",
"90 428 CURVE SMOOTH",
"214 496 LINE SMOOTH",
"234 506 OFFCURVE",
"237 521 OFFCURVE",
"217 528 CURVE SMOOTH",
"89 580 LINE SMOOTH",
"73 585 OFFCURVE",
"69 598 OFFCURVE",
"78 612 CURVE SMOOTH",
"94 637 LINE SMOOTH",
"102 650 OFFCURVE",
"114 653 OFFCURVE",
"127 645 CURVE SMOOTH",
"238 578 LINE SMOOTH",
"256 567 OFFCURVE",
"268 575 OFFCURVE",
"266 596 CURVE SMOOTH",
"254 700 LINE SMOOTH",
"252 715 OFFCURVE",
"258 725 OFFCURVE",
"273 729 CURVE SMOOTH",
"299 735 LINE SMOOTH",
"316 739 OFFCURVE",
"326 731 OFFCURVE",
"326 714 CURVE SMOOTH",
"326 593 LINE SMOOTH",
"326 573 OFFCURVE",
"339 566 OFFCURVE",
"355 577 CURVE SMOOTH",
"483 660 LINE SMOOTH",
"499 670 OFFCURVE",
"511 664 OFFCURVE",
"514 645 CURVE SMOOTH"
);
}
);
width = 611.152;
},
{
layerId = "285E899F-63D1-4687-98EA-700375B8DCD4";
paths = (
{
closed = 1;
nodes = (
"593 648 LINE SMOOTH",
"595 633 OFFCURVE",
"590 624 OFFCURVE",
"575 617 CURVE SMOOTH",
"435 549 LINE SMOOTH",
"413 539 OFFCURVE",
"416 524 OFFCURVE",
"440 515 CURVE SMOOTH",
"600 460 LINE SMOOTH",
"620 453 OFFCURVE",
"624 440 OFFCURVE",
"612 424 CURVE SMOOTH",
"591 397 LINE SMOOTH",
"580 382 OFFCURVE",
"565 380 OFFCURVE",
"550 389 CURVE SMOOTH",
"414 462 LINE SMOOTH",
"393 474 OFFCURVE",
"378 465 OFFCURVE",
"381 443 CURVE SMOOTH",
"396 325 LINE SMOOTH",
"399 309 OFFCURVE",
"390 298 OFFCURVE",
"371 295 CURVE SMOOTH",
"340 290 LINE SMOOTH",
"320 286 OFFCURVE",
"308 295 OFFCURVE",
"308 313 CURVE SMOOTH",
"308 442 LINE SMOOTH",
"308 465 OFFCURVE",
"292 471 OFFCURVE",
"273 457 CURVE SMOOTH",
"158 373 LINE SMOOTH",
"143 361 OFFCURVE",
"128 363 OFFCURVE",
"116 377 CURVE SMOOTH",
"94 405 LINE SMOOTH",
"82 419 OFFCURVE",
"86 433 OFFCURVE",
"103 441 CURVE SMOOTH",
"246 511 LINE SMOOTH",
"269 521 OFFCURVE",
"273 537 OFFCURVE",
"250 544 CURVE SMOOTH",
"102 597 LINE SMOOTH",
"84 603 OFFCURVE",
"79 616 OFFCURVE",
"90 630 CURVE SMOOTH",
"108 656 LINE SMOOTH",
"117 670 OFFCURVE",
"131 673 OFFCURVE",
"146 664 CURVE SMOOTH",
"274 595 LINE SMOOTH",
"294 584 OFFCURVE",
"308 592 OFFCURVE",
"306 614 CURVE SMOOTH",
"292 721 LINE SMOOTH",
"290 736 OFFCURVE",
"297 747 OFFCURVE",
"314 751 CURVE SMOOTH",
"344 757 LINE SMOOTH",
"363 761 OFFCURVE",
"375 753 OFFCURVE",
"375 735 CURVE SMOOTH",
"375 611 LINE SMOOTH",
"375 590 OFFCURVE",
"390 583 OFFCURVE",
"408 594 CURVE SMOOTH",
"555 680 LINE SMOOTH",
"574 690 OFFCURVE",
"588 684 OFFCURVE",
"591 664 CURVE SMOOTH"
);
}
);
width = 703;
},
{
layerId = "0964CBBB-CC62-4658-9513-E390A08878CC";
paths = (
{
closed = 1;
nodes = (
"464 623 LINE SMOOTH",
"465 609 OFFCURVE",
"462 600 OFFCURVE",
"450 593 CURVE SMOOTH",
"340 528 LINE SMOOTH",
"323 518 OFFCURVE",
"326 504 OFFCURVE",
"345 495 CURVE SMOOTH",
"470 443 LINE SMOOTH",
"485 436 OFFCURVE",
"489 423 OFFCURVE",
"479 408 CURVE SMOOTH",
"463 381 LINE SMOOTH",
"454 367 OFFCURVE",
"442 365 OFFCURVE",
"430 374 CURVE SMOOTH",
"324 445 LINE SMOOTH",
"308 455 OFFCURVE",
"296 446 OFFCURVE",
"298 426 CURVE SMOOTH",
"310 313 LINE SMOOTH",
"312 297 OFFCURVE",
"305 286 OFFCURVE",
"291 283 CURVE SMOOTH",
"266 279 LINE SMOOTH",
"250 275 OFFCURVE",
"241 283 OFFCURVE",
"241 301 CURVE SMOOTH",
"241 425 LINE SMOOTH",
"241 446 OFFCURVE",
"229 452 OFFCURVE",
"213 440 CURVE SMOOTH",
"123 358 LINE SMOOTH",
"112 347 OFFCURVE",
"100 348 OFFCURVE",
"91 362 CURVE SMOOTH",
"74 389 LINE SMOOTH",
"64 403 OFFCURVE",
"68 416 OFFCURVE",
"81 424 CURVE SMOOTH",
"193 491 LINE SMOOTH",
"211 501 OFFCURVE",
"213 516 OFFCURVE",
"195 523 CURVE SMOOTH",
"80 574 LINE SMOOTH",
"66 579 OFFCURVE",
"62 592 OFFCURVE",
"70 606 CURVE SMOOTH",
"85 631 LINE SMOOTH",
"92 644 OFFCURVE",
"103 646 OFFCURVE",
"114 639 CURVE SMOOTH",
"214 572 LINE SMOOTH",
"230 561 OFFCURVE",
"241 569 OFFCURVE",
"239 590 CURVE SMOOTH",
"229 693 LINE SMOOTH",
"227 708 OFFCURVE",
"232 718 OFFCURVE",
"246 722 CURVE SMOOTH",
"269 728 LINE SMOOTH",
"284 732 OFFCURVE",
"293 724 OFFCURVE",
"293 707 CURVE SMOOTH",
"293 587 LINE SMOOTH",
"293 567 OFFCURVE",
"305 560 OFFCURVE",
"320 571 CURVE SMOOTH",
"435 653 LINE SMOOTH",
"449 663 OFFCURVE",
"460 657 OFFCURVE",
"463 639 CURVE SMOOTH"
);
}
);
width = 550;
}
);
unicode = 002A;
},
{
color = 4;
glyphname = plus;
lastChange = "2019-03-31 15:49:45 +0000";
layers = (
{
layerId = "6B6936E6-7670-4A82-900D-EAF583C971AF";
paths = (
{
closed = 1;
nodes = (
"407 630 LINE SMOOTH",
"424 630 OFFCURVE",
"433 621 OFFCURVE",
"433 604 CURVE SMOOTH",
"433 387 LINE SMOOTH",
"433 371 OFFCURVE",
"443 361 OFFCURVE",
"460 361 CURVE SMOOTH",
"676 361 LINE SMOOTH",
"692 361 OFFCURVE",
"703 352 OFFCURVE",
"703 335 CURVE SMOOTH",
"703 296 LINE SMOOTH",
"703 279 OFFCURVE",
"693 270 OFFCURVE",
"676 270 CURVE SMOOTH",
"460 270 LINE SMOOTH",
"443 270 OFFCURVE",
"433 260 OFFCURVE",
"433 242 CURVE SMOOTH",
"433 26 LINE SMOOTH",
"433 9 OFFCURVE",
"423 0 OFFCURVE",
"407 0 CURVE SMOOTH",
"370 0 LINE SMOOTH",
"353 0 OFFCURVE",
"343 8 OFFCURVE",
"343 26 CURVE SMOOTH",
"343 242 LINE SMOOTH",
"343 260 OFFCURVE",
"334 270 OFFCURVE",
"317 270 CURVE SMOOTH",
"101 270 LINE SMOOTH",
"84 270 OFFCURVE",
"73 278 OFFCURVE",
"73 296 CURVE SMOOTH",
"73 335 LINE SMOOTH",
"73 352 OFFCURVE",
"84 361 OFFCURVE",
"101 361 CURVE SMOOTH",
"317 361 LINE SMOOTH",
"334 361 OFFCURVE",
"343 370 OFFCURVE",
"343 387 CURVE SMOOTH",
"343 604 LINE SMOOTH",
"343 620 OFFCURVE",
"351 630 OFFCURVE",
"370 630 CURVE SMOOTH"
);
}
);
width = 776;
},
{
layerId = "285E899F-63D1-4687-98EA-700375B8DCD4";
paths = (
{
closed = 1;
nodes = (
"468 649 LINE SMOOTH",
"488 649 OFFCURVE",
"498 640 OFFCURVE",
"498 622 CURVE SMOOTH",
"498 399 LINE SMOOTH",
"498 382 OFFCURVE",
"509 372 OFFCURVE",
"529 372 CURVE SMOOTH",
"777 372 LINE SMOOTH",
"796 372 OFFCURVE",
"808 363 OFFCURVE",
"808 345 CURVE SMOOTH",
"808 305 LINE SMOOTH",
"808 287 OFFCURVE",
"797 278 OFFCURVE",
"777 278 CURVE SMOOTH",
"529 278 LINE SMOOTH",
"509 278 OFFCURVE",
"498 268 OFFCURVE",
"498 249 CURVE SMOOTH",
"498 27 LINE SMOOTH",
"498 9 OFFCURVE",
"486 0 OFFCURVE",
"468 0 CURVE SMOOTH",
"425 0 LINE SMOOTH",
"406 0 OFFCURVE",
"394 8 OFFCURVE",
"394 27 CURVE SMOOTH",
"394 249 LINE SMOOTH",
"394 268 OFFCURVE",
"384 278 OFFCURVE",
"365 278 CURVE SMOOTH",
"116 278 LINE SMOOTH",
"97 278 OFFCURVE",
"84 286 OFFCURVE",
"84 305 CURVE SMOOTH",
"84 345 LINE SMOOTH",
"84 363 OFFCURVE",
"97 372 OFFCURVE",
"116 372 CURVE SMOOTH",
"365 372 LINE SMOOTH",
"384 372 OFFCURVE",
"394 381 OFFCURVE",
"394 399 CURVE SMOOTH",
"394 622 LINE SMOOTH",
"394 639 OFFCURVE",
"404 649 OFFCURVE",
"425 649 CURVE SMOOTH"
);
}
);
width = 892;
},
{
layerId = "0964CBBB-CC62-4658-9513-E390A08878CC";
paths = (
{
closed = 1;
nodes = (
"366 624 LINE SMOOTH",
"382 624 OFFCURVE",
"390 615 OFFCURVE",
"390 598 CURVE SMOOTH",
"390 383 LINE SMOOTH",
"390 367 OFFCURVE",
"399 357 OFFCURVE",
"414 357 CURVE SMOOTH",
"608 357 LINE SMOOTH",
"623 357 OFFCURVE",
"633 348 OFFCURVE",
"633 332 CURVE SMOOTH",
"633 293 LINE SMOOTH",
"633 276 OFFCURVE",
"624 267 OFFCURVE",
"608 267 CURVE SMOOTH",
"414 267 LINE SMOOTH",
"399 267 OFFCURVE",
"390 257 OFFCURVE",
"390 240 CURVE SMOOTH",
"390 26 LINE SMOOTH",
"390 9 OFFCURVE",
"381 0 OFFCURVE",
"366 0 CURVE SMOOTH",
"333 0 LINE SMOOTH",
"318 0 OFFCURVE",
"309 8 OFFCURVE",
"309 26 CURVE SMOOTH",
"309 240 LINE SMOOTH",
"309 257 OFFCURVE",
"301 267 OFFCURVE",
"285 267 CURVE SMOOTH",
"91 267 LINE SMOOTH",
"76 267 OFFCURVE",
"66 275 OFFCURVE",
"66 293 CURVE SMOOTH",
"66 332 LINE SMOOTH",
"66 348 OFFCURVE",
"76 357 OFFCURVE",
"91 357 CURVE SMOOTH",
"285 357 LINE SMOOTH",
"301 357 OFFCURVE",
"309 366 OFFCURVE",
"309 383 CURVE SMOOTH",
"309 598 LINE SMOOTH",
"309 614 OFFCURVE",
"316 624 OFFCURVE",
"333 624 CURVE SMOOTH"
);
}
);
width = 698;
}
);
unicode = 002B;
},
{
color = 0;
glyphname = comma;
lastChange = "2019-03-31 15:49:30 +0000";
layers = (
{
anchors = (
{
name = _comma;
position = "{193, 119}";
}
);
layerId = "6B6936E6-7670-4A82-900D-EAF583C971AF";
paths = (
{
closed = 1;
nodes = (
"118 97 LINE SMOOTH",
"116 114 OFFCURVE",
"126 122 OFFCURVE",
"144 122 CURVE SMOOTH",
"221 122 LINE SMOOTH",
"238 122 OFFCURVE",
"245 114 OFFCURVE",
"247 97 CURVE SMOOTH",
"257 31 LINE SMOOTH",
"259 19 OFFCURVE",
"255 9 OFFCURVE",
"247 -1 CURVE SMOOTH",
"143 -134 LINE SMOOTH",
"135 -145 OFFCURVE",
"125 -151 OFFCURVE",
"113 -151 CURVE SMOOTH",
"97 -151 LINE SMOOTH",
"78 -151 OFFCURVE",
"69 -138 OFFCURVE",
"75 -122 CURVE SMOOTH",
"124 -2 LINE SMOOTH",
"129 10 OFFCURVE",
"130 18 OFFCURVE",
"128 30 CURVE SMOOTH"
);
}
);
width = 330.51;
},
{
anchors = (
{
name = _comma;
position = "{222, 123}";
}
);
layerId = "285E899F-63D1-4687-98EA-700375B8DCD4";
paths = (
{
closed = 1;
nodes = (
"136 100 LINE SMOOTH",
"133 117 OFFCURVE",
"145 126 OFFCURVE",
"166 126 CURVE SMOOTH",
"254 126 LINE SMOOTH",
"274 126 OFFCURVE",
"282 117 OFFCURVE",
"284 100 CURVE SMOOTH",
"296 32 LINE SMOOTH",
"298 20 OFFCURVE",
"293 9 OFFCURVE",
"284 -1 CURVE SMOOTH",
"164 -138 LINE SMOOTH",
"155 -149 OFFCURVE",
"144 -156 OFFCURVE",
"130 -156 CURVE SMOOTH",
"112 -156 LINE SMOOTH",
"90 -156 OFFCURVE",
"79 -142 OFFCURVE",
"86 -126 CURVE SMOOTH",
"143 -2 LINE SMOOTH",
"148 10 OFFCURVE",
"150 19 OFFCURVE",
"147 31 CURVE SMOOTH"
);
}
);
width = 381;
},
{
anchors = (
{
name = _comma;
position = "{174, 118}";
}
);
layerId = "0964CBBB-CC62-4658-9513-E390A08878CC";
paths = (
{
closed = 1;
nodes = (
"106 96 LINE SMOOTH",
"104 113 OFFCURVE",
"113 121 OFFCURVE",
"130 121 CURVE SMOOTH",
"199 121 LINE SMOOTH",
"214 121 OFFCURVE",
"221 113 OFFCURVE",
"222 96 CURVE SMOOTH",
"231 31 LINE SMOOTH",
"233 19 OFFCURVE",
"230 9 OFFCURVE",
"222 -1 CURVE SMOOTH",
"129 -133 LINE SMOOTH",
"122 -144 OFFCURVE",
"113 -149 OFFCURVE",
"102 -149 CURVE SMOOTH",
"87 -149 LINE SMOOTH",
"70 -149 OFFCURVE",
"62 -137 OFFCURVE",
"68 -121 CURVE SMOOTH",
"112 -2 LINE SMOOTH",
"116 10 OFFCURVE",
"117 18 OFFCURVE",
"115 30 CURVE SMOOTH"
);
}
);
width = 298;
}
);
unicode = 002C;
},
{
color = 0;
glyphname = hyphen;
lastChange = "2019-03-31 15:49:30 +0000";
layers = (
{
layerId = "6B6936E6-7670-4A82-900D-EAF583C971AF";
paths = (
{
closed = 1;
nodes = (
"71 244 OFFCURVE",
"80 234 OFFCURVE",
"97 234 CURVE SMOOTH",
"311 238 LINE SMOOTH",
"326 238 OFFCURVE",
"334 246 OFFCURVE",
"337 261 CURVE SMOOTH",
"342 297 LINE SMOOTH",
"345 314 OFFCURVE",
"337 324 OFFCURVE",
"320 323 CURVE SMOOTH",
"106 319 LINE SMOOTH",
"91 319 OFFCURVE",
"82 312 OFFCURVE",
"80 297 CURVE SMOOTH",
"74 260 LINE SMOOTH"
);
}
);
width = 415.619;
},
{
layerId = "285E899F-63D1-4687-98EA-700375B8DCD4";
paths = (
{
closed = 1;
nodes = (
"82 251 OFFCURVE",
"92 241 OFFCURVE",
"112 241 CURVE SMOOTH",
"358 245 LINE SMOOTH",
"375 245 OFFCURVE",
"384 253 OFFCURVE",
"388 269 CURVE SMOOTH",
"393 306 LINE SMOOTH",
"397 323 OFFCURVE",
"388 334 OFFCURVE",
"368 333 CURVE SMOOTH",
"122 329 LINE SMOOTH",
"105 329 OFFCURVE",
"94 321 OFFCURVE",
"92 306 CURVE SMOOTH",
"85 268 LINE SMOOTH"
);
}
);
width = 478;
},
{
layerId = "0964CBBB-CC62-4658-9513-E390A08878CC";
paths = (
{
closed = 1;
nodes = (
"64 242 OFFCURVE",
"72 232 OFFCURVE",
"87 232 CURVE SMOOTH",
"280 236 LINE SMOOTH",
"293 236 OFFCURVE",
"301 244 OFFCURVE",
"303 258 CURVE SMOOTH",
"308 294 LINE SMOOTH",
"311 311 OFFCURVE",
"303 321 OFFCURVE",
"288 320 CURVE SMOOTH",
"95 316 LINE SMOOTH",
"82 316 OFFCURVE",
"74 309 OFFCURVE",
"72 294 CURVE SMOOTH",
"67 257 LINE SMOOTH"
);
}
);
width = 374;
}
);
unicode = 002D;
},
{
color = 0;
glyphname = period;
lastChange = "2019-03-31 15:49:30 +0000";
layers = (
{
layerId = "6B6936E6-7670-4A82-900D-EAF583C971AF";
paths = (
{
closed = 1;
nodes = (
"79 139 LINE SMOOTH",
"80 154 OFFCURVE",
"89 162 OFFCURVE",
"105 162 CURVE SMOOTH",
"201 162 LINE SMOOTH",
"218 162 OFFCURVE",
"226 153 OFFCURVE",
"225 137 CURVE SMOOTH",
"219 23 LINE SMOOTH",
"218 8 OFFCURVE",
"209 0 OFFCURVE",
"193 0 CURVE SMOOTH",
"96 0 LINE SMOOTH",
"80 0 OFFCURVE",
"72 9 OFFCURVE",
"73 25 CURVE SMOOTH"
);
}
);
width = 298.083;
},
{
layerId = "285E899F-63D1-4687-98EA-700375B8DCD4";
paths = (
{
closed = 1;
nodes = (
"91 143 LINE SMOOTH",
"92 159 OFFCURVE",
"102 167 OFFCURVE",
"121 167 CURVE SMOOTH",
"231 167 LINE SMOOTH",
"251 167 OFFCURVE",
"260 158 OFFCURVE",
"259 141 CURVE SMOOTH",
"252 24 LINE SMOOTH",
"251 8 OFFCURVE",
"240 0 OFFCURVE",
"222 0 CURVE SMOOTH",
"110 0 LINE SMOOTH",
"92 0 OFFCURVE",
"83 9 OFFCURVE",
"84 26 CURVE SMOOTH"
);
}
);
width = 343;
},
{
layerId = "0964CBBB-CC62-4658-9513-E390A08878CC";
paths = (
{
closed = 1;
nodes = (
"71 138 LINE SMOOTH",
"72 152 OFFCURVE",
"80 160 OFFCURVE",
"95 160 CURVE SMOOTH",
"181 160 LINE SMOOTH",
"196 160 OFFCURVE",
"203 151 OFFCURVE",
"203 136 CURVE SMOOTH",
"197 23 LINE SMOOTH",
"196 8 OFFCURVE",
"188 0 OFFCURVE",
"174 0 CURVE SMOOTH",
"86 0 LINE SMOOTH",
"72 0 OFFCURVE",
"65 9 OFFCURVE",
"66 25 CURVE SMOOTH"
);
}
);
width = 268;
}
);
unicode = 002E;
},
{
color = 0;
glyphname = slash;
lastChange = "2019-03-31 15:49:30 +0000";
layers = (
{
layerId = "6B6936E6-7670-4A82-900D-EAF583C971AF";
paths = (
{
closed = 1;
nodes = (
"471 850 LINE SMOOTH",
"477 863 OFFCURVE",
"485 870 OFFCURVE",
"499 869 CURVE SMOOTH",
"523 868 LINE SMOOTH",
"541 868 OFFCURVE",
"551 857 OFFCURVE",
"544 840 CURVE SMOOTH",
"185 -76 LINE SMOOTH",
"180 -90 OFFCURVE",
"171 -96 OFFCURVE",
"157 -96 CURVE SMOOTH",
"95 -94 LINE SMOOTH",
"77 -93 OFFCURVE",
"68 -82 OFFCURVE",
"75 -65 CURVE SMOOTH"
);
}
);
width = 619.248;
},
{
layerId = "285E899F-63D1-4687-98EA-700375B8DCD4";
paths = (
{
closed = 1;
nodes = (
"542 876 LINE SMOOTH",
"549 889 OFFCURVE",
"558 896 OFFCURVE",
"574 895 CURVE SMOOTH",
"601 894 LINE SMOOTH",
"622 894 OFFCURVE",
"634 883 OFFCURVE",
"626 865 CURVE SMOOTH",
"213 -78 LINE SMOOTH",
"207 -93 OFFCURVE",
"197 -99 OFFCURVE",
"181 -99 CURVE SMOOTH",
"109 -97 LINE SMOOTH",
"89 -96 OFFCURVE",
"78 -84 OFFCURVE",
"86 -67 CURVE SMOOTH"
);
}
);
width = 712;
},
{
layerId = "0964CBBB-CC62-4658-9513-E390A08878CC";
paths = (
{
closed = 1;
nodes = (
"424 842 LINE SMOOTH",
"429 854 OFFCURVE",
"437 861 OFFCURVE",
"449 860 CURVE SMOOTH",
"471 859 LINE SMOOTH",
"487 859 OFFCURVE",
"496 848 OFFCURVE",
"490 832 CURVE SMOOTH",
"167 -75 LINE SMOOTH",
"162 -89 OFFCURVE",
"154 -95 OFFCURVE",
"141 -95 CURVE SMOOTH",
"86 -93 LINE SMOOTH",
"69 -92 OFFCURVE",
"61 -81 OFFCURVE",
"68 -64 CURVE SMOOTH"
);
}
);
width = 557;
}
);
unicode = 002F;
},
{
color = 6;
glyphname = zero;
lastChange = "2015-04-18 15:15:13 +0000";
layers = (
{
layerId = "6B6936E6-7670-4A82-900D-EAF583C971AF";
paths = (
{
closed = 1;
nodes = (
"257 820 OFFCURVE",
"196 715 OFFCURVE",
"196 516 CURVE SMOOTH",
"196 298 OFFCURVE",
"245 200 OFFCURVE",
"364 200 CURVE SMOOTH",
"485 200 OFFCURVE",
"541 305 OFFCURVE",
"557 516 CURVE",
"557 715 OFFCURVE",
"497 820 OFFCURVE",
"376 820 CURVE SMOOTH"
);
},
{
closed = 1;
nodes = (
"570 913 OFFCURVE",
"668 758 OFFCURVE",
"668 432 CURVE SMOOTH",
"668 142 OFFCURVE",
"558 -14 OFFCURVE",
"364 -14 CURVE SMOOTH",
"172 -14 OFFCURVE",
"66 142 OFFCURVE",
"73 432 CURVE SMOOTH",
"81 758 OFFCURVE",
"184 913 OFFCURVE",
"376 913 CURVE SMOOTH"
);
},
{
closed = 1;
nodes = (
"419 385 OFFCURVE",
"431 440 OFFCURVE",
"431 483 CURVE SMOOTH",
"431 597 OFFCURVE",
"419 646 OFFCURVE",
"373 646 CURVE SMOOTH",
"321 646 OFFCURVE",
"314 582 OFFCURVE",
"314 483 CURVE SMOOTH",
"314 440 OFFCURVE",
"326 385 OFFCURVE",
"373 385 CURVE SMOOTH"
);
}
);
width = 741;
},
{
layerId = "285E899F-63D1-4687-98EA-700375B8DCD4";
paths = (
{
closed = 1;
nodes = (
"296 845 OFFCURVE",
"225 736 OFFCURVE",
"225 531 CURVE SMOOTH",
"225 307 OFFCURVE",
"282 206 OFFCURVE",
"419 206 CURVE SMOOTH",
"558 206 OFFCURVE",
"622 314 OFFCURVE",
"641 531 CURVE",
"641 736 OFFCURVE",
"572 845 OFFCURVE",
"432 845 CURVE SMOOTH"
);
},
{
closed = 1;
nodes = (
"656 940 OFFCURVE",
"768 781 OFFCURVE",
"768 445 CURVE SMOOTH",
"768 146 OFFCURVE",
"642 -14 OFFCURVE",
"419 -14 CURVE SMOOTH",
"198 -14 OFFCURVE",
"76 146 OFFCURVE",
"84 445 CURVE SMOOTH",
"93 781 OFFCURVE",
"212 940 OFFCURVE",
"432 940 CURVE SMOOTH"
);
},
{
closed = 1;
nodes = (
"482 397 OFFCURVE",
"496 453 OFFCURVE",
"496 497 CURVE SMOOTH",
"496 615 OFFCURVE",
"482 665 OFFCURVE",
"429 665 CURVE SMOOTH",
"369 665 OFFCURVE",
"361 599 OFFCURVE",
"361 497 CURVE SMOOTH",
"361 453 OFFCURVE",
"375 397 OFFCURVE",
"429 397 CURVE SMOOTH"
);
}
);
width = 852;
},
{
layerId = "0964CBBB-CC62-4658-9513-E390A08878CC";
paths = (
{
closed = 1;
nodes = (
"231 812 OFFCURVE",
"176 708 OFFCURVE",
"176 511 CURVE SMOOTH",
"176 295 OFFCURVE",
"221 198 OFFCURVE",
"328 198 CURVE SMOOTH",
"437 198 OFFCURVE",
"487 302 OFFCURVE",
"501 511 CURVE",
"501 708 OFFCURVE",
"447 812 OFFCURVE",
"338 812 CURVE SMOOTH"
);
},
{
closed = 1;
nodes = (
"513 904 OFFCURVE",
"601 750 OFFCURVE",
"601 428 CURVE SMOOTH",
"601 141 OFFCURVE",
"502 -14 OFFCURVE",
"328 -14 CURVE SMOOTH",
"155 -14 OFFCURVE",
"59 141 OFFCURVE",
"66 428 CURVE SMOOTH",
"73 750 OFFCURVE",
"166 904 OFFCURVE",
"338 904 CURVE SMOOTH"
);
},
{
closed = 1;
nodes = (
"377 381 OFFCURVE",
"388 436 OFFCURVE",
"388 478 CURVE SMOOTH",
"388 591 OFFCURVE",
"377 640 OFFCURVE",
"336 640 CURVE SMOOTH",
"289 640 OFFCURVE",
"283 576 OFFCURVE",
"283 478 CURVE SMOOTH",
"283 436 OFFCURVE",
"293 381 OFFCURVE",
"336 381 CURVE SMOOTH"
);
}
);
width = 667;
}
);
unicode = 0030;
},
{
color = 6;
glyphname = one;
lastChange = "2015-04-18 15:15:14 +0000";
layers = (
{
layerId = "6B6936E6-7670-4A82-900D-EAF583C971AF";
paths = (
{
closed = 1;
nodes = (
"111 113 LINE SMOOTH",
"111 132 OFFCURVE",
"120 143 OFFCURVE",
"139 143 CURVE SMOOTH",
"239 143 LINE SMOOTH",
"258 143 OFFCURVE",
"269 153 OFFCURVE",
"269 171 CURVE SMOOTH",
"281 722 LINE SMOOTH",
"281 742 OFFCURVE",
"269 752 OFFCURVE",
"249 748 CURVE SMOOTH",
"105 719 LINE SMOOTH",
"85 715 OFFCURVE",
"73 725 OFFCURVE",
"73 745 CURVE SMOOTH",
"73 805 LINE SMOOTH",
"73 822 OFFCURVE",
"82 832 OFFCURVE",
"99 835 CURVE",
"259 855 LINE SMOOTH",
"266 857 OFFCURVE",
"272 858 OFFCURVE",
"281 859 CURVE SMOOTH",
"402 884 LINE",
"421 886 OFFCURVE",
"430 874 OFFCURVE",
"430 855 CURVE SMOOTH",
"419 171 LINE SMOOTH",
"419 153 OFFCURVE",
"429 143 OFFCURVE",
"448 143 CURVE SMOOTH",
"537 143 LINE SMOOTH",
"556 143 OFFCURVE",
"565 132 OFFCURVE",
"565 113 CURVE SMOOTH",
"565 28 LINE SMOOTH",
"565 11 OFFCURVE",
"556 0 OFFCURVE",
"537 0 CURVE SMOOTH",
"139 0 LINE SMOOTH",
"120 0 OFFCURVE",
"111 11 OFFCURVE",
"111 28 CURVE SMOOTH"
);
}
);
width = 638;
},
{
layerId = "285E899F-63D1-4687-98EA-700375B8DCD4";
paths = (
{
closed = 1;
nodes = (
"128 116 LINE SMOOTH",
"128 136 OFFCURVE",
"138 147 OFFCURVE",
"160 147 CURVE SMOOTH",
"275 147 LINE SMOOTH",
"297 147 OFFCURVE",
"309 158 OFFCURVE",
"309 176 CURVE SMOOTH",
"323 744 LINE SMOOTH",
"323 764 OFFCURVE",
"309 775 OFFCURVE",
"286 770 CURVE SMOOTH",
"121 741 LINE SMOOTH",
"98 736 OFFCURVE",
"84 747 OFFCURVE",
"84 767 CURVE SMOOTH",
"84 829 LINE SMOOTH",
"84 847 OFFCURVE",
"94 857 OFFCURVE",
"114 860 CURVE",
"298 881 LINE SMOOTH",
"306 883 OFFCURVE",
"313 884 OFFCURVE",
"323 885 CURVE SMOOTH",
"462 911 LINE",
"484 913 OFFCURVE",
"494 900 OFFCURVE",
"494 881 CURVE SMOOTH",
"482 176 LINE SMOOTH",
"482 158 OFFCURVE",
"493 147 OFFCURVE",
"515 147 CURVE SMOOTH",
"618 147 LINE SMOOTH",
"639 147 OFFCURVE",
"650 136 OFFCURVE",
"650 116 CURVE SMOOTH",
"650 29 LINE SMOOTH",
"650 11 OFFCURVE",
"639 0 OFFCURVE",
"618 0 CURVE SMOOTH",
"160 0 LINE SMOOTH",
"138 0 OFFCURVE",
"128 11 OFFCURVE",
"128 29 CURVE SMOOTH"
);
}
);
width = 734;
},
{
layerId = "0964CBBB-CC62-4658-9513-E390A08878CC";
paths = (
{
closed = 1;
nodes = (
"100 112 LINE SMOOTH",
"100 131 OFFCURVE",
"108 142 OFFCURVE",
"125 142 CURVE SMOOTH",
"215 142 LINE SMOOTH",
"232 142 OFFCURVE",
"242 151 OFFCURVE",
"242 169 CURVE SMOOTH",
"253 715 LINE SMOOTH",
"253 735 OFFCURVE",
"242 744 OFFCURVE",
"224 741 CURVE SMOOTH",
"95 712 LINE SMOOTH",
"77 708 OFFCURVE",
"66 718 OFFCURVE",
"66 738 CURVE SMOOTH",
"66 797 LINE SMOOTH",
"66 814 OFFCURVE",
"74 824 OFFCURVE",
"89 827 CURVE",
"233 846 LINE SMOOTH",
"239 848 OFFCURVE",
"245 849 OFFCURVE",
"253 850 CURVE SMOOTH",
"362 875 LINE",
"379 877 OFFCURVE",
"387 865 OFFCURVE",
"387 846 CURVE SMOOTH",
"377 169 LINE SMOOTH",
"377 151 OFFCURVE",
"386 142 OFFCURVE",
"403 142 CURVE SMOOTH",
"483 142 LINE SMOOTH",
"500 142 OFFCURVE",
"509 131 OFFCURVE",
"509 112 CURVE SMOOTH",
"509 28 LINE SMOOTH",
"509 11 OFFCURVE",
"500 0 OFFCURVE",
"483 0 CURVE SMOOTH",
"125 0 LINE SMOOTH",
"108 0 OFFCURVE",
"100 11 OFFCURVE",
"100 28 CURVE SMOOTH"
);
}
);
width = 574;
}
);
unicode = 0031;
},
{
color = 6;
glyphname = two;
lastChange = "2015-04-18 15:15:14 +0000";
layers = (
{
layerId = "6B6936E6-7670-4A82-900D-EAF583C971AF";
paths = (
{
closed = 1;
nodes = (
"597 168 LINE SMOOTH",
"615 168 OFFCURVE",
"626 157 OFFCURVE",
"626 138 CURVE SMOOTH",
"626 28 LINE SMOOTH",
"626 11 OFFCURVE",
"615 0 OFFCURVE",
"597 0 CURVE SMOOTH",
"108 0 LINE SMOOTH",
"90 0 OFFCURVE",
"80 9 OFFCURVE",
"80 28 CURVE SMOOTH",
"80 146 LINE SMOOTH",
"80 160 OFFCURVE",
"86 172 OFFCURVE",
"96 181 CURVE SMOOTH",
"331 373 OFFCURVE",
"438 493 OFFCURVE",
"460 538 CURVE SMOOTH",
"475 566 OFFCURVE",
"483 607 OFFCURVE",
"483 635 CURVE SMOOTH",
"483 726 OFFCURVE",
"434 789 OFFCURVE",
"331 789 CURVE SMOOTH",
"266 789 OFFCURVE",
"198 766 OFFCURVE",
"120 708 CURVE SMOOTH",
"100 694 OFFCURVE",
"90 706 OFFCURVE",
"86 728 CURVE SMOOTH",
"74 782 LINE SMOOTH",
"70 800 OFFCURVE",
"81 806 OFFCURVE",
"96 815 CURVE SMOOTH",
"180 866 OFFCURVE",
"266 887 OFFCURVE",
"329 887 CURVE SMOOTH",
"507 887 OFFCURVE",
"621 792 OFFCURVE",
"621 642 CURVE SMOOTH",
"621 489 OFFCURVE",
"470 335 OFFCURVE",
"352 199 CURVE SMOOTH",
"337 183 OFFCURVE",
"355 168 OFFCURVE",
"376 168 CURVE SMOOTH"
);
}
);
width = 699;
},
{
layerId = "285E899F-63D1-4687-98EA-700375B8DCD4";
paths = (
{
closed = 1;
nodes = (
"687 173 LINE SMOOTH",
"707 173 OFFCURVE",
"720 162 OFFCURVE",
"720 142 CURVE SMOOTH",
"720 29 LINE SMOOTH",
"720 11 OFFCURVE",
"707 0 OFFCURVE",
"687 0 CURVE SMOOTH",
"124 0 LINE SMOOTH",
"103 0 OFFCURVE",
"92 9 OFFCURVE",
"92 29 CURVE SMOOTH",
"92 150 LINE SMOOTH",
"92 165 OFFCURVE",
"99 177 OFFCURVE",
"110 186 CURVE SMOOTH",
"381 384 OFFCURVE",
"504 508 OFFCURVE",
"529 554 CURVE SMOOTH",
"546 583 OFFCURVE",
"555 625 OFFCURVE",
"555 654 CURVE SMOOTH",
"555 748 OFFCURVE",
"499 813 OFFCURVE",
"381 813 CURVE SMOOTH",
"306 813 OFFCURVE",
"228 789 OFFCURVE",
"138 729 CURVE SMOOTH",
"115 715 OFFCURVE",
"103 727 OFFCURVE",
"99 750 CURVE SMOOTH",
"85 805 LINE SMOOTH",
"81 824 OFFCURVE",
"93 830 OFFCURVE",
"110 839 CURVE SMOOTH",
"207 892 OFFCURVE",
"306 914 OFFCURVE",
"378 914 CURVE SMOOTH",
"583 914 OFFCURVE",
"714 816 OFFCURVE",
"714 661 CURVE SMOOTH",
"714 504 OFFCURVE",
"541 345 OFFCURVE",
"405 205 CURVE SMOOTH",
"388 188 OFFCURVE",
"408 173 OFFCURVE",
"432 173 CURVE SMOOTH"
);
}
);
width = 804;
},
{
layerId = "0964CBBB-CC62-4658-9513-E390A08878CC";
paths = (
{
closed = 1;
nodes = (
"537 166 LINE SMOOTH",
"554 166 OFFCURVE",
"563 155 OFFCURVE",
"563 137 CURVE SMOOTH",
"563 28 LINE SMOOTH",
"563 11 OFFCURVE",
"554 0 OFFCURVE",
"537 0 CURVE SMOOTH",
"97 0 LINE SMOOTH",
"81 0 OFFCURVE",
"72 9 OFFCURVE",
"72 28 CURVE SMOOTH",
"72 145 LINE SMOOTH",
"72 158 OFFCURVE",
"77 170 OFFCURVE",
"86 179 CURVE SMOOTH",
"298 369 OFFCURVE",
"394 488 OFFCURVE",
"414 533 CURVE SMOOTH",
"428 560 OFFCURVE",
"435 601 OFFCURVE",
"435 629 CURVE SMOOTH",
"435 719 OFFCURVE",
"391 781 OFFCURVE",
"298 781 CURVE SMOOTH",
"239 781 OFFCURVE",
"178 758 OFFCURVE",
"108 701 CURVE SMOOTH",
"90 687 OFFCURVE",
"81 699 OFFCURVE",
"77 721 CURVE SMOOTH",
"67 774 LINE SMOOTH",
"63 792 OFFCURVE",
"73 798 OFFCURVE",
"86 807 CURVE SMOOTH",
"162 857 OFFCURVE",
"239 878 OFFCURVE",
"296 878 CURVE SMOOTH",
"456 878 OFFCURVE",
"559 784 OFFCURVE",
"559 636 CURVE SMOOTH",
"559 484 OFFCURVE",
"423 332 OFFCURVE",
"317 197 CURVE SMOOTH",
"303 181 OFFCURVE",
"320 166 OFFCURVE",
"338 166 CURVE SMOOTH"
);
}
);
width = 629;
}
);
unicode = 0032;
},
{
color = 6;
glyphname = three;
lastChange = "2015-04-18 15:15:14 +0000";
layers = (
{
layerId = "6B6936E6-7670-4A82-900D-EAF583C971AF";
paths = (
{
closed = 1;
nodes = (
"630 414 OFFCURVE",
"651 360 OFFCURVE",
"651 264 CURVE SMOOTH",
"651 79 OFFCURVE",
"530 -14 OFFCURVE",
"315 -14 CURVE SMOOTH",
"250 -14 OFFCURVE",
"182 -2 OFFCURVE",
"109 20 CURVE SMOOTH",
"93 26 OFFCURVE",
"86 37 OFFCURVE",
"85 53 CURVE SMOOTH",
"73 172 LINE SMOOTH",
"71 195 OFFCURVE",
"87 202 OFFCURVE",
"107 192 CURVE SMOOTH",
"201 150 OFFCURVE",
"402 122 OFFCURVE",
"479 202 CURVE SMOOTH",
"557 285 OFFCURVE",
"536 426 OFFCURVE",
"334 426 CURVE SMOOTH",
"263 426 LINE SMOOTH",
"244 426 OFFCURVE",
"234 436 OFFCURVE",
"234 454 CURVE SMOOTH",
"234 493 LINE SMOOTH",
"234 512 OFFCURVE",
"244 522 OFFCURVE",
"263 522 CURVE SMOOTH",
"339 522 LINE SMOOTH",
"453 522 OFFCURVE",
"516 569 OFFCURVE",
"516 655 CURVE SMOOTH",
"516 754 OFFCURVE",
"451 796 OFFCURVE",
"364 800 CURVE SMOOTH",
"297 803 OFFCURVE",
"216 780 OFFCURVE",
"144 768 CURVE SMOOTH",
"124 765 OFFCURVE",
"117 772 OFFCURVE",
"111 792 CURVE SMOOTH",
"98 836 LINE SMOOTH",
"93 852 OFFCURVE",
"95 866 OFFCURVE",
"112 869 CURVE SMOOTH",
"193 885 OFFCURVE",
"284 905 OFFCURVE",
"367 898 CURVE SMOOTH",
"508 886 OFFCURVE",
"626 817 OFFCURVE",
"631 655 CURVE SMOOTH",
"635 577 OFFCURVE",
"601 536 OFFCURVE",
"533 489 CURVE SMOOTH",
"523 480 OFFCURVE",
"524 471 OFFCURVE",
"536 465 CURVE SMOOTH"
);
}
);
width = 724;
},
{
layerId = "285E899F-63D1-4687-98EA-700375B8DCD4";
paths = (
{
closed = 1;
nodes = (
"725 426 OFFCURVE",
"749 371 OFFCURVE",
"749 272 CURVE SMOOTH",
"749 81 OFFCURVE",
"610 -14 OFFCURVE",
"362 -14 CURVE SMOOTH",
"288 -14 OFFCURVE",
"209 -2 OFFCURVE",
"125 21 CURVE SMOOTH",
"107 27 OFFCURVE",
"99 38 OFFCURVE",
"98 55 CURVE SMOOTH",
"84 177 LINE SMOOTH",
"82 201 OFFCURVE",
"100 208 OFFCURVE",
"123 198 CURVE SMOOTH",
"231 155 OFFCURVE",
"462 126 OFFCURVE",
"551 208 CURVE SMOOTH",
"641 294 OFFCURVE",
"616 439 OFFCURVE",
"384 439 CURVE SMOOTH",
"302 439 LINE SMOOTH",
"281 439 OFFCURVE",
"269 449 OFFCURVE",
"269 468 CURVE SMOOTH",
"269 508 LINE SMOOTH",
"269 527 OFFCURVE",
"281 538 OFFCURVE",
"302 538 CURVE SMOOTH",
"390 538 LINE SMOOTH",
"521 538 OFFCURVE",
"593 586 OFFCURVE",
"593 675 CURVE SMOOTH",
"593 777 OFFCURVE",
"519 820 OFFCURVE",
"419 824 CURVE SMOOTH",
"342 827 OFFCURVE",
"248 803 OFFCURVE",
"166 791 CURVE SMOOTH",
"143 788 OFFCURVE",
"135 795 OFFCURVE",
"128 816 CURVE SMOOTH",
"113 861 LINE SMOOTH",
"107 878 OFFCURVE",
"109 892 OFFCURVE",
"129 895 CURVE SMOOTH",
"222 912 OFFCURVE",
"327 932 OFFCURVE",
"422 925 CURVE SMOOTH",
"584 913 OFFCURVE",
"720 842 OFFCURVE",
"726 675 CURVE SMOOTH",
"730 594 OFFCURVE",
"691 552 OFFCURVE",
"613 504 CURVE SMOOTH",
"601 494 OFFCURVE",
"603 485 OFFCURVE",
"616 479 CURVE SMOOTH"
);
}
);
width = 833;
},
{
layerId = "0964CBBB-CC62-4658-9513-E390A08878CC";
paths = (
{
closed = 1;
nodes = (
"567 410 OFFCURVE",
"586 356 OFFCURVE",
"586 261 CURVE SMOOTH",
"586 78 OFFCURVE",
"477 -14 OFFCURVE",
"284 -14 CURVE SMOOTH",
"225 -14 OFFCURVE",
"164 -2 OFFCURVE",
"98 20 CURVE SMOOTH",
"84 26 OFFCURVE",
"77 37 OFFCURVE",
"77 52 CURVE SMOOTH",
"66 170 LINE SMOOTH",
"64 193 OFFCURVE",
"78 200 OFFCURVE",
"96 190 CURVE SMOOTH",
"181 149 OFFCURVE",
"362 121 OFFCURVE",
"431 200 CURVE SMOOTH",
"501 282 OFFCURVE",
"482 422 OFFCURVE",
"301 422 CURVE SMOOTH",
"237 422 LINE SMOOTH",
"220 422 OFFCURVE",
"211 432 OFFCURVE",
"211 449 CURVE SMOOTH",
"211 488 LINE SMOOTH",
"211 507 OFFCURVE",
"220 517 OFFCURVE",
"237 517 CURVE SMOOTH",
"305 517 LINE SMOOTH",
"408 517 OFFCURVE",
"464 563 OFFCURVE",
"464 648 CURVE SMOOTH",
"464 746 OFFCURVE",
"406 788 OFFCURVE",
"328 792 CURVE SMOOTH",
"267 795 OFFCURVE",
"194 772 OFFCURVE",
"130 760 CURVE SMOOTH",
"112 757 OFFCURVE",
"105 764 OFFCURVE",
"100 784 CURVE SMOOTH",
"88 828 LINE SMOOTH",
"84 843 OFFCURVE",
"86 857 OFFCURVE",
"101 860 CURVE SMOOTH",
"174 876 OFFCURVE",
"256 896 OFFCURVE",
"330 889 CURVE SMOOTH",
"457 877 OFFCURVE",
"563 809 OFFCURVE",
"568 648 CURVE SMOOTH",
"572 571 OFFCURVE",
"541 531 OFFCURVE",
"480 484 CURVE SMOOTH",
"471 475 OFFCURVE",
"472 466 OFFCURVE",
"482 460 CURVE SMOOTH"
);
}
);
width = 652;
}
);
unicode = 0033;
},
{
color = 6;
glyphname = four;
lastChange = "2015-04-18 15:15:13 +0000";
layers = (
{
guideLines = (
{
angle = 267.28;
position = "{430, 395}";
}
);
layerId = "6B6936E6-7670-4A82-900D-EAF583C971AF";
paths = (
{
closed = 1;
nodes = (
"240 552 OFFCURVE",
"240 552 OFFCURVE",
"222 448 CURVE SMOOTH",
"218 423 OFFCURVE",
"216 414 OFFCURVE",
"240 414 CURVE SMOOTH",
"395 412 LINE SMOOTH",
"415 412 OFFCURVE",
"422 420 OFFCURVE",
"425 440 CURVE SMOOTH",
"444 588 OFFCURVE",
"444 588 OFFCURVE",
"467 852 CURVE SMOOTH",
"468 864 OFFCURVE",
"474 865 OFFCURVE",
"484 868 CURVE SMOOTH",
"550 890 LINE SMOOTH",
"570 896 OFFCURVE",
"580 892 OFFCURVE",
"579 860 CURVE SMOOTH",
"563 438 LINE SMOOTH",
"562 418 OFFCURVE",
"574 408 OFFCURVE",
"593 408 CURVE SMOOTH",
"652 407 LINE SMOOTH",
"672 407 OFFCURVE",
"680 396 OFFCURVE",
"680 379 CURVE SMOOTH",
"679 315 LINE SMOOTH",
"679 297 OFFCURVE",
"669 287 OFFCURVE",
"649 287 CURVE SMOOTH",
"592 288 LINE SMOOTH",
"573 288 OFFCURVE",
"561 277 OFFCURVE",
"562 258 CURVE SMOOTH",
"572 29 LINE SMOOTH",
"573 11 OFFCURVE",
"562 0 OFFCURVE",
"543 0 CURVE SMOOTH",
"422 0 LINE SMOOTH",
"403 0 OFFCURVE",
"391 11 OFFCURVE",
"393 29 CURVE SMOOTH",
"415 262 LINE SMOOTH",
"417 281 OFFCURVE",
"405 291 OFFCURVE",
"386 291 CURVE SMOOTH",
"91 296 LINE SMOOTH",
"78 296 OFFCURVE",
"71 303 OFFCURVE",
"74 315 CURVE SMOOTH",
"127 559 OFFCURVE",
"127 559 OFFCURVE",
"180 800 CURVE SMOOTH",
"182 809 OFFCURVE",
"187 815 OFFCURVE",
"198 818 CURVE SMOOTH",
"272 834 LINE SMOOTH",
"284 837 OFFCURVE",
"291 831 OFFCURVE",
"288 818 CURVE SMOOTH"
);
}
);
width = 753;
},
{
guideLines = (
{
angle = 267.28;
position = "{430, 395}";
}
);
layerId = "285E899F-63D1-4687-98EA-700375B8DCD4";
paths = (
{
closed = 1;
nodes = (
"276 569 OFFCURVE",
"276 569 OFFCURVE",
"255 461 CURVE SMOOTH",
"251 436 OFFCURVE",
"248 426 OFFCURVE",
"276 426 CURVE SMOOTH",
"454 424 LINE SMOOTH",
"477 424 OFFCURVE",
"485 433 OFFCURVE",
"489 453 CURVE SMOOTH",
"511 606 OFFCURVE",
"511 606 OFFCURVE",
"537 878 CURVE SMOOTH",
"538 890 OFFCURVE",
"545 891 OFFCURVE",
"557 894 CURVE SMOOTH",
"633 917 LINE SMOOTH",
"656 923 OFFCURVE",
"667 919 OFFCURVE",
"666 886 CURVE SMOOTH",
"647 451 LINE SMOOTH",
"646 431 OFFCURVE",
"660 420 OFFCURVE",
"682 420 CURVE SMOOTH",
"750 419 LINE SMOOTH",
"773 419 OFFCURVE",
"782 408 OFFCURVE",
"782 390 CURVE SMOOTH",
"781 324 LINE SMOOTH",
"781 306 OFFCURVE",
"769 296 OFFCURVE",
"746 296 CURVE SMOOTH",
"681 297 LINE SMOOTH",
"659 297 OFFCURVE",
"645 285 OFFCURVE",
"646 266 CURVE SMOOTH",
"658 30 LINE SMOOTH",
"659 11 OFFCURVE",
"646 0 OFFCURVE",
"624 0 CURVE SMOOTH",
"485 0 LINE SMOOTH",
"463 0 OFFCURVE",
"450 11 OFFCURVE",
"452 30 CURVE SMOOTH",
"477 270 LINE SMOOTH",
"480 289 OFFCURVE",
"466 300 OFFCURVE",
"444 300 CURVE SMOOTH",
"105 305 LINE SMOOTH",
"90 305 OFFCURVE",
"82 312 OFFCURVE",
"85 324 CURVE SMOOTH",
"146 576 OFFCURVE",
"146 576 OFFCURVE",
"207 824 CURVE SMOOTH",
"209 833 OFFCURVE",
"215 839 OFFCURVE",
"228 843 CURVE SMOOTH",
"313 859 LINE SMOOTH",
"327 862 OFFCURVE",
"335 856 OFFCURVE",
"331 843 CURVE SMOOTH"
);
}
);
width = 866;
},
{
guideLines = (
{
angle = 267.28;
position = "{430, 395}";
}
);
layerId = "0964CBBB-CC62-4658-9513-E390A08878CC";
paths = (
{
closed = 1;
nodes = (
"216 546 OFFCURVE",
"216 546 OFFCURVE",
"200 444 CURVE SMOOTH",
"196 419 OFFCURVE",
"194 410 OFFCURVE",
"216 410 CURVE SMOOTH",
"356 408 LINE SMOOTH",
"374 408 OFFCURVE",
"380 416 OFFCURVE",
"383 436 CURVE SMOOTH",
"400 582 OFFCURVE",
"400 582 OFFCURVE",
"420 843 CURVE SMOOTH",
"421 855 OFFCURVE",
"427 856 OFFCURVE",
"436 859 CURVE SMOOTH",
"495 881 LINE SMOOTH",
"513 887 OFFCURVE",
"522 883 OFFCURVE",
"521 851 CURVE SMOOTH",
"507 434 LINE SMOOTH",
"506 414 OFFCURVE",
"517 404 OFFCURVE",
"534 404 CURVE SMOOTH",
"587 403 LINE SMOOTH",
"605 403 OFFCURVE",
"612 392 OFFCURVE",
"612 375 CURVE SMOOTH",
"611 312 LINE SMOOTH",
"611 294 OFFCURVE",
"602 284 OFFCURVE",
"584 284 CURVE SMOOTH",
"533 285 LINE SMOOTH",
"516 285 OFFCURVE",
"505 274 OFFCURVE",
"506 255 CURVE SMOOTH",
"515 29 LINE SMOOTH",
"516 11 OFFCURVE",
"506 0 OFFCURVE",
"489 0 CURVE SMOOTH",
"380 0 LINE SMOOTH",
"363 0 OFFCURVE",
"352 11 OFFCURVE",
"354 29 CURVE SMOOTH",
"374 259 LINE SMOOTH",
"375 278 OFFCURVE",
"365 288 OFFCURVE",
"347 288 CURVE SMOOTH",
"82 293 LINE SMOOTH",
"70 293 OFFCURVE",
"64 300 OFFCURVE",
"67 312 CURVE SMOOTH",
"114 553 OFFCURVE",
"114 553 OFFCURVE",
"162 792 CURVE SMOOTH",
"164 801 OFFCURVE",
"168 807 OFFCURVE",
"178 810 CURVE SMOOTH",
"245 826 LINE SMOOTH",
"256 829 OFFCURVE",
"262 823 OFFCURVE",
"259 810 CURVE SMOOTH"
);
}
);
width = 678;
}
);
unicode = 0034;
},
{
color = 6;
glyphname = five;
lastChange = "2015-04-18 15:15:14 +0000";
layers = (
{
layerId = "6B6936E6-7670-4A82-900D-EAF583C971AF";
paths = (
{
closed = 1;
nodes = (
"100 846 LINE SMOOTH",
"100 865 OFFCURVE",
"110 875 OFFCURVE",
"129 875 CURVE SMOOTH",
"514 875 LINE SMOOTH",
"533 875 OFFCURVE",
"538 864 OFFCURVE",
"543 846 CURVE SMOOTH",
"554 805 LINE SMOOTH",
"559 788 OFFCURVE",
"545 777 OFFCURVE",
"526 777 CURVE SMOOTH",
"224 777 LINE SMOOTH",
"205 777 OFFCURVE",
"194 766 OFFCURVE",
"195 747 CURVE SMOOTH",
"205 598 LINE SMOOTH",
"206 578 OFFCURVE",
"217 569 OFFCURVE",
"237 574 CURVE SMOOTH",
"408 607 OFFCURVE",
"630 546 OFFCURVE",
"630 279 CURVE SMOOTH",
"630 93 OFFCURVE",
"510 -14 OFFCURVE",
"300 -14 CURVE SMOOTH",
"236 -14 OFFCURVE",
"169 -5 OFFCURVE",
"98 15 CURVE SMOOTH",
"81 20 OFFCURVE",
"71 31 OFFCURVE",
"73 49 CURVE SMOOTH",
"85 165 LINE SMOOTH",
"87 188 OFFCURVE",
"99 196 OFFCURVE",
"119 187 CURVE SMOOTH",
"271 119 OFFCURVE",
"508 130 OFFCURVE",
"508 296 CURVE SMOOTH",
"508 466 OFFCURVE",
"272 500 OFFCURVE",
"208 452 CURVE SMOOTH",
"187 436 OFFCURVE",
"159 433 OFFCURVE",
"143 433 CURVE SMOOTH",
"122 433 OFFCURVE",
"111 433 OFFCURVE",
"110 456 CURVE SMOOTH"
);
}
);
width = 703;
},
{
layerId = "285E899F-63D1-4687-98EA-700375B8DCD4";
paths = (
{
closed = 1;
nodes = (
"115 871 LINE SMOOTH",
"115 891 OFFCURVE",
"126 901 OFFCURVE",
"148 901 CURVE SMOOTH",
"591 901 LINE SMOOTH",
"613 901 OFFCURVE",
"619 890 OFFCURVE",
"624 871 CURVE SMOOTH",
"637 829 LINE SMOOTH",
"643 812 OFFCURVE",
"627 800 OFFCURVE",
"605 800 CURVE SMOOTH",
"258 800 LINE SMOOTH",
"236 800 OFFCURVE",
"223 789 OFFCURVE",
"224 769 CURVE SMOOTH",
"236 616 LINE SMOOTH",
"237 595 OFFCURVE",
"250 586 OFFCURVE",
"273 591 CURVE SMOOTH",
"469 625 OFFCURVE",
"725 562 OFFCURVE",
"725 287 CURVE SMOOTH",
"725 96 OFFCURVE",
"587 -14 OFFCURVE",
"345 -14 CURVE SMOOTH",
"271 -14 OFFCURVE",
"194 -5 OFFCURVE",
"113 15 CURVE SMOOTH",
"93 21 OFFCURVE",
"82 32 OFFCURVE",
"84 50 CURVE SMOOTH",
"98 170 LINE SMOOTH",
"100 194 OFFCURVE",
"114 202 OFFCURVE",
"137 193 CURVE SMOOTH",
"312 123 OFFCURVE",
"584 134 OFFCURVE",
"584 305 CURVE SMOOTH",
"584 480 OFFCURVE",
"313 515 OFFCURVE",
"239 466 CURVE SMOOTH",
"215 449 OFFCURVE",
"183 446 OFFCURVE",
"164 446 CURVE SMOOTH",
"140 446 OFFCURVE",
"128 446 OFFCURVE",
"126 470 CURVE SMOOTH"
);
}
);
width = 808;
},
{
layerId = "0964CBBB-CC62-4658-9513-E390A08878CC";
paths = (
{
closed = 1;
nodes = (
"90 838 LINE SMOOTH",
"90 856 OFFCURVE",
"99 866 OFFCURVE",
"116 866 CURVE SMOOTH",
"463 866 LINE SMOOTH",
"480 866 OFFCURVE",
"484 855 OFFCURVE",
"489 838 CURVE SMOOTH",
"499 797 LINE SMOOTH",
"503 780 OFFCURVE",
"491 769 OFFCURVE",
"473 769 CURVE SMOOTH",
"202 769 LINE SMOOTH",
"185 769 OFFCURVE",
"175 758 OFFCURVE",
"176 740 CURVE SMOOTH",
"185 592 LINE SMOOTH",
"185 572 OFFCURVE",
"195 563 OFFCURVE",
"213 568 CURVE SMOOTH",
"367 601 OFFCURVE",
"567 541 OFFCURVE",
"567 276 CURVE SMOOTH",
"567 92 OFFCURVE",
"459 -14 OFFCURVE",
"270 -14 CURVE SMOOTH",
"212 -14 OFFCURVE",
"152 -5 OFFCURVE",
"88 15 CURVE SMOOTH",
"73 20 OFFCURVE",
"64 31 OFFCURVE",
"66 49 CURVE SMOOTH",
"77 163 LINE SMOOTH",
"78 186 OFFCURVE",
"89 194 OFFCURVE",
"107 185 CURVE SMOOTH",
"244 118 OFFCURVE",
"457 129 OFFCURVE",
"457 293 CURVE SMOOTH",
"457 461 OFFCURVE",
"245 495 OFFCURVE",
"187 447 CURVE SMOOTH",
"168 432 OFFCURVE",
"143 429 OFFCURVE",
"129 429 CURVE SMOOTH",
"110 429 OFFCURVE",
"100 429 OFFCURVE",
"99 451 CURVE SMOOTH"
);
}
);
width = 633;
}
);
unicode = 0035;
},
{
color = 6;
glyphname = six;
lastChange = "2015-04-18 15:15:14 +0000";
layers = (
{
layerId = "6B6936E6-7670-4A82-900D-EAF583C971AF";
paths = (
{
closed = 1;
nodes = (
"276 477 OFFCURVE",
"212 400 OFFCURVE",
"214 276 CURVE SMOOTH",
"215 198 OFFCURVE",
"282 150 OFFCURVE",
"386 152 CURVE",
"489 154 OFFCURVE",
"555 204 OFFCURVE",
"554 282 CURVE SMOOTH",
"552 406 OFFCURVE",
"483 481 OFFCURVE",
"380 479 CURVE SMOOTH"
);
},
{
closed = 1;
nodes = (
"606 778 LINE SMOOTH",
"612 757 OFFCURVE",
"594 748 OFFCURVE",
"573 756 CURVE SMOOTH",
"524 774 OFFCURVE",
"476 782 OFFCURVE",
"429 781 CURVE SMOOTH",
"286 779 OFFCURVE",
"209 689 OFFCURVE",
"192 508 CURVE SMOOTH",
"190 483 OFFCURVE",
"199 480 OFFCURVE",
"216 497 CURVE SMOOTH",
"258 544 OFFCURVE",
"318 570 OFFCURVE",
"386 571 CURVE SMOOTH",
"558 574 OFFCURVE",
"667 464 OFFCURVE",
"670 284 CURVE SMOOTH",
"673 107 OFFCURVE",
"562 -11 OFFCURVE",
"389 -14 CURVE SMOOTH",
"190 -17 OFFCURVE",
"78 137 OFFCURVE",
"73 427 CURVE SMOOTH",
"69 698 OFFCURVE",
"206 875 OFFCURVE",
"423 879 CURVE SMOOTH",
"474 880 OFFCURVE",
"517 870 OFFCURVE",
"571 855 CURVE SMOOTH",
"582 853 OFFCURVE",
"592 836 OFFCURVE",
"596 823 CURVE SMOOTH"
);
}
);
width = 743.059;
},
{
layerId = "285E899F-63D1-4687-98EA-700375B8DCD4";
paths = (
{
closed = 1;
nodes = (
"317 491 OFFCURVE",
"244 412 OFFCURVE",
"246 284 CURVE SMOOTH",
"247 204 OFFCURVE",
"324 155 OFFCURVE",
"444 157 CURVE",
"562 159 OFFCURVE",
"638 210 OFFCURVE",
"637 290 CURVE SMOOTH",
"635 418 OFFCURVE",
"555 495 OFFCURVE",
"437 493 CURVE SMOOTH"
);
},
{
closed = 1;
nodes = (
"697 801 LINE SMOOTH",
"704 780 OFFCURVE",
"683 770 OFFCURVE",
"659 779 CURVE SMOOTH",
"603 797 OFFCURVE",
"547 805 OFFCURVE",
"493 804 CURVE SMOOTH",
"329 802 OFFCURVE",
"240 710 OFFCURVE",
"221 523 CURVE SMOOTH",
"218 497 OFFCURVE",
"229 494 OFFCURVE",
"248 512 CURVE SMOOTH",
"297 560 OFFCURVE",
"366 587 OFFCURVE",
"444 588 CURVE SMOOTH",
"642 591 OFFCURVE",
"767 478 OFFCURVE",
"770 293 CURVE SMOOTH",
"774 110 OFFCURVE",
"646 -11 OFFCURVE",
"447 -14 CURVE SMOOTH",
"218 -18 OFFCURVE",
"90 141 OFFCURVE",
"84 440 CURVE SMOOTH",
"79 719 OFFCURVE",
"237 901 OFFCURVE",
"486 905 CURVE SMOOTH",
"545 906 OFFCURVE",
"595 896 OFFCURVE",
"657 881 CURVE SMOOTH",
"669 879 OFFCURVE",
"681 861 OFFCURVE",
"685 848 CURVE SMOOTH"
);
}
);
width = 854;
},
{
layerId = "0964CBBB-CC62-4658-9513-E390A08878CC";
paths = (
{
closed = 1;
nodes = (
"248 472 OFFCURVE",
"191 396 OFFCURVE",
"193 273 CURVE SMOOTH",
"194 196 OFFCURVE",
"254 149 OFFCURVE",
"347 150 CURVE",
"440 152 OFFCURVE",
"500 202 OFFCURVE",
"499 279 CURVE SMOOTH",
"497 402 OFFCURVE",
"435 476 OFFCURVE",
"342 474 CURVE SMOOTH"
);
},
{
closed = 1;
nodes = (
"545 770 LINE SMOOTH",
"551 749 OFFCURVE",
"535 741 OFFCURVE",
"516 748 CURVE SMOOTH",
"472 766 OFFCURVE",
"428 774 OFFCURVE",
"386 773 CURVE SMOOTH",
"257 771 OFFCURVE",
"188 682 OFFCURVE",
"173 503 CURVE SMOOTH",
"171 478 OFFCURVE",
"179 475 OFFCURVE",
"194 492 CURVE SMOOTH",
"232 539 OFFCURVE",
"286 564 OFFCURVE",
"347 565 CURVE SMOOTH",
"502 568 OFFCURVE",
"600 459 OFFCURVE",
"603 281 CURVE SMOOTH",
"606 106 OFFCURVE",
"506 -11 OFFCURVE",
"350 -14 CURVE SMOOTH",
"171 -17 OFFCURVE",
"70 136 OFFCURVE",
"66 423 CURVE SMOOTH",
"62 691 OFFCURVE",
"185 866 OFFCURVE",
"381 870 CURVE SMOOTH",
"427 871 OFFCURVE",
"465 861 OFFCURVE",
"514 846 CURVE SMOOTH",
"524 844 OFFCURVE",
"533 828 OFFCURVE",
"536 815 CURVE SMOOTH"
);
}
);
width = 669;
}
);
unicode = 0036;
},
{
color = 6;
glyphname = seven;
lastChange = "2015-04-18 15:15:14 +0000";
layers = (
{
layerId = "6B6936E6-7670-4A82-900D-EAF583C971AF";
paths = (
{
closed = 1;
nodes = (
"74 847 LINE SMOOTH",
"70 865 OFFCURVE",
"85 875 OFFCURVE",
"104 875 CURVE SMOOTH",
"593 875 LINE SMOOTH",
"612 875 OFFCURVE",
"622 865 OFFCURVE",
"622 847 CURVE SMOOTH",
"622 838 LINE SMOOTH",
"622 825 OFFCURVE",
"622 806 OFFCURVE",
"617 793 CURVE SMOOTH",
"380 25 LINE SMOOTH",
"374 8 OFFCURVE",
"365 0 OFFCURVE",
"348 0 CURVE SMOOTH",
"202 0 LINE SMOOTH",
"179 0 OFFCURVE",
"170 13 OFFCURVE",
"179 33 CURVE SMOOTH",
"503 740 LINE SMOOTH",
"512 761 OFFCURVE",
"503 774 OFFCURVE",
"480 774 CURVE SMOOTH",
"114 774 LINE SMOOTH",
"95 774 OFFCURVE",
"88 786 OFFCURVE",
"84 802 CURVE SMOOTH"
);
}
);
width = 695;
},
{
layerId = "285E899F-63D1-4687-98EA-700375B8DCD4";
paths = (
{
closed = 1;
nodes = (
"85 872 LINE SMOOTH",
"81 891 OFFCURVE",
"98 901 OFFCURVE",
"120 901 CURVE SMOOTH",
"682 901 LINE SMOOTH",
"704 901 OFFCURVE",
"715 891 OFFCURVE",
"715 872 CURVE SMOOTH",
"715 863 LINE SMOOTH",
"715 850 OFFCURVE",
"715 830 OFFCURVE",
"710 817 CURVE SMOOTH",
"437 26 LINE SMOOTH",
"430 8 OFFCURVE",
"420 0 OFFCURVE",
"400 0 CURVE SMOOTH",
"232 0 LINE SMOOTH",
"206 0 OFFCURVE",
"195 13 OFFCURVE",
"206 34 CURVE SMOOTH",
"578 762 LINE SMOOTH",
"589 784 OFFCURVE",
"578 797 OFFCURVE",
"552 797 CURVE SMOOTH",
"131 797 LINE SMOOTH",
"109 797 OFFCURVE",
"101 810 OFFCURVE",
"97 826 CURVE SMOOTH"
);
}
);
width = 799;
},
{
layerId = "0964CBBB-CC62-4658-9513-E390A08878CC";
paths = (
{
closed = 1;
nodes = (
"67 839 LINE SMOOTH",
"63 856 OFFCURVE",
"77 866 OFFCURVE",
"94 866 CURVE SMOOTH",
"534 866 LINE SMOOTH",
"551 866 OFFCURVE",
"560 856 OFFCURVE",
"560 839 CURVE SMOOTH",
"560 830 LINE SMOOTH",
"560 817 OFFCURVE",
"560 798 OFFCURVE",
"555 785 CURVE SMOOTH",
"342 25 LINE SMOOTH",
"337 8 OFFCURVE",
"329 0 OFFCURVE",
"313 0 CURVE SMOOTH",
"182 0 LINE SMOOTH",
"161 0 OFFCURVE",
"153 13 OFFCURVE",
"161 33 CURVE SMOOTH",
"453 733 LINE SMOOTH",
"461 753 OFFCURVE",
"453 766 OFFCURVE",
"432 766 CURVE SMOOTH",
"103 766 LINE SMOOTH",
"86 766 OFFCURVE",
"79 778 OFFCURVE",
"76 794 CURVE SMOOTH"
);
}
);
width = 626;
}
);
unicode = 0037;
},
{
color = 6;
glyphname = eight;
lastChange = "2015-04-18 15:15:14 +0000";
layers = (
{
layerId = "6B6936E6-7670-4A82-900D-EAF583C971AF";
paths = (
{
closed = 1;
nodes = (
"269 411 OFFCURVE",
"202 369 OFFCURVE",
"202 256 CURVE SMOOTH",
"202 207 OFFCURVE",
"269 148 OFFCURVE",
"380 148 CURVE SMOOTH",
"491 148 OFFCURVE",
"559 207 OFFCURVE",
"559 256 CURVE SMOOTH",
"559 369 OFFCURVE",
"491 411 OFFCURVE",
"380 411 CURVE SMOOTH"
);
},
{
closed = 1;
nodes = (
"155 502 OFFCURVE",
"117 568 OFFCURVE",
"117 655 CURVE SMOOTH",
"117 801 OFFCURVE",
"210 890 OFFCURVE",
"380 890 CURVE SMOOTH",
"551 890 OFFCURVE",
"643 801 OFFCURVE",
"643 655 CURVE SMOOTH",
"643 568 OFFCURVE",
"607 502 OFFCURVE",
"527 470 CURVE SMOOTH",
"510 463 OFFCURVE",
"510 458 OFFCURVE",
"529 452 CURVE SMOOTH",
"623 419 OFFCURVE",
"687 345 OFFCURVE",
"687 244 CURVE SMOOTH",
"687 78 OFFCURVE",
"570 -14 OFFCURVE",
"380 -14 CURVE SMOOTH",
"191 -14 OFFCURVE",
"73 78 OFFCURVE",
"73 244 CURVE SMOOTH",
"73 345 OFFCURVE",
"137 419 OFFCURVE",
"233 451 CURVE SMOOTH",
"251 458 OFFCURVE",
"251 463 OFFCURVE",
"233 470 CURVE SMOOTH"
);
},
{
closed = 1;
nodes = (
"230 587 OFFCURVE",
"286 537 OFFCURVE",
"380 537 CURVE SMOOTH",
"474 537 OFFCURVE",
"530 587 OFFCURVE",
"530 670 CURVE SMOOTH",
"530 752 OFFCURVE",
"474 806 OFFCURVE",
"380 806 CURVE SMOOTH",
"286 806 OFFCURVE",
"230 752 OFFCURVE",
"230 670 CURVE SMOOTH"
);
}
);
width = 760;
},
{
layerId = "285E899F-63D1-4687-98EA-700375B8DCD4";
paths = (
{
closed = 1;
nodes = (
"309 423 OFFCURVE",
"232 380 OFFCURVE",
"232 264 CURVE SMOOTH",
"232 213 OFFCURVE",
"309 152 OFFCURVE",
"437 152 CURVE SMOOTH",
"565 152 OFFCURVE",
"643 213 OFFCURVE",
"643 264 CURVE SMOOTH",
"643 380 OFFCURVE",
"565 423 OFFCURVE",
"437 423 CURVE SMOOTH"
);
},
{
closed = 1;
nodes = (
"178 517 OFFCURVE",
"135 585 OFFCURVE",
"135 675 CURVE SMOOTH",
"135 825 OFFCURVE",
"241 917 OFFCURVE",
"437 917 CURVE SMOOTH",
"634 917 OFFCURVE",
"739 825 OFFCURVE",
"739 675 CURVE SMOOTH",
"739 585 OFFCURVE",
"698 517 OFFCURVE",
"606 484 CURVE SMOOTH",
"587 477 OFFCURVE",
"587 472 OFFCURVE",
"608 466 CURVE SMOOTH",
"716 432 OFFCURVE",
"790 355 OFFCURVE",
"790 251 CURVE SMOOTH",
"790 80 OFFCURVE",
"656 -14 OFFCURVE",
"437 -14 CURVE SMOOTH",
"220 -14 OFFCURVE",
"84 80 OFFCURVE",
"84 251 CURVE SMOOTH",
"84 355 OFFCURVE",
"158 432 OFFCURVE",
"268 465 CURVE SMOOTH",
"289 472 OFFCURVE",
"289 477 OFFCURVE",
"268 484 CURVE SMOOTH"
);
},
{
closed = 1;
nodes = (
"265 605 OFFCURVE",
"329 553 OFFCURVE",
"437 553 CURVE SMOOTH",
"545 553 OFFCURVE",
"610 605 OFFCURVE",
"610 690 CURVE SMOOTH",
"610 775 OFFCURVE",
"545 830 OFFCURVE",
"437 830 CURVE SMOOTH",
"329 830 OFFCURVE",
"265 775 OFFCURVE",
"265 690 CURVE SMOOTH"
);
}
);
width = 874;
},
{
layerId = "0964CBBB-CC62-4658-9513-E390A08878CC";
paths = (
{
closed = 1;
nodes = (
"242 407 OFFCURVE",
"182 365 OFFCURVE",
"182 253 CURVE SMOOTH",
"182 205 OFFCURVE",
"242 147 OFFCURVE",
"342 147 CURVE SMOOTH",
"442 147 OFFCURVE",
"503 205 OFFCURVE",
"503 253 CURVE SMOOTH",
"503 365 OFFCURVE",
"442 407 OFFCURVE",
"342 407 CURVE SMOOTH"
);
},
{
closed = 1;
nodes = (
"140 497 OFFCURVE",
"105 562 OFFCURVE",
"105 648 CURVE SMOOTH",
"105 793 OFFCURVE",
"189 881 OFFCURVE",
"342 881 CURVE SMOOTH",
"496 881 OFFCURVE",
"579 793 OFFCURVE",
"579 648 CURVE SMOOTH",
"579 562 OFFCURVE",
"546 497 OFFCURVE",
"474 465 CURVE SMOOTH",
"459 458 OFFCURVE",
"459 453 OFFCURVE",
"476 447 CURVE SMOOTH",
"561 415 OFFCURVE",
"618 342 OFFCURVE",
"618 242 CURVE SMOOTH",
"618 77 OFFCURVE",
"513 -14 OFFCURVE",
"342 -14 CURVE SMOOTH",
"172 -14 OFFCURVE",
"66 77 OFFCURVE",
"66 242 CURVE SMOOTH",
"66 342 OFFCURVE",
"123 415 OFFCURVE",
"210 446 CURVE SMOOTH",
"226 453 OFFCURVE",
"226 458 OFFCURVE",
"210 465 CURVE SMOOTH"
);
},
{
closed = 1;
nodes = (
"207 581 OFFCURVE",
"257 532 OFFCURVE",
"342 532 CURVE SMOOTH",
"427 532 OFFCURVE",
"477 581 OFFCURVE",
"477 663 CURVE SMOOTH",
"477 744 OFFCURVE",
"427 798 OFFCURVE",
"342 798 CURVE SMOOTH",
"257 798 OFFCURVE",
"207 744 OFFCURVE",
"207 663 CURVE SMOOTH"
);
}
);
width = 684;
}
);
unicode = 0038;
},
{
color = 6;
glyphname = nine;
lastChange = "2015-04-18 15:15:13 +0000";
layers = (
{
guideLines = (
{
angle = 90;
position = "{463, 517}";
}
);
layerId = "6B6936E6-7670-4A82-900D-EAF583C971AF";
paths = (
{
closed = 1;
nodes = (
"141 116 LINE SMOOTH",
"140 137 OFFCURVE",
"154 154 OFFCURVE",
"175 153 CURVE SMOOTH",
"433 143 OFFCURVE",
"437 233 OFFCURVE",
"457 377 CURVE SMOOTH",
"460 402 OFFCURVE",
"457 399 OFFCURVE",
"433 388 CURVE SMOOTH",
"401 374 OFFCURVE",
"326 372 OFFCURVE",
"293 372 CURVE SMOOTH",
"177 374 OFFCURVE",
"69 409 OFFCURVE",
"73 590 CURVE SMOOTH",
"76 767 OFFCURVE",
"192 881 OFFCURVE",
"310 879 CURVE SMOOTH",
"509 876 OFFCURVE",
"584 720 OFFCURVE",
"579 428 CURVE SMOOTH",
"571 -12 OFFCURVE",
"431 -17 OFFCURVE",
"173 -12 CURVE",
"156 -6 OFFCURVE",
"151 4 OFFCURVE",
"150 21 CURVE SMOOTH"
);
},
{
closed = 1;
nodes = (
"390 487 OFFCURVE",
"453 491 OFFCURVE",
"456 670 CURVE SMOOTH",
"457 748 OFFCURVE",
"395 811 OFFCURVE",
"317 812 CURVE SMOOTH",
"239 813 OFFCURVE",
"176 753 OFFCURVE",
"175 675 CURVE SMOOTH",
"172 496 OFFCURVE",
"234 490 OFFCURVE",
"312 488 CURVE SMOOTH"
);
}
);
width = 652.233;
},
{
guideLines = (
{
angle = 90;
position = "{463, 517}";
}
);
layerId = "285E899F-63D1-4687-98EA-700375B8DCD4";
paths = (
{
closed = 1;
nodes = (
"162 119 LINE SMOOTH",
"161 141 OFFCURVE",
"177 159 OFFCURVE",
"201 158 CURVE SMOOTH",
"498 147 OFFCURVE",
"503 240 OFFCURVE",
"526 388 CURVE SMOOTH",
"529 414 OFFCURVE",
"526 411 OFFCURVE",
"498 400 CURVE SMOOTH",
"461 385 OFFCURVE",
"375 383 OFFCURVE",
"337 383 CURVE SMOOTH",
"204 385 OFFCURVE",
"79 421 OFFCURVE",
"84 608 CURVE SMOOTH",
"87 790 OFFCURVE",
"221 907 OFFCURVE",
"357 905 CURVE SMOOTH",
"585 902 OFFCURVE",
"672 742 OFFCURVE",
"666 441 CURVE SMOOTH",
"657 -12 OFFCURVE",
"496 -18 OFFCURVE",
"199 -12 CURVE",
"179 -6 OFFCURVE",
"174 4 OFFCURVE",
"173 22 CURVE SMOOTH"
);
},
{
closed = 1;
nodes = (
"448 502 OFFCURVE",
"521 506 OFFCURVE",
"524 690 CURVE SMOOTH",
"526 770 OFFCURVE",
"454 835 OFFCURVE",
"365 836 CURVE SMOOTH",
"275 837 OFFCURVE",
"202 776 OFFCURVE",
"201 695 CURVE SMOOTH",
"198 511 OFFCURVE",
"269 505 OFFCURVE",
"359 503 CURVE SMOOTH"
);
}
);
width = 750;
},
{
guideLines = (
{
angle = 90;
position = "{463, 517}";
}
);
layerId = "0964CBBB-CC62-4658-9513-E390A08878CC";
paths = (
{
closed = 1;
nodes = (
"127 115 LINE SMOOTH",
"126 136 OFFCURVE",
"139 152 OFFCURVE",
"158 151 CURVE SMOOTH",
"390 142 OFFCURVE",
"393 231 OFFCURVE",
"411 373 CURVE SMOOTH",
"414 398 OFFCURVE",
"411 395 OFFCURVE",
"390 384 CURVE SMOOTH",
"361 370 OFFCURVE",
"293 368 OFFCURVE",
"264 368 CURVE SMOOTH",
"159 370 OFFCURVE",
"62 405 OFFCURVE",
"66 584 CURVE SMOOTH",
"68 759 OFFCURVE",
"173 872 OFFCURVE",
"279 870 CURVE SMOOTH",
"458 867 OFFCURVE",
"526 713 OFFCURVE",
"521 424 CURVE SMOOTH",
"514 -12 OFFCURVE",
"388 -17 OFFCURVE",
"156 -12 CURVE",
"140 -6 OFFCURVE",
"136 4 OFFCURVE",
"135 21 CURVE SMOOTH"
);
},
{
closed = 1;
nodes = (
"351 482 OFFCURVE",
"408 486 OFFCURVE",
"410 663 CURVE SMOOTH",
"411 741 OFFCURVE",
"356 803 OFFCURVE",
"285 804 CURVE SMOOTH",
"215 805 OFFCURVE",
"158 745 OFFCURVE",
"158 668 CURVE SMOOTH",
"155 491 OFFCURVE",
"211 485 OFFCURVE",
"281 483 CURVE SMOOTH"
);
}
);
width = 587;
}
);
unicode = 0039;
},
{
color = 0;
glyphname = colon;
lastChange = "2019-03-31 15:49:30 +0000";
layers = (
{
layerId = "6B6936E6-7670-4A82-900D-EAF583C971AF";
paths = (
{
closed = 1;
nodes = (
"74 131 LINE SMOOTH",
"74 148 OFFCURVE",
"82 156 OFFCURVE",
"99 156 CURVE SMOOTH",
"191 156 LINE SMOOTH",
"208 156 OFFCURVE",
"216 148 OFFCURVE",
"216 131 CURVE SMOOTH",
"216 25 LINE SMOOTH",
"216 9 OFFCURVE",
"208 0 OFFCURVE",
"191 0 CURVE SMOOTH",
"99 0 LINE SMOOTH",
"83 0 OFFCURVE",
"74 9 OFFCURVE",
"74 25 CURVE SMOOTH"
);
},
{
closed = 1;
nodes = (
"73 539 LINE SMOOTH",
"73 555 OFFCURVE",
"81 565 OFFCURVE",
"98 565 CURVE SMOOTH",
"191 565 LINE SMOOTH",
"208 565 OFFCURVE",
"216 555 OFFCURVE",
"216 539 CURVE SMOOTH",
"216 444 LINE SMOOTH",
"216 427 OFFCURVE",
"208 418 OFFCURVE",
"191 418 CURVE SMOOTH",
"98 418 LINE SMOOTH",
"82 418 OFFCURVE",
"73 427 OFFCURVE",
"73 444 CURVE SMOOTH"
);
}
);
width = 289;
},
{
layerId = "285E899F-63D1-4687-98EA-700375B8DCD4";
paths = (
{
closed = 1;
nodes = (
"85 135 LINE SMOOTH",
"85 152 OFFCURVE",
"94 161 OFFCURVE",
"114 161 CURVE SMOOTH",
"220 161 LINE SMOOTH",
"239 161 OFFCURVE",
"248 152 OFFCURVE",
"248 135 CURVE SMOOTH",
"248 26 LINE SMOOTH",
"248 9 OFFCURVE",
"239 0 OFFCURVE",
"220 0 CURVE SMOOTH",
"114 0 LINE SMOOTH",
"95 0 OFFCURVE",
"85 9 OFFCURVE",
"85 26 CURVE SMOOTH"
);
},
{
closed = 1;
nodes = (
"84 555 LINE SMOOTH",
"84 572 OFFCURVE",
"93 582 OFFCURVE",
"113 582 CURVE SMOOTH",
"220 582 LINE SMOOTH",
"239 582 OFFCURVE",
"248 572 OFFCURVE",
"248 555 CURVE SMOOTH",
"248 457 LINE SMOOTH",
"248 440 OFFCURVE",
"239 431 OFFCURVE",
"220 431 CURVE SMOOTH",
"113 431 LINE SMOOTH",
"94 431 OFFCURVE",
"84 440 OFFCURVE",
"84 457 CURVE SMOOTH"
);
}
);
width = 332;
},
{
layerId = "0964CBBB-CC62-4658-9513-E390A08878CC";
paths = (
{
closed = 1;
nodes = (
"67 130 LINE SMOOTH",
"67 147 OFFCURVE",
"74 154 OFFCURVE",
"89 154 CURVE SMOOTH",
"172 154 LINE SMOOTH",
"187 154 OFFCURVE",
"194 147 OFFCURVE",
"194 130 CURVE SMOOTH",
"194 25 LINE SMOOTH",
"194 9 OFFCURVE",
"187 0 OFFCURVE",
"172 0 CURVE SMOOTH",
"89 0 LINE SMOOTH",
"75 0 OFFCURVE",
"67 9 OFFCURVE",
"67 25 CURVE SMOOTH"
);
},
{
closed = 1;
nodes = (
"66 534 LINE SMOOTH",
"66 549 OFFCURVE",
"73 559 OFFCURVE",
"88 559 CURVE SMOOTH",
"172 559 LINE SMOOTH",
"187 559 OFFCURVE",
"194 549 OFFCURVE",
"194 534 CURVE SMOOTH",
"194 440 LINE SMOOTH",
"194 423 OFFCURVE",
"187 414 OFFCURVE",
"172 414 CURVE SMOOTH",
"88 414 LINE SMOOTH",
"74 414 OFFCURVE",
"66 423 OFFCURVE",
"66 440 CURVE SMOOTH"
);
}
);
width = 260;
}
);
unicode = 003A;
},
{
color = 0;
glyphname = semicolon;
lastChange = "2019-03-31 15:49:30 +0000";
layers = (
{
layerId = "6B6936E6-7670-4A82-900D-EAF583C971AF";
paths = (
{
closed = 1;
nodes = (
"111 535 LINE SMOOTH",
"111 551 OFFCURVE",
"119 560 OFFCURVE",
"137 560 CURVE SMOOTH",
"210 560 LINE SMOOTH",
"227 560 OFFCURVE",
"236 551 OFFCURVE",
"236 535 CURVE SMOOTH",
"236 436 LINE SMOOTH",
"236 419 OFFCURVE",
"227 410 OFFCURVE",
"210 410 CURVE SMOOTH",
"137 410 LINE SMOOTH",
"120 410 OFFCURVE",
"111 419 OFFCURVE",
"111 436 CURVE SMOOTH"
);
},
{
closed = 1;
nodes = (
"114 84 LINE SMOOTH",
"114 101 OFFCURVE",
"122 109 OFFCURVE",
"139 109 CURVE SMOOTH",
"208 109 LINE SMOOTH",
"225 109 OFFCURVE",
"234 101 OFFCURVE",
"234 84 CURVE SMOOTH",
"234 28 LINE SMOOTH",
"234 17 OFFCURVE",
"232 7 OFFCURVE",
"226 -3 CURVE SMOOTH",
"150 -152 LINE SMOOTH",
"143 -165 OFFCURVE",
"134 -170 OFFCURVE",
"119 -170 CURVE SMOOTH",
"96 -170 LINE SMOOTH",
"78 -170 OFFCURVE",
"70 -160 OFFCURVE",
"74 -142 CURVE SMOOTH",
"110 -3 LINE SMOOTH",
"113 7 OFFCURVE",
"114 16 OFFCURVE",
"114 27 CURVE SMOOTH"
);
}
);
width = 309.018;
},
{
layerId = "285E899F-63D1-4687-98EA-700375B8DCD4";
paths = (
{
closed = 1;
nodes = (
"128 551 LINE SMOOTH",
"128 568 OFFCURVE",
"137 577 OFFCURVE",
"158 577 CURVE SMOOTH",
"241 577 LINE SMOOTH",
"261 577 OFFCURVE",
"271 568 OFFCURVE",
"271 551 CURVE SMOOTH",
"271 449 LINE SMOOTH",
"271 432 OFFCURVE",
"261 422 OFFCURVE",
"241 422 CURVE SMOOTH",
"158 422 LINE SMOOTH",
"138 422 OFFCURVE",
"128 432 OFFCURVE",
"128 449 CURVE SMOOTH"
);
},
{
closed = 1;
nodes = (
"131 87 LINE SMOOTH",
"131 104 OFFCURVE",
"140 112 OFFCURVE",
"160 112 CURVE SMOOTH",
"239 112 LINE SMOOTH",
"259 112 OFFCURVE",
"269 104 OFFCURVE",
"269 87 CURVE SMOOTH",
"269 29 LINE SMOOTH",
"269 18 OFFCURVE",
"267 7 OFFCURVE",
"260 -3 CURVE SMOOTH",
"173 -157 LINE SMOOTH",
"164 -170 OFFCURVE",
"154 -175 OFFCURVE",
"137 -175 CURVE SMOOTH",
"110 -175 LINE SMOOTH",
"90 -175 OFFCURVE",
"81 -165 OFFCURVE",
"85 -146 CURVE SMOOTH",
"126 -3 LINE SMOOTH",
"130 7 OFFCURVE",
"131 16 OFFCURVE",
"131 28 CURVE SMOOTH"
);
}
);
width = 355;
},
{
layerId = "0964CBBB-CC62-4658-9513-E390A08878CC";
paths = (
{
closed = 1;
nodes = (
"100 530 LINE SMOOTH",
"100 545 OFFCURVE",
"107 554 OFFCURVE",
"123 554 CURVE SMOOTH",
"189 554 LINE SMOOTH",
"204 554 OFFCURVE",
"212 545 OFFCURVE",
"212 530 CURVE SMOOTH",
"212 432 LINE SMOOTH",
"212 415 OFFCURVE",
"204 406 OFFCURVE",
"189 406 CURVE SMOOTH",
"123 406 LINE SMOOTH",
"108 406 OFFCURVE",
"100 415 OFFCURVE",
"100 432 CURVE SMOOTH"
);
},
{
closed = 1;
nodes = (
"103 83 LINE SMOOTH",
"103 100 OFFCURVE",
"110 108 OFFCURVE",
"125 108 CURVE SMOOTH",
"187 108 LINE SMOOTH",
"203 108 OFFCURVE",
"211 100 OFFCURVE",
"211 83 CURVE SMOOTH",
"211 28 LINE SMOOTH",
"211 17 OFFCURVE",
"209 7 OFFCURVE",
"203 -3 CURVE SMOOTH",
"135 -150 LINE SMOOTH",
"129 -163 OFFCURVE",
"121 -168 OFFCURVE",
"107 -168 CURVE SMOOTH",
"86 -168 LINE SMOOTH",
"70 -168 OFFCURVE",
"63 -158 OFFCURVE",
"67 -141 CURVE SMOOTH",
"99 -3 LINE SMOOTH",
"102 7 OFFCURVE",
"103 16 OFFCURVE",
"103 27 CURVE SMOOTH"
);
}
);
width = 278;
}
);
unicode = 003B;
},
{
color = 4;
glyphname = less;
lastChange = "2019-03-31 15:49:45 +0000";
layers = (
{
layerId = "6B6936E6-7670-4A82-900D-EAF583C971AF";
paths = (
{
closed = 1;
nodes = (
"213 368 OFFCURVE",
"211 352 OFFCURVE",
"231 342 CURVE SMOOTH",
"644 127 LINE SMOOTH",
"657 120 OFFCURVE",
"662 111 OFFCURVE",
"659 97 CURVE SMOOTH",
"650 30 LINE SMOOTH",
"647 12 OFFCURVE",
"635 6 OFFCURVE",
"620 15 CURVE SMOOTH",
"88 310 LINE SMOOTH",
"75 317 OFFCURVE",
"71 361 OFFCURVE",
"74 375 CURVE",
"76 388 OFFCURVE",
"91 429 OFFCURVE",
"106 433 CURVE SMOOTH",
"695 553 LINE SMOOTH",
"712 557 OFFCURVE",
"723 548 OFFCURVE",
"721 530 CURVE SMOOTH",
"715 492 LINE SMOOTH",
"712 478 OFFCURVE",
"706 470 OFFCURVE",
"692 467 CURVE SMOOTH",
"236 373 LINE SMOOTH"
);
}
);
width = 794.234;
},
{
layerId = "285E899F-63D1-4687-98EA-700375B8DCD4";
paths = (
{
closed = 1;
nodes = (
"245 379 OFFCURVE",
"243 363 OFFCURVE",
"266 352 CURVE SMOOTH",
"741 131 LINE SMOOTH",
"756 124 OFFCURVE",
"761 114 OFFCURVE",
"758 100 CURVE SMOOTH",
"747 31 LINE SMOOTH",
"744 12 OFFCURVE",
"730 6 OFFCURVE",
"713 15 CURVE SMOOTH",
"101 319 LINE SMOOTH",
"86 327 OFFCURVE",
"82 372 OFFCURVE",
"85 386 CURVE",
"87 400 OFFCURVE",
"105 442 OFFCURVE",
"122 446 CURVE SMOOTH",
"799 570 LINE SMOOTH",
"819 574 OFFCURVE",
"831 564 OFFCURVE",
"829 546 CURVE SMOOTH",
"822 507 LINE SMOOTH",
"819 492 OFFCURVE",
"812 484 OFFCURVE",
"796 481 CURVE SMOOTH",
"271 384 LINE SMOOTH"
);
}
);
width = 913;
},
{
layerId = "0964CBBB-CC62-4658-9513-E390A08878CC";
paths = (
{
closed = 1;
nodes = (
"192 364 OFFCURVE",
"190 348 OFFCURVE",
"208 339 CURVE SMOOTH",
"580 126 LINE SMOOTH",
"591 119 OFFCURVE",
"596 110 OFFCURVE",
"593 96 CURVE SMOOTH",
"585 30 LINE SMOOTH",
"582 12 OFFCURVE",
"572 6 OFFCURVE",
"558 15 CURVE SMOOTH",
"79 307 LINE SMOOTH",
"68 314 OFFCURVE",
"64 357 OFFCURVE",
"67 371 CURVE",
"68 384 OFFCURVE",
"82 425 OFFCURVE",
"95 429 CURVE SMOOTH",
"626 547 LINE SMOOTH",
"641 551 OFFCURVE",
"651 543 OFFCURVE",
"649 525 CURVE SMOOTH",
"644 487 LINE SMOOTH",
"641 473 OFFCURVE",
"635 465 OFFCURVE",
"623 462 CURVE SMOOTH",
"212 369 LINE SMOOTH"
);
}
);
width = 715;
}
);
unicode = 003C;
},
{
color = 4;
glyphname = equal;
lastChange = "2019-03-31 15:49:45 +0000";
layers = (
{
layerId = "6B6936E6-7670-4A82-900D-EAF583C971AF";
paths = (
{
closed = 1;
nodes = (
"83 439 LINE SMOOTH",
"83 449 OFFCURVE",
"88 454 OFFCURVE",
"98 454 CURVE SMOOTH",
"694 454 LINE SMOOTH",
"704 454 OFFCURVE",
"709 449 OFFCURVE",
"709 439 CURVE SMOOTH",
"709 387 LINE SMOOTH",
"709 377 OFFCURVE",
"704 372 OFFCURVE",
"694 372 CURVE SMOOTH",
"98 372 LINE SMOOTH",
"88 372 OFFCURVE",
"83 377 OFFCURVE",
"83 387 CURVE SMOOTH"
);
},
{
closed = 1;
nodes = (
"73 255 LINE SMOOTH",
"73 265 OFFCURVE",
"78 270 OFFCURVE",
"88 270 CURVE SMOOTH",
"684 270 LINE SMOOTH",
"694 270 OFFCURVE",
"699 265 OFFCURVE",
"699 255 CURVE SMOOTH",
"699 187 LINE SMOOTH",
"699 177 OFFCURVE",
"694 172 OFFCURVE",
"684 172 CURVE SMOOTH",
"88 172 LINE SMOOTH",
"78 172 OFFCURVE",
"73 177 OFFCURVE",
"73 187 CURVE SMOOTH"
);
}
);
width = 782;
},
{
layerId = "285E899F-63D1-4687-98EA-700375B8DCD4";
paths = (
{
closed = 1;
nodes = (
"95 452 LINE SMOOTH",
"95 462 OFFCURVE",
"101 468 OFFCURVE",
"113 468 CURVE SMOOTH",
"798 468 LINE SMOOTH",
"810 468 OFFCURVE",
"815 462 OFFCURVE",
"815 452 CURVE SMOOTH",
"815 399 LINE SMOOTH",
"815 388 OFFCURVE",
"810 383 OFFCURVE",
"798 383 CURVE SMOOTH",
"113 383 LINE SMOOTH",
"101 383 OFFCURVE",
"95 388 OFFCURVE",
"95 399 CURVE SMOOTH"
);
},
{
closed = 1;
nodes = (
"84 263 LINE SMOOTH",
"84 273 OFFCURVE",
"90 278 OFFCURVE",
"101 278 CURVE SMOOTH",
"787 278 LINE SMOOTH",
"798 278 OFFCURVE",
"804 273 OFFCURVE",
"804 263 CURVE SMOOTH",
"804 193 LINE SMOOTH",
"804 182 OFFCURVE",
"798 177 OFFCURVE",
"787 177 CURVE SMOOTH",
"101 177 LINE SMOOTH",
"90 177 OFFCURVE",
"84 182 OFFCURVE",
"84 193 CURVE SMOOTH"
);
}
);
width = 899;
},
{
layerId = "0964CBBB-CC62-4658-9513-E390A08878CC";
paths = (
{
closed = 1;
nodes = (
"75 435 LINE SMOOTH",
"75 445 OFFCURVE",
"79 449 OFFCURVE",
"88 449 CURVE SMOOTH",
"625 449 LINE SMOOTH",
"634 449 OFFCURVE",
"638 445 OFFCURVE",
"638 435 CURVE SMOOTH",
"638 383 LINE SMOOTH",
"638 373 OFFCURVE",
"634 368 OFFCURVE",
"625 368 CURVE SMOOTH",
"88 368 LINE SMOOTH",
"79 368 OFFCURVE",
"75 373 OFFCURVE",
"75 383 CURVE SMOOTH"
);
},
{
closed = 1;
nodes = (
"66 252 LINE SMOOTH",
"66 262 OFFCURVE",
"70 267 OFFCURVE",
"79 267 CURVE SMOOTH",
"616 267 LINE SMOOTH",
"625 267 OFFCURVE",
"629 262 OFFCURVE",
"629 252 CURVE SMOOTH",
"629 185 LINE SMOOTH",
"629 175 OFFCURVE",
"625 170 OFFCURVE",
"616 170 CURVE SMOOTH",
"79 170 LINE SMOOTH",
"70 170 OFFCURVE",
"66 175 OFFCURVE",
"66 185 CURVE SMOOTH"
);
}
);
width = 704;
}
);
unicode = 003D;
},
{
color = 4;
glyphname = greater;
lastChange = "2019-03-31 15:49:45 +0000";
layers = (
{
layerId = "6B6936E6-7670-4A82-900D-EAF583C971AF";
paths = (
{
closed = 1;
nodes = (
"131 532 LINE SMOOTH",
"118 538 OFFCURVE",
"113 547 OFFCURVE",
"114 562 CURVE SMOOTH",
"117 600 LINE SMOOTH",
"119 618 OFFCURVE",
"131 624 OFFCURVE",
"147 617 CURVE SMOOTH",
"694 367 LINE SMOOTH",
"708 360 OFFCURVE",
"713 317 OFFCURVE",
"712 303 CURVE SMOOTH",
"712 289 OFFCURVE",
"698 247 OFFCURVE",
"684 243 CURVE SMOOTH",
"99 75 LINE SMOOTH",
"82 70 OFFCURVE",
"72 79 OFFCURVE",
"73 97 CURVE SMOOTH",
"79 164 LINE SMOOTH",
"80 178 OFFCURVE",
"87 186 OFFCURVE",
"101 190 CURVE SMOOTH",
"552 307 LINE SMOOTH",
"573 312 OFFCURVE",
"575 328 OFFCURVE",
"554 338 CURVE SMOOTH"
);
}
);
width = 785.123;
},
{
layerId = "285E899F-63D1-4687-98EA-700375B8DCD4";
paths = (
{
closed = 1;
nodes = (
"151 548 LINE SMOOTH",
"136 554 OFFCURVE",
"130 563 OFFCURVE",
"131 579 CURVE SMOOTH",
"135 618 LINE SMOOTH",
"137 637 OFFCURVE",
"151 643 OFFCURVE",
"169 636 CURVE SMOOTH",
"798 378 LINE SMOOTH",
"814 371 OFFCURVE",
"820 327 OFFCURVE",
"819 312 CURVE SMOOTH",
"819 298 OFFCURVE",
"803 254 OFFCURVE",
"787 250 CURVE SMOOTH",
"114 77 LINE SMOOTH",
"94 72 OFFCURVE",
"83 81 OFFCURVE",
"84 100 CURVE SMOOTH",
"91 169 LINE SMOOTH",
"92 183 OFFCURVE",
"100 192 OFFCURVE",
"116 196 CURVE SMOOTH",
"635 316 LINE SMOOTH",
"659 321 OFFCURVE",
"661 338 OFFCURVE",
"637 348 CURVE SMOOTH"
);
}
);
width = 903;
},
{
layerId = "0964CBBB-CC62-4658-9513-E390A08878CC";
paths = (
{
closed = 1;
nodes = (
"118 527 LINE SMOOTH",
"106 533 OFFCURVE",
"102 542 OFFCURVE",
"103 556 CURVE SMOOTH",
"105 594 LINE SMOOTH",
"107 612 OFFCURVE",
"118 618 OFFCURVE",
"132 611 CURVE SMOOTH",
"625 363 LINE SMOOTH",
"637 356 OFFCURVE",
"642 314 OFFCURVE",
"641 300 CURVE SMOOTH",
"641 286 OFFCURVE",
"628 245 OFFCURVE",
"616 241 CURVE SMOOTH",
"89 74 LINE SMOOTH",
"74 69 OFFCURVE",
"65 78 OFFCURVE",
"66 96 CURVE SMOOTH",
"71 162 LINE SMOOTH",
"72 176 OFFCURVE",
"78 184 OFFCURVE",
"91 188 CURVE SMOOTH",
"497 304 LINE SMOOTH",
"516 309 OFFCURVE",
"518 325 OFFCURVE",
"499 335 CURVE SMOOTH"
);
}
);
width = 707;
}
);
unicode = 003E;
},
{
color = 0;
glyphname = question;
lastChange = "2019-03-31 15:49:30 +0000";
layers = (
{
guideLines = (
{
position = "{429, 277}";
}
);
layerId = "6B6936E6-7670-4A82-900D-EAF583C971AF";
paths = (
{
closed = 1;
nodes = (
"183 130 LINE SMOOTH",
"183 148 OFFCURVE",
"193 159 OFFCURVE",
"213 159 CURVE SMOOTH",
"306 159 LINE SMOOTH",
"325 159 OFFCURVE",
"336 148 OFFCURVE",
"336 130 CURVE SMOOTH",
"336 24 LINE SMOOTH",
"336 6 OFFCURVE",
"325 -5 OFFCURVE",
"306 -5 CURVE SMOOTH",
"213 -5 LINE SMOOTH",
"194 -5 OFFCURVE",
"183 6 OFFCURVE",
"183 24 CURVE SMOOTH"
);
},
{
closed = 1;
nodes = (
"334 305 LINE SMOOTH",
"334 288 OFFCURVE",
"324 277 OFFCURVE",
"305 277 CURVE SMOOTH",
"213 277 LINE SMOOTH",
"194 277 OFFCURVE",
"183 286 OFFCURVE",
"183 305 CURVE SMOOTH",
"183 365 LINE SMOOTH",
"183 443 OFFCURVE",
"198 488 OFFCURVE",
"267 554 CURVE",
"325 605 LINE",
"386 655 OFFCURVE",
"410 699 OFFCURVE",
"402 742 CURVE SMOOTH",
"394 803 OFFCURVE",
"354 845 OFFCURVE",
"279 845 CURVE SMOOTH",
"228 845 OFFCURVE",
"170 825 OFFCURVE",
"109 788 CURVE SMOOTH",
"89 776 OFFCURVE",
"73 783 OFFCURVE",
"73 807 CURVE SMOOTH",
"73 833 LINE SMOOTH",
"73 849 OFFCURVE",
"79 860 OFFCURVE",
"93 868 CURVE SMOOTH",
"159 904 OFFCURVE",
"227 921 OFFCURVE",
"299 921 CURVE SMOOTH",
"439 921 OFFCURVE",
"528 840 OFFCURVE",
"528 718 CURVE SMOOTH",
"528 660 OFFCURVE",
"490 612 OFFCURVE",
"429 546 CURVE SMOOTH",
"350 461 OFFCURVE",
"334 431 OFFCURVE",
"334 348 CURVE SMOOTH"
);
}
);
width = 601;
},
{
guideLines = (
{
position = "{429, 277}";
}
);
layerId = "285E899F-63D1-4687-98EA-700375B8DCD4";
paths = (
{
closed = 1;
nodes = (
"210 134 LINE SMOOTH",
"210 152 OFFCURVE",
"222 164 OFFCURVE",
"245 164 CURVE SMOOTH",
"352 164 LINE SMOOTH",
"374 164 OFFCURVE",
"386 152 OFFCURVE",
"386 134 CURVE SMOOTH",
"386 25 LINE SMOOTH",
"386 6 OFFCURVE",
"374 -5 OFFCURVE",
"352 -5 CURVE SMOOTH",
"245 -5 LINE SMOOTH",
"223 -5 OFFCURVE",
"210 6 OFFCURVE",
"210 25 CURVE SMOOTH"
);
},
{
closed = 1;
nodes = (
"384 314 LINE SMOOTH",
"384 297 OFFCURVE",
"373 285 OFFCURVE",
"351 285 CURVE SMOOTH",
"245 285 LINE SMOOTH",
"223 285 OFFCURVE",
"210 295 OFFCURVE",
"210 314 CURVE SMOOTH",
"210 376 LINE SMOOTH",
"210 456 OFFCURVE",
"228 503 OFFCURVE",
"307 571 CURVE",
"374 623 LINE",
"444 675 OFFCURVE",
"471 720 OFFCURVE",
"462 764 CURVE SMOOTH",
"453 827 OFFCURVE",
"407 870 OFFCURVE",
"321 870 CURVE SMOOTH",
"262 870 OFFCURVE",
"195 850 OFFCURVE",
"125 812 CURVE SMOOTH",
"102 799 OFFCURVE",
"84 806 OFFCURVE",
"84 831 CURVE SMOOTH",
"84 858 LINE SMOOTH",
"84 874 OFFCURVE",
"91 886 OFFCURVE",
"107 894 CURVE SMOOTH",
"183 931 OFFCURVE",
"261 949 OFFCURVE",
"344 949 CURVE SMOOTH",
"505 949 OFFCURVE",
"607 865 OFFCURVE",
"607 740 CURVE SMOOTH",
"607 680 OFFCURVE",
"564 630 OFFCURVE",
"493 562 CURVE SMOOTH",
"402 475 OFFCURVE",
"384 444 OFFCURVE",
"384 358 CURVE SMOOTH"
);
}
);
width = 691;
},
{
guideLines = (
{
position = "{429, 277}";
}
);
layerId = "0964CBBB-CC62-4658-9513-E390A08878CC";
paths = (
{
closed = 1;
nodes = (
"165 129 LINE SMOOTH",
"165 147 OFFCURVE",
"174 157 OFFCURVE",
"192 157 CURVE SMOOTH",
"275 157 LINE SMOOTH",
"293 157 OFFCURVE",
"302 147 OFFCURVE",
"302 129 CURVE SMOOTH",
"302 24 LINE SMOOTH",
"302 6 OFFCURVE",
"293 -5 OFFCURVE",
"275 -5 CURVE SMOOTH",
"192 -5 LINE SMOOTH",
"175 -5 OFFCURVE",
"165 6 OFFCURVE",
"165 24 CURVE SMOOTH"
);
},
{
closed = 1;
nodes = (
"301 302 LINE SMOOTH",
"301 285 OFFCURVE",
"292 274 OFFCURVE",
"275 274 CURVE SMOOTH",
"192 274 LINE SMOOTH",
"175 274 OFFCURVE",
"165 283 OFFCURVE",
"165 302 CURVE SMOOTH",
"165 361 LINE SMOOTH",
"165 439 OFFCURVE",
"178 483 OFFCURVE",
"240 548 CURVE",
"293 599 LINE",
"347 648 OFFCURVE",
"369 692 OFFCURVE",
"362 735 CURVE SMOOTH",
"355 795 OFFCURVE",
"319 837 OFFCURVE",
"251 837 CURVE SMOOTH",
"205 837 OFFCURVE",
"153 817 OFFCURVE",
"98 780 CURVE SMOOTH",
"80 768 OFFCURVE",
"66 775 OFFCURVE",
"66 799 CURVE SMOOTH",
"66 825 LINE SMOOTH",
"66 841 OFFCURVE",
"71 851 OFFCURVE",
"84 859 CURVE SMOOTH",
"143 895 OFFCURVE",
"204 912 OFFCURVE",
"269 912 CURVE SMOOTH",
"395 912 OFFCURVE",
"475 832 OFFCURVE",
"475 711 CURVE SMOOTH",
"475 653 OFFCURVE",
"441 606 OFFCURVE",
"386 541 CURVE SMOOTH",
"315 456 OFFCURVE",
"301 427 OFFCURVE",
"301 345 CURVE SMOOTH"
);
}
);
width = 541;
}
);
unicode = 003F;
},
{
color = 4;
glyphname = at;
lastChange = "2019-03-31 15:49:45 +0000";
layers = (
{
guideLines = (
{
angle = 90;
position = "{643, -92}";
}
);
layerId = "6B6936E6-7670-4A82-900D-EAF583C971AF";
paths = (
{
closed = 1;
nodes = (
"365 219 OFFCURVE",
"376 163 OFFCURVE",
"495 168 CURVE SMOOTH",
"615 173 OFFCURVE",
"624 220 OFFCURVE",
"624 302 CURVE SMOOTH",
"624 384 OFFCURVE",
"573 436 OFFCURVE",
"494 436 CURVE SMOOTH",
"415 436 OFFCURVE",
"365 384 OFFCURVE",
"365 302 CURVE SMOOTH"
);
},
{
closed = 1;
nodes = (
"938 91 OFFCURVE",
"730 37 OFFCURVE",
"656 37 CURVE SMOOTH",
"623 37 OFFCURVE",
"676 116 OFFCURVE",
"601 75 CURVE SMOOTH",
"561 53 OFFCURVE",
"517 43 OFFCURVE",
"490 43 CURVE SMOOTH",
"355 43 OFFCURVE",
"301 132 OFFCURVE",
"301 262 CURVE SMOOTH",
"301 393 OFFCURVE",
"379 482 OFFCURVE",
"490 482 CURVE SMOOTH",
"547 482 OFFCURVE",
"592 464 OFFCURVE",
"628 428 CURVE SMOOTH",
"638 418 OFFCURVE",
"646 421 OFFCURVE",
"646 435 CURVE SMOOTH",
"646 457 LINE SMOOTH",
"646 467 OFFCURVE",
"651 472 OFFCURVE",
"661 472 CURVE SMOOTH",
"700 472 LINE SMOOTH",
"710 472 OFFCURVE",
"715 467 OFFCURVE",
"715 457 CURVE SMOOTH",
"715 177 LINE SMOOTH",
"715 166 OFFCURVE",
"721 163 OFFCURVE",
"731 163 CURVE SMOOTH",
"808 163 OFFCURVE",
"867 211 OFFCURVE",
"867 319 CURVE SMOOTH",
"867 389 OFFCURVE",
"847 450 OFFCURVE",
"805 502 CURVE SMOOTH",
"737 587 OFFCURVE",
"637 634 OFFCURVE",
"522 634 CURVE SMOOTH",
"442 634 OFFCURVE",
"368 612 OFFCURVE",
"305 571 CURVE SMOOTH",
"203 504 OFFCURVE",
"142 391 OFFCURVE",
"142 265 CURVE SMOOTH",
"142 73 OFFCURVE",
"322 -65 OFFCURVE",
"514 -65 CURVE SMOOTH",
"557 -65 OFFCURVE",
"580 -64 OFFCURVE",
"607 -59 CURVE SMOOTH",
"617 -57 OFFCURVE",
"622 -56 OFFCURVE",
"627 -64 CURVE SMOOTH",
"667 -135 LINE SMOOTH",
"671 -142 OFFCURVE",
"670 -151 OFFCURVE",
"662 -155 CURVE SMOOTH",
"636 -167 OFFCURVE",
"573 -174 OFFCURVE",
"514 -174 CURVE SMOOTH",
"394 -174 OFFCURVE",
"285 -130 OFFCURVE",
"201 -49 CURVE SMOOTH",
"118 33 OFFCURVE",
"73 142 OFFCURVE",
"73 265 CURVE SMOOTH",
"73 384 OFFCURVE",
"119 495 OFFCURVE",
"201 576 CURVE SMOOTH",
"285 659 OFFCURVE",
"398 704 OFFCURVE",
"521 704 CURVE SMOOTH",
"660 704 OFFCURVE",
"782 645 OFFCURVE",
"862 541 CURVE SMOOTH",
"911 477 OFFCURVE",
"938 401 OFFCURVE",
"938 321 CURVE SMOOTH"
);
}
);
width = 1011;
},
{
guideLines = (
{
angle = 90;
position = "{643, -92}";
}
);
layerId = "285E899F-63D1-4687-98EA-700375B8DCD4";
paths = (
{
closed = 1;
nodes = (
"420 226 OFFCURVE",
"432 168 OFFCURVE",
"569 173 CURVE SMOOTH",
"707 178 OFFCURVE",
"718 227 OFFCURVE",
"718 311 CURVE SMOOTH",
"718 396 OFFCURVE",
"659 449 OFFCURVE",
"568 449 CURVE SMOOTH",
"477 449 OFFCURVE",
"420 396 OFFCURVE",
"420 311 CURVE SMOOTH"
);
},
{
closed = 1;
nodes = (
"1079 94 OFFCURVE",
"839 38 OFFCURVE",
"754 38 CURVE SMOOTH",
"716 38 OFFCURVE",
"777 119 OFFCURVE",
"691 77 CURVE SMOOTH",
"645 55 OFFCURVE",
"595 44 OFFCURVE",
"564 44 CURVE SMOOTH",
"408 44 OFFCURVE",
"346 136 OFFCURVE",
"346 270 CURVE SMOOTH",
"346 405 OFFCURVE",
"436 496 OFFCURVE",
"564 496 CURVE SMOOTH",
"629 496 OFFCURVE",
"681 478 OFFCURVE",
"722 441 CURVE SMOOTH",
"734 431 OFFCURVE",
"743 434 OFFCURVE",
"743 448 CURVE SMOOTH",
"743 471 LINE SMOOTH",
"743 481 OFFCURVE",
"749 486 OFFCURVE",
"760 486 CURVE SMOOTH",
"805 486 LINE SMOOTH",
"816 486 OFFCURVE",
"822 481 OFFCURVE",
"822 471 CURVE SMOOTH",
"822 182 LINE SMOOTH",
"822 171 OFFCURVE",
"829 168 OFFCURVE",
"841 168 CURVE SMOOTH",
"929 168 OFFCURVE",
"997 217 OFFCURVE",
"997 329 CURVE SMOOTH",
"997 401 OFFCURVE",
"974 464 OFFCURVE",
"926 517 CURVE SMOOTH",
"848 605 OFFCURVE",
"733 653 OFFCURVE",
"600 653 CURVE SMOOTH",
"508 653 OFFCURVE",
"423 630 OFFCURVE",
"351 588 CURVE SMOOTH",
"233 519 OFFCURVE",
"163 403 OFFCURVE",
"163 273 CURVE SMOOTH",
"163 75 OFFCURVE",
"370 -67 OFFCURVE",
"591 -67 CURVE SMOOTH",
"641 -67 OFFCURVE",
"667 -66 OFFCURVE",
"698 -61 CURVE SMOOTH",
"710 -59 OFFCURVE",
"715 -58 OFFCURVE",
"721 -66 CURVE SMOOTH",
"767 -139 LINE SMOOTH",
"772 -146 OFFCURVE",
"770 -156 OFFCURVE",
"761 -160 CURVE SMOOTH",
"731 -172 OFFCURVE",
"659 -179 OFFCURVE",
"591 -179 CURVE SMOOTH",
"453 -179 OFFCURVE",
"328 -134 OFFCURVE",
"231 -50 CURVE SMOOTH",
"136 34 OFFCURVE",
"84 146 OFFCURVE",
"84 273 CURVE SMOOTH",
"84 396 OFFCURVE",
"137 510 OFFCURVE",
"231 593 CURVE SMOOTH",
"328 679 OFFCURVE",
"458 725 OFFCURVE",
"599 725 CURVE SMOOTH",
"759 725 OFFCURVE",
"899 664 OFFCURVE",
"991 557 CURVE SMOOTH",
"1048 491 OFFCURVE",
"1079 413 OFFCURVE",
"1079 331 CURVE SMOOTH"
);
}
);
width = 1163;
},
{
guideLines = (
{
angle = 90;
position = "{643, -92}";
}
);
layerId = "0964CBBB-CC62-4658-9513-E390A08878CC";
paths = (
{
closed = 1;
nodes = (
"329 217 OFFCURVE",
"338 161 OFFCURVE",
"446 166 CURVE SMOOTH",
"554 171 OFFCURVE",
"562 218 OFFCURVE",
"562 299 CURVE SMOOTH",
"562 380 OFFCURVE",
"516 432 OFFCURVE",
"445 432 CURVE SMOOTH",
"374 432 OFFCURVE",
"329 380 OFFCURVE",
"329 299 CURVE SMOOTH"
);
},
{
closed = 1;
nodes = (
"844 90 OFFCURVE",
"657 37 OFFCURVE",
"590 37 CURVE SMOOTH",
"561 37 OFFCURVE",
"608 115 OFFCURVE",
"541 74 CURVE SMOOTH",
"505 52 OFFCURVE",
"465 43 OFFCURVE",
"441 43 CURVE SMOOTH",
"320 43 OFFCURVE",
"271 131 OFFCURVE",
"271 259 CURVE SMOOTH",
"271 389 OFFCURVE",
"341 477 OFFCURVE",
"441 477 CURVE SMOOTH",
"492 477 OFFCURVE",
"533 459 OFFCURVE",
"565 424 CURVE SMOOTH",
"574 414 OFFCURVE",
"581 417 OFFCURVE",
"581 431 CURVE SMOOTH",
"581 452 LINE SMOOTH",
"581 462 OFFCURVE",
"586 467 OFFCURVE",
"595 467 CURVE SMOOTH",
"630 467 LINE SMOOTH",
"639 467 OFFCURVE",
"644 462 OFFCURVE",
"644 452 CURVE SMOOTH",
"644 175 LINE SMOOTH",
"644 164 OFFCURVE",
"649 161 OFFCURVE",
"658 161 CURVE SMOOTH",
"727 161 OFFCURVE",
"780 209 OFFCURVE",
"780 316 CURVE SMOOTH",
"780 385 OFFCURVE",
"762 446 OFFCURVE",
"725 497 CURVE SMOOTH",
"663 581 OFFCURVE",
"573 628 OFFCURVE",
"470 628 CURVE SMOOTH",
"398 628 OFFCURVE",
"331 606 OFFCURVE",
"275 565 CURVE SMOOTH",
"183 499 OFFCURVE",
"128 387 OFFCURVE",
"128 262 CURVE SMOOTH",
"128 72 OFFCURVE",
"290 -64 OFFCURVE",
"463 -64 CURVE SMOOTH",
"501 -64 OFFCURVE",
"522 -63 OFFCURVE",
"546 -58 CURVE SMOOTH",
"555 -56 OFFCURVE",
"560 -55 OFFCURVE",
"564 -63 CURVE SMOOTH",
"600 -134 LINE SMOOTH",
"604 -141 OFFCURVE",
"603 -149 OFFCURVE",
"596 -153 CURVE SMOOTH",
"572 -165 OFFCURVE",
"516 -172 OFFCURVE",
"463 -172 CURVE SMOOTH",
"355 -172 OFFCURVE",
"257 -129 OFFCURVE",
"181 -49 CURVE SMOOTH",
"106 33 OFFCURVE",
"66 141 OFFCURVE",
"66 262 CURVE SMOOTH",
"66 380 OFFCURVE",
"107 490 OFFCURVE",
"181 570 CURVE SMOOTH",
"257 652 OFFCURVE",
"358 697 OFFCURVE",
"469 697 CURVE SMOOTH",
"594 697 OFFCURVE",
"704 639 OFFCURVE",
"776 536 CURVE SMOOTH",
"820 472 OFFCURVE",
"844 397 OFFCURVE",
"844 318 CURVE SMOOTH"
);
}
);
width = 910;
}
);
unicode = 0040;
},
{
color = 6;
glyphname = A;
lastChange = "2015-04-18 15:15:14 +0000";
layers = (
{
anchors = (
{
name = dotbelowcomb;
position = "{463, 7}";
},
{
name = hookabovecomb;
position = "{456, 822}";
},
{
name = ogonek;
position = "{685, 0}";
},
{
name = top;
position = "{462, 821}";
}
);
guideLines = (
{
angle = 251.648;
position = "{396, 400}";
},
{
angle = 108.28;
position = "{520, 392}";
}
);
layerId = "6B6936E6-7670-4A82-900D-EAF583C971AF";
paths = (
{
closed = 1;
nodes = (
"469 651 LINE SMOOTH",
"461 676 OFFCURVE",
"454 676 OFFCURVE",
"446 651 CURVE SMOOTH",
"331 310 LINE SMOOTH",
"324 290 OFFCURVE",
"334 277 OFFCURVE",
"355 277 CURVE SMOOTH",
"559 277 LINE SMOOTH",
"580 277 OFFCURVE",
"590 290 OFFCURVE",
"583 310 CURVE SMOOTH"
);
},
{
closed = 1;
nodes = (
"394 838 LINE SMOOTH",
"400 853 OFFCURVE",
"410 860 OFFCURVE",
"427 860 CURVE SMOOTH",
"487 860 LINE SMOOTH",
"504 860 OFFCURVE",
"514 853 OFFCURVE",
"520 838 CURVE SMOOTH",
"838 33 LINE SMOOTH",
"846 13 OFFCURVE",
"836 0 OFFCURVE",
"815 0 CURVE SMOOTH",
"698 0 LINE SMOOTH",
"681 0 OFFCURVE",
"670 7 OFFCURVE",
"666 25 CURVE SMOOTH",
"645 119 LINE SMOOTH",
"642 137 OFFCURVE",
"631 145 OFFCURVE",
"613 145 CURVE SMOOTH",
"301 145 LINE SMOOTH",
"283 145 OFFCURVE",
"270 137 OFFCURVE",
"268 122 CURVE SMOOTH",
"251 24 LINE SMOOTH",
"249 7 OFFCURVE",
"236 0 OFFCURVE",
"219 0 CURVE SMOOTH",
"99 0 LINE SMOOTH",
"76 0 OFFCURVE",
"68 13 OFFCURVE",
"75 33 CURVE SMOOTH"
);
}
);
width = 913.749;
},
{
anchors = (
{
name = dotbelowcomb;
position = "{532, 7}";
},
{
name = hookabovecomb;
position = "{524, 847}";
},
{
name = ogonek;
position = "{788, 0}";
},
{
name = top;
position = "{531, 846}";
}
);
guideLines = (
{
angle = 251.648;
position = "{396, 400}";
},
{
angle = 108.28;
position = "{520, 392}";
}
);
layerId = "285E899F-63D1-4687-98EA-700375B8DCD4";
paths = (
{
closed = 1;
nodes = (
"539 671 LINE SMOOTH",
"530 696 OFFCURVE",
"522 696 OFFCURVE",
"513 671 CURVE SMOOTH",
"381 319 LINE SMOOTH",
"373 299 OFFCURVE",
"384 285 OFFCURVE",
"408 285 CURVE SMOOTH",
"643 285 LINE SMOOTH",
"667 285 OFFCURVE",
"679 299 OFFCURVE",
"670 319 CURVE SMOOTH"
);
},
{
closed = 1;
nodes = (
"453 863 LINE SMOOTH",
"460 879 OFFCURVE",
"471 886 OFFCURVE",
"491 886 CURVE SMOOTH",
"560 886 LINE SMOOTH",
"580 886 OFFCURVE",
"591 879 OFFCURVE",
"598 863 CURVE SMOOTH",
"964 34 LINE SMOOTH",
"973 13 OFFCURVE",
"961 0 OFFCURVE",
"937 0 CURVE SMOOTH",
"803 0 LINE SMOOTH",
"783 0 OFFCURVE",
"770 7 OFFCURVE",
"766 26 CURVE SMOOTH",
"742 123 LINE SMOOTH",
"738 141 OFFCURVE",
"726 149 OFFCURVE",
"705 149 CURVE SMOOTH",
"346 149 LINE SMOOTH",
"325 149 OFFCURVE",
"311 141 OFFCURVE",
"308 126 CURVE SMOOTH",
"289 25 LINE SMOOTH",
"286 7 OFFCURVE",
"271 0 OFFCURVE",
"252 0 CURVE SMOOTH",
"114 0 LINE SMOOTH",
"87 0 OFFCURVE",
"78 13 OFFCURVE",
"86 34 CURVE SMOOTH"
);
}
);
width = 1051;
},
{
anchors = (
{
name = dotbelowcomb;
position = "{417, 7}";
},
{
name = hookabovecomb;
position = "{410, 814}";
},
{
name = ogonek;
position = "{617, 0}";
},
{
name = top;
position = "{416, 813}";
}
);
guideLines = (
{
angle = 251.648;
position = "{396, 400}";
},
{
angle = 108.28;
position = "{520, 392}";
}
);
layerId = "0964CBBB-CC62-4658-9513-E390A08878CC";
paths = (
{
closed = 1;
nodes = (
"422 644 LINE SMOOTH",
"415 669 OFFCURVE",
"409 669 OFFCURVE",
"401 644 CURVE SMOOTH",
"298 307 LINE SMOOTH",
"292 287 OFFCURVE",
"301 274 OFFCURVE",
"320 274 CURVE SMOOTH",
"503 274 LINE SMOOTH",
"522 274 OFFCURVE",
"531 287 OFFCURVE",
"525 307 CURVE SMOOTH"
);
},
{
closed = 1;
nodes = (
"355 830 LINE SMOOTH",
"360 844 OFFCURVE",
"369 851 OFFCURVE",
"384 851 CURVE SMOOTH",
"438 851 LINE SMOOTH",
"454 851 OFFCURVE",
"463 844 OFFCURVE",
"468 830 CURVE SMOOTH",
"754 33 LINE SMOOTH",
"761 13 OFFCURVE",
"752 0 OFFCURVE",
"734 0 CURVE SMOOTH",
"628 0 LINE SMOOTH",
"613 0 OFFCURVE",
"603 7 OFFCURVE",
"599 25 CURVE SMOOTH",
"581 118 LINE SMOOTH",
"578 136 OFFCURVE",
"568 144 OFFCURVE",
"552 144 CURVE SMOOTH",
"271 144 LINE SMOOTH",
"255 144 OFFCURVE",
"243 136 OFFCURVE",
"241 121 CURVE SMOOTH",
"226 24 LINE SMOOTH",
"224 7 OFFCURVE",
"212 0 OFFCURVE",
"197 0 CURVE SMOOTH",
"89 0 LINE SMOOTH",
"68 0 OFFCURVE",
"61 13 OFFCURVE",
"68 33 CURVE SMOOTH"
);
}
);
width = 823;
}
);
unicode = 0041;
},
{
color = 6;
glyphname = B;
lastChange = "2015-04-18 15:15:14 +0000";
layers = (
{
layerId = "6B6936E6-7670-4A82-900D-EAF583C971AF";
paths = (
{
closed = 1;
nodes = (
"218 407 LINE SMOOTH",
"199 407 OFFCURVE",
"189 398 OFFCURVE",
"189 379 CURVE SMOOTH",
"189 173 LINE SMOOTH",
"189 155 OFFCURVE",
"199 145 OFFCURVE",
"218 145 CURVE SMOOTH",
"376 145 LINE SMOOTH",
"558 145 OFFCURVE",
"609 286 OFFCURVE",
"515 369 CURVE SMOOTH",
"484 394 OFFCURVE",
"438 407 OFFCURVE",
"376 407 CURVE SMOOTH"
);
},
{
closed = 1;
nodes = (
"218 782 LINE SMOOTH",
"199 782 OFFCURVE",
"189 772 OFFCURVE",
"189 753 CURVE SMOOTH",
"189 535 LINE SMOOTH",
"189 516 OFFCURVE",
"199 505 OFFCURVE",
"218 505 CURVE SMOOTH",
"350 505 LINE SMOOTH",
"463 505 OFFCURVE",
"519 548 OFFCURVE",
"519 635 CURVE SMOOTH",
"519 722 OFFCURVE",
"463 782 OFFCURVE",
"350 782 CURVE SMOOTH"
);
},
{
closed = 1;
nodes = (
"73 832 LINE SMOOTH",
"73 851 OFFCURVE",
"82 860 OFFCURVE",
"101 860 CURVE SMOOTH",
"330 860 LINE SMOOTH",
"507 860 OFFCURVE",
"606 784 OFFCURVE",
"606 648 CURVE SMOOTH",
"606 553 OFFCURVE",
"574 493 OFFCURVE",
"515 471 CURVE SMOOTH",
"497 464 OFFCURVE",
"496 460 OFFCURVE",
"515 458 CURVE SMOOTH",
"647 441 OFFCURVE",
"694 349 OFFCURVE",
"694 241 CURVE SMOOTH",
"694 87 OFFCURVE",
"574 0 OFFCURVE",
"382 0 CURVE SMOOTH",
"101 0 LINE SMOOTH",
"82 0 OFFCURVE",
"73 11 OFFCURVE",
"73 28 CURVE SMOOTH"
);
}
);
width = 767;
},
{
layerId = "285E899F-63D1-4687-98EA-700375B8DCD4";
paths = (
{
closed = 1;
nodes = (
"251 419 LINE SMOOTH",
"229 419 OFFCURVE",
"217 410 OFFCURVE",
"217 390 CURVE SMOOTH",
"217 178 LINE SMOOTH",
"217 160 OFFCURVE",
"229 149 OFFCURVE",
"251 149 CURVE SMOOTH",
"432 149 LINE SMOOTH",
"642 149 OFFCURVE",
"700 295 OFFCURVE",
"592 380 CURVE SMOOTH",
"557 406 OFFCURVE",
"504 419 OFFCURVE",
"432 419 CURVE SMOOTH"
);
},
{
closed = 1;
nodes = (
"251 805 LINE SMOOTH",
"229 805 OFFCURVE",
"217 795 OFFCURVE",
"217 776 CURVE SMOOTH",
"217 551 LINE SMOOTH",
"217 531 OFFCURVE",
"229 520 OFFCURVE",
"251 520 CURVE SMOOTH",
"402 520 LINE SMOOTH",
"532 520 OFFCURVE",
"597 564 OFFCURVE",
"597 654 CURVE SMOOTH",
"597 744 OFFCURVE",
"532 805 OFFCURVE",
"402 805 CURVE SMOOTH"
);
},
{
closed = 1;
nodes = (
"84 857 LINE SMOOTH",
"84 877 OFFCURVE",
"94 886 OFFCURVE",
"116 886 CURVE SMOOTH",
"379 886 LINE SMOOTH",
"583 886 OFFCURVE",
"697 808 OFFCURVE",
"697 667 CURVE SMOOTH",
"697 570 OFFCURVE",
"660 508 OFFCURVE",
"592 485 CURVE SMOOTH",
"572 478 OFFCURVE",
"570 474 OFFCURVE",
"592 472 CURVE SMOOTH",
"744 454 OFFCURVE",
"798 359 OFFCURVE",
"798 248 CURVE SMOOTH",
"798 90 OFFCURVE",
"660 0 OFFCURVE",
"439 0 CURVE SMOOTH",
"116 0 LINE SMOOTH",
"94 0 OFFCURVE",
"84 11 OFFCURVE",
"84 29 CURVE SMOOTH"
);
}
);
width = 882;
},
{
layerId = "0964CBBB-CC62-4658-9513-E390A08878CC";
paths = (
{
closed = 1;
nodes = (
"196 403 LINE SMOOTH",
"179 403 OFFCURVE",
"170 394 OFFCURVE",
"170 375 CURVE SMOOTH",
"170 171 LINE SMOOTH",
"170 153 OFFCURVE",
"179 144 OFFCURVE",
"196 144 CURVE SMOOTH",
"338 144 LINE SMOOTH",
"502 144 OFFCURVE",
"548 283 OFFCURVE",
"464 365 CURVE SMOOTH",
"436 390 OFFCURVE",
"394 403 OFFCURVE",
"338 403 CURVE SMOOTH"
);
},
{
closed = 1;
nodes = (
"196 774 LINE SMOOTH",
"179 774 OFFCURVE",
"170 764 OFFCURVE",
"170 745 CURVE SMOOTH",
"170 530 LINE SMOOTH",
"170 511 OFFCURVE",
"179 500 OFFCURVE",
"196 500 CURVE SMOOTH",
"315 500 LINE SMOOTH",
"417 500 OFFCURVE",
"467 543 OFFCURVE",
"467 629 CURVE SMOOTH",
"467 715 OFFCURVE",
"417 774 OFFCURVE",
"315 774 CURVE SMOOTH"
);
},
{
closed = 1;
nodes = (
"66 824 LINE SMOOTH",
"66 842 OFFCURVE",
"74 851 OFFCURVE",
"91 851 CURVE SMOOTH",
"297 851 LINE SMOOTH",
"456 851 OFFCURVE",
"545 776 OFFCURVE",
"545 642 CURVE SMOOTH",
"545 547 OFFCURVE",
"517 488 OFFCURVE",
"464 466 CURVE SMOOTH",
"447 459 OFFCURVE",
"446 455 OFFCURVE",
"464 453 CURVE SMOOTH",
"582 437 OFFCURVE",
"625 346 OFFCURVE",
"625 239 CURVE SMOOTH",
"625 86 OFFCURVE",
"517 0 OFFCURVE",
"344 0 CURVE SMOOTH",
"91 0 LINE SMOOTH",
"74 0 OFFCURVE",
"66 11 OFFCURVE",
"66 28 CURVE SMOOTH"
);
}
);
width = 690;
}
);
unicode = 0042;
},
{
color = 6;
glyphname = C;
lastChange = "2015-04-18 15:15:13 +0000";
layers = (
{
anchors = (
{
name = bottom;
position = "{434, 0}";
},
{
name = top;
position = "{434, 839}";
}
);
guideLines = (
{
angle = 90;
position = "{704, 363}";
}
);
layerId = "6B6936E6-7670-4A82-900D-EAF583C971AF";
paths = (
{
closed = 1;
nodes = (
"743 744 LINE SMOOTH",
"738 720 OFFCURVE",
"730 715 OFFCURVE",
"709 728 CURVE SMOOTH",
"639 772 OFFCURVE",
"561 785 OFFCURVE",
"476 785 CURVE SMOOTH",
"281 785 OFFCURVE",
"191 660 OFFCURVE",
"196 432 CURVE SMOOTH",
"199 242 OFFCURVE",
"252 204 OFFCURVE",
"476 204 CURVE SMOOTH",
"561 204 OFFCURVE",
"672 230 OFFCURVE",
"722 266 CURVE SMOOTH",
"738 277 OFFCURVE",
"758 274 OFFCURVE",
"756 249 CURVE SMOOTH",
"744 91 LINE SMOOTH",
"743 76 OFFCURVE",
"738 69 OFFCURVE",
"725 57 CURVE SMOOTH",
"665 3 OFFCURVE",
"571 -14 OFFCURVE",
"476 -14 CURVE SMOOTH",
"194 -14 OFFCURVE",
"73 156 OFFCURVE",
"73 432 CURVE SMOOTH",
"73 708 OFFCURVE",
"217 878 OFFCURVE",
"476 878 CURVE SMOOTH",
"572 878 OFFCURVE",
"662 871 OFFCURVE",
"736 833 CURVE SMOOTH",
"750 826 OFFCURVE",
"758 814 OFFCURVE",
"755 799 CURVE SMOOTH"
);
}
);
width = 829.139;
},
{
anchors = (
{
name = bottom;
position = "{499, 0}";
},
{
name = top;
position = "{499, 864}";
}
);
guideLines = (
{
angle = 90;
position = "{704, 363}";
}
);
layerId = "285E899F-63D1-4687-98EA-700375B8DCD4";
paths = (
{
closed = 1;
nodes = (
"854 766 LINE SMOOTH",
"849 742 OFFCURVE",
"839 736 OFFCURVE",
"815 750 CURVE SMOOTH",
"735 795 OFFCURVE",
"645 809 OFFCURVE",
"547 809 CURVE SMOOTH",
"323 809 OFFCURVE",
"220 680 OFFCURVE",
"225 445 CURVE SMOOTH",
"229 249 OFFCURVE",
"290 210 OFFCURVE",
"547 210 CURVE SMOOTH",
"645 210 OFFCURVE",
"773 237 OFFCURVE",
"830 274 CURVE SMOOTH",
"849 285 OFFCURVE",
"872 282 OFFCURVE",
"869 256 CURVE SMOOTH",
"856 94 LINE SMOOTH",
"854 78 OFFCURVE",
"849 71 OFFCURVE",
"834 59 CURVE SMOOTH",
"765 3 OFFCURVE",
"657 -14 OFFCURVE",
"547 -14 CURVE SMOOTH",
"223 -14 OFFCURVE",
"84 161 OFFCURVE",
"84 445 CURVE SMOOTH",
"84 729 OFFCURVE",
"250 904 OFFCURVE",
"547 904 CURVE SMOOTH",
"658 904 OFFCURVE",
"761 897 OFFCURVE",
"846 858 CURVE SMOOTH",
"862 851 OFFCURVE",
"872 838 OFFCURVE",
"868 823 CURVE SMOOTH"
);
}
);
width = 953;
},
{
anchors = (
{
name = bottom;
position = "{391, 0}";
},
{
name = top;
position = "{391, 831}";
}
);
guideLines = (
{
angle = 90;
position = "{704, 363}";
}
);
layerId = "0964CBBB-CC62-4658-9513-E390A08878CC";
paths = (
{
closed = 1;
nodes = (
"669 737 LINE SMOOTH",
"664 713 OFFCURVE",
"657 708 OFFCURVE",
"638 721 CURVE SMOOTH",
"575 764 OFFCURVE",
"505 777 OFFCURVE",
"428 777 CURVE SMOOTH",
"253 777 OFFCURVE",
"172 653 OFFCURVE",
"176 428 CURVE SMOOTH",
"179 240 OFFCURVE",
"227 202 OFFCURVE",
"428 202 CURVE SMOOTH",
"505 202 OFFCURVE",
"605 228 OFFCURVE",
"650 263 CURVE SMOOTH",
"664 274 OFFCURVE",
"682 271 OFFCURVE",
"680 247 CURVE SMOOTH",
"670 90 LINE SMOOTH",
"669 75 OFFCURVE",
"664 68 OFFCURVE",
"653 56 CURVE SMOOTH",
"599 3 OFFCURVE",
"514 -14 OFFCURVE",
"428 -14 CURVE SMOOTH",
"175 -14 OFFCURVE",
"66 154 OFFCURVE",
"66 428 CURVE SMOOTH",
"66 701 OFFCURVE",
"195 869 OFFCURVE",
"428 869 CURVE SMOOTH",
"515 869 OFFCURVE",
"596 862 OFFCURVE",
"662 825 CURVE SMOOTH",
"675 818 OFFCURVE",
"682 806 OFFCURVE",
"680 791 CURVE SMOOTH"
);
}
);
width = 746;
}
);
unicode = 0043;
},
{
color = 6;
glyphname = D;
lastChange = "2015-04-18 15:15:13 +0000";
layers = (
{
anchors = (
{
name = center;
position = "{409, 365}";
},
{
name = top;
position = "{409, 845}";
}
);
guideLines = (
{
position = "{683, 365}";
}
);
layerId = "6B6936E6-7670-4A82-900D-EAF583C971AF";
paths = (
{
closed = 1;
nodes = (
"224 765 LINE SMOOTH",
"206 765 OFFCURVE",
"196 755 OFFCURVE",
"196 736 CURVE SMOOTH",
"196 232 LINE SMOOTH",
"196 214 OFFCURVE",
"205 204 OFFCURVE",
"224 204 CURVE SMOOTH",
"336 204 LINE SMOOTH",
"506 204 OFFCURVE",
"675 232 OFFCURVE",
"675 431 CURVE SMOOTH",
"675 634 OFFCURVE",
"570 765 OFFCURVE",
"336 765 CURVE SMOOTH"
);
},
{
closed = 1;
nodes = (
"73 832 LINE SMOOTH",
"73 851 OFFCURVE",
"83 860 OFFCURVE",
"101 860 CURVE SMOOTH",
"312 860 LINE SMOOTH",
"587 860 OFFCURVE",
"796 726 OFFCURVE",
"796 431 CURVE SMOOTH",
"796 135 OFFCURVE",
"585 0 OFFCURVE",
"312 0 CURVE SMOOTH",
"101 0 LINE SMOOTH",
"83 0 OFFCURVE",
"73 11 OFFCURVE",
"73 28 CURVE SMOOTH"
);
}
);
width = 869;
},
{
anchors = (
{
name = center;
position = "{470, 376}";
},
{
name = top;
position = "{470, 870}";
}
);
guideLines = (
{
position = "{683, 365}";
}
);
layerId = "285E899F-63D1-4687-98EA-700375B8DCD4";
paths = (
{
closed = 1;
nodes = (
"258 788 LINE SMOOTH",
"237 788 OFFCURVE",
"225 778 OFFCURVE",
"225 758 CURVE SMOOTH",
"225 239 LINE SMOOTH",
"225 220 OFFCURVE",
"236 210 OFFCURVE",
"258 210 CURVE SMOOTH",
"386 210 LINE SMOOTH",
"582 210 OFFCURVE",
"776 239 OFFCURVE",
"776 444 CURVE SMOOTH",
"776 653 OFFCURVE",
"656 788 OFFCURVE",
"386 788 CURVE SMOOTH"
);
},
{
closed = 1;
nodes = (
"84 857 LINE SMOOTH",
"84 877 OFFCURVE",
"95 886 OFFCURVE",
"116 886 CURVE SMOOTH",
"359 886 LINE SMOOTH",
"675 886 OFFCURVE",
"915 748 OFFCURVE",
"915 444 CURVE SMOOTH",
"915 139 OFFCURVE",
"673 0 OFFCURVE",
"359 0 CURVE SMOOTH",
"116 0 LINE SMOOTH",
"95 0 OFFCURVE",
"84 11 OFFCURVE",
"84 29 CURVE SMOOTH"
);
}
);
width = 999;
},
{
anchors = (
{
name = center;
position = "{368, 361}";
},
{
name = top;
position = "{368, 837}";
}
);
guideLines = (
{
position = "{683, 365}";
}
);
layerId = "0964CBBB-CC62-4658-9513-E390A08878CC";
paths = (
{
closed = 1;
nodes = (
"202 757 LINE SMOOTH",
"185 757 OFFCURVE",
"176 747 OFFCURVE",
"176 729 CURVE SMOOTH",
"176 230 LINE SMOOTH",
"176 212 OFFCURVE",
"185 202 OFFCURVE",
"202 202 CURVE SMOOTH",
"302 202 LINE SMOOTH",
"455 202 OFFCURVE",
"608 230 OFFCURVE",
"608 427 CURVE SMOOTH",
"608 628 OFFCURVE",
"513 757 OFFCURVE",
"302 757 CURVE SMOOTH"
);
},
{
closed = 1;
nodes = (
"66 824 LINE SMOOTH",
"66 842 OFFCURVE",
"75 851 OFFCURVE",
"91 851 CURVE SMOOTH",
"281 851 LINE SMOOTH",
"528 851 OFFCURVE",
"716 719 OFFCURVE",
"716 427 CURVE SMOOTH",
"716 134 OFFCURVE",
"527 0 OFFCURVE",
"281 0 CURVE SMOOTH",
"91 0 LINE SMOOTH",
"75 0 OFFCURVE",
"66 11 OFFCURVE",
"66 28 CURVE SMOOTH"
);
}
);
width = 782;
}
);
unicode = 0044;
},
{
color = 6;
glyphname = E;
lastChange = "2015-04-18 15:15:14 +0000";
layers = (
{
anchors = (
{
name = bottom;
position = "{375, 0}";
},
{
name = ogonek;
position = "{374, 0}";
},
{
name = top;
position = "{335, 846}";
}
);
layerId = "6B6936E6-7670-4A82-900D-EAF583C971AF";
paths = (
{
closed = 1;
nodes = (
"73 832 LINE SMOOTH",
"73 851 OFFCURVE",
"83 860 OFFCURVE",
"102 860 CURVE SMOOTH",
"588 860 LINE SMOOTH",
"607 860 OFFCURVE",
"617 851 OFFCURVE",
"617 832 CURVE SMOOTH",
"617 811 LINE SMOOTH",
"617 793 OFFCURVE",
"606 782 OFFCURVE",
"588 782 CURVE SMOOTH",
"218 782 LINE SMOOTH",
"200 782 OFFCURVE",
"190 773 OFFCURVE",
"190 754 CURVE SMOOTH",
"190 535 LINE SMOOTH",
"190 516 OFFCURVE",
"200 505 OFFCURVE",
"218 505 CURVE SMOOTH",
"571 505 LINE SMOOTH",
"590 505 OFFCURVE",
"599 496 OFFCURVE",
"599 477 CURVE SMOOTH",
"599 437 LINE SMOOTH",
"599 418 OFFCURVE",
"588 407 OFFCURVE",
"571 407 CURVE SMOOTH",
"218 407 LINE SMOOTH",
"200 407 OFFCURVE",
"190 398 OFFCURVE",
"190 379 CURVE SMOOTH",
"190 234 LINE SMOOTH",
"190 215 OFFCURVE",
"200 204 OFFCURVE",
"218 204 CURVE SMOOTH",
"599 204 LINE SMOOTH",
"618 204 OFFCURVE",
"627 195 OFFCURVE",
"627 176 CURVE SMOOTH",
"627 28 LINE SMOOTH",
"627 11 OFFCURVE",
"618 0 OFFCURVE",
"599 0 CURVE SMOOTH",
"102 0 LINE SMOOTH",
"83 0 OFFCURVE",
"73 11 OFFCURVE",
"73 28 CURVE SMOOTH"
);
}
);
width = 700;
},
{
anchors = (
{
name = bottom;
position = "{431, 0}";
},
{
name = ogonek;
position = "{430, 0}";
},
{
name = top;
position = "{385, 871}";
}
);
layerId = "285E899F-63D1-4687-98EA-700375B8DCD4";
paths = (
{
closed = 1;
nodes = (
"84 857 LINE SMOOTH",
"84 877 OFFCURVE",
"95 886 OFFCURVE",
"117 886 CURVE SMOOTH",
"676 886 LINE SMOOTH",
"698 886 OFFCURVE",
"710 877 OFFCURVE",
"710 857 CURVE SMOOTH",
"710 835 LINE SMOOTH",
"710 817 OFFCURVE",
"697 805 OFFCURVE",
"676 805 CURVE SMOOTH",
"251 805 LINE SMOOTH",
"230 805 OFFCURVE",
"218 796 OFFCURVE",
"218 777 CURVE SMOOTH",
"218 551 LINE SMOOTH",
"218 531 OFFCURVE",
"230 520 OFFCURVE",
"251 520 CURVE SMOOTH",
"657 520 LINE SMOOTH",
"679 520 OFFCURVE",
"689 511 OFFCURVE",
"689 491 CURVE SMOOTH",
"689 450 LINE SMOOTH",
"689 431 OFFCURVE",
"676 419 OFFCURVE",
"657 419 CURVE SMOOTH",
"251 419 LINE SMOOTH",
"230 419 OFFCURVE",
"218 410 OFFCURVE",
"218 390 CURVE SMOOTH",
"218 241 LINE SMOOTH",
"218 221 OFFCURVE",
"230 210 OFFCURVE",
"251 210 CURVE SMOOTH",
"689 210 LINE SMOOTH",
"711 210 OFFCURVE",
"721 201 OFFCURVE",
"721 181 CURVE SMOOTH",
"721 29 LINE SMOOTH",
"721 11 OFFCURVE",
"711 0 OFFCURVE",
"689 0 CURVE SMOOTH",
"117 0 LINE SMOOTH",
"95 0 OFFCURVE",
"84 11 OFFCURVE",
"84 29 CURVE SMOOTH"
);
}
);
width = 805;
},
{
anchors = (
{
name = bottom;
position = "{338, 0}";
},
{
name = ogonek;
position = "{337, 0}";
},
{
name = top;
position = "{302, 838}";
}
);
layerId = "0964CBBB-CC62-4658-9513-E390A08878CC";
paths = (
{
closed = 1;
nodes = (
"66 824 LINE SMOOTH",
"66 842 OFFCURVE",
"75 851 OFFCURVE",
"92 851 CURVE SMOOTH",
"529 851 LINE SMOOTH",
"546 851 OFFCURVE",
"555 842 OFFCURVE",
"555 824 CURVE SMOOTH",
"555 803 LINE SMOOTH",
"555 785 OFFCURVE",
"545 774 OFFCURVE",
"529 774 CURVE SMOOTH",
"196 774 LINE SMOOTH",
"180 774 OFFCURVE",
"171 765 OFFCURVE",
"171 746 CURVE SMOOTH",
"171 530 LINE SMOOTH",
"171 511 OFFCURVE",
"180 500 OFFCURVE",
"196 500 CURVE SMOOTH",
"514 500 LINE SMOOTH",
"531 500 OFFCURVE",
"539 491 OFFCURVE",
"539 472 CURVE SMOOTH",
"539 433 LINE SMOOTH",
"539 414 OFFCURVE",
"529 403 OFFCURVE",
"514 403 CURVE SMOOTH",
"196 403 LINE SMOOTH",
"180 403 OFFCURVE",
"171 394 OFFCURVE",
"171 375 CURVE SMOOTH",
"171 232 LINE SMOOTH",
"171 213 OFFCURVE",
"180 202 OFFCURVE",
"196 202 CURVE SMOOTH",
"539 202 LINE SMOOTH",
"556 202 OFFCURVE",
"564 193 OFFCURVE",
"564 174 CURVE SMOOTH",
"564 28 LINE SMOOTH",
"564 11 OFFCURVE",
"556 0 OFFCURVE",
"539 0 CURVE SMOOTH",
"92 0 LINE SMOOTH",
"75 0 OFFCURVE",
"66 11 OFFCURVE",
"66 28 CURVE SMOOTH"
);
}
);
width = 630;
}
);
unicode = 0045;
},
{
color = 6;
glyphname = F;
lastChange = "2015-04-18 15:15:14 +0000";
layers = (
{
layerId = "6B6936E6-7670-4A82-900D-EAF583C971AF";
paths = (
{
closed = 1;
nodes = (
"96 832 LINE SMOOTH",
"96 851 OFFCURVE",
"106 860 OFFCURVE",
"124 860 CURVE SMOOTH",
"550 860 LINE SMOOTH",
"569 860 OFFCURVE",
"580 850 OFFCURVE",
"580 832 CURVE SMOOTH",
"580 798 LINE SMOOTH",
"580 779 OFFCURVE",
"569 768 OFFCURVE",
"550 768 CURVE SMOOTH",
"229 768 LINE SMOOTH",
"210 768 OFFCURVE",
"200 759 OFFCURVE",
"200 740 CURVE SMOOTH",
"202 538 LINE SMOOTH",
"202 519 OFFCURVE",
"211 509 OFFCURVE",
"230 509 CURVE SMOOTH",
"508 509 LINE SMOOTH",
"527 509 OFFCURVE",
"536 499 OFFCURVE",
"536 480 CURVE SMOOTH",
"536 417 LINE SMOOTH",
"536 398 OFFCURVE",
"527 388 OFFCURVE",
"508 388 CURVE SMOOTH",
"236 388 LINE SMOOTH",
"217 388 OFFCURVE",
"207 378 OFFCURVE",
"208 359 CURVE SMOOTH",
"229 29 LINE SMOOTH",
"230 11 OFFCURVE",
"220 0 OFFCURVE",
"201 0 CURVE SMOOTH",
"103 0 LINE SMOOTH",
"84 0 OFFCURVE",
"73 11 OFFCURVE",
"73 29 CURVE SMOOTH"
);
}
);
width = 653;
},
{
layerId = "285E899F-63D1-4687-98EA-700375B8DCD4";
paths = (
{
closed = 1;
nodes = (
"110 857 LINE SMOOTH",
"110 877 OFFCURVE",
"122 886 OFFCURVE",
"143 886 CURVE SMOOTH",
"633 886 LINE SMOOTH",
"654 886 OFFCURVE",
"667 876 OFFCURVE",
"667 857 CURVE SMOOTH",
"667 822 LINE SMOOTH",
"667 802 OFFCURVE",
"654 791 OFFCURVE",
"633 791 CURVE SMOOTH",
"263 791 LINE SMOOTH",
"241 791 OFFCURVE",
"230 782 OFFCURVE",
"230 762 CURVE SMOOTH",
"232 554 LINE SMOOTH",
"232 535 OFFCURVE",
"243 524 OFFCURVE",
"265 524 CURVE SMOOTH",
"584 524 LINE SMOOTH",
"606 524 OFFCURVE",
"616 514 OFFCURVE",
"616 494 CURVE SMOOTH",
"616 430 LINE SMOOTH",
"616 410 OFFCURVE",
"606 400 OFFCURVE",
"584 400 CURVE SMOOTH",
"271 400 LINE SMOOTH",
"250 400 OFFCURVE",
"238 389 OFFCURVE",
"239 370 CURVE SMOOTH",
"263 30 LINE SMOOTH",
"265 11 OFFCURVE",
"253 0 OFFCURVE",
"231 0 CURVE SMOOTH",
"118 0 LINE SMOOTH",
"97 0 OFFCURVE",
"84 11 OFFCURVE",
"84 30 CURVE SMOOTH"
);
}
);
width = 751;
},
{
layerId = "0964CBBB-CC62-4658-9513-E390A08878CC";
paths = (
{
closed = 1;
nodes = (
"86 824 LINE SMOOTH",
"86 842 OFFCURVE",
"95 851 OFFCURVE",
"112 851 CURVE SMOOTH",
"495 851 LINE SMOOTH",
"512 851 OFFCURVE",
"522 842 OFFCURVE",
"522 824 CURVE SMOOTH",
"522 790 LINE SMOOTH",
"522 771 OFFCURVE",
"512 760 OFFCURVE",
"495 760 CURVE SMOOTH",
"206 760 LINE SMOOTH",
"189 760 OFFCURVE",
"180 751 OFFCURVE",
"180 733 CURVE SMOOTH",
"182 533 LINE SMOOTH",
"182 514 OFFCURVE",
"190 504 OFFCURVE",
"207 504 CURVE SMOOTH",
"457 504 LINE SMOOTH",
"474 504 OFFCURVE",
"482 494 OFFCURVE",
"482 475 CURVE SMOOTH",
"482 413 LINE SMOOTH",
"482 394 OFFCURVE",
"474 384 OFFCURVE",
"457 384 CURVE SMOOTH",
"212 384 LINE SMOOTH",
"195 384 OFFCURVE",
"186 374 OFFCURVE",
"187 355 CURVE SMOOTH",
"206 29 LINE SMOOTH",
"207 11 OFFCURVE",
"198 0 OFFCURVE",
"181 0 CURVE SMOOTH",
"93 0 LINE SMOOTH",
"76 0 OFFCURVE",
"66 11 OFFCURVE",
"66 29 CURVE SMOOTH"
);
}
);
width = 588;
}
);
unicode = 0046;
},
{
color = 6;
glyphname = G;
lastChange = "2015-04-18 15:15:14 +0000";
layers = (
{
anchors = (
{
name = bottom;
position = "{461, 0}";
},
{
name = top;
position = "{461, 873}";
}
);
layerId = "6B6936E6-7670-4A82-900D-EAF583C971AF";
paths = (
{
closed = 1;
nodes = (
"692 305 LINE SMOOTH",
"692 316 OFFCURVE",
"686 322 OFFCURVE",
"674 322 CURVE SMOOTH",
"525 322 LINE SMOOTH",
"513 322 OFFCURVE",
"507 328 OFFCURVE",
"507 340 CURVE SMOOTH",
"507 417 LINE SMOOTH",
"507 428 OFFCURVE",
"513 434 OFFCURVE",
"525 434 CURVE SMOOTH",
"807 434 LINE SMOOTH",
"818 434 OFFCURVE",
"824 428 OFFCURVE",
"824 417 CURVE SMOOTH",
"824 97 LINE SMOOTH",
"824 86 OFFCURVE",
"821 80 OFFCURVE",
"814 74 CURVE SMOOTH",
"725 17 OFFCURVE",
"620 -14 OFFCURVE",
"502 -14 CURVE SMOOTH",
"233 -14 OFFCURVE",
"73 151 OFFCURVE",
"73 432 CURVE SMOOTH",
"73 713 OFFCURVE",
"261 878 OFFCURVE",
"502 878 CURVE SMOOTH",
"539 878 OFFCURVE",
"613 883 OFFCURVE",
"790 839 CURVE SMOOTH",
"798 837 OFFCURVE",
"801 827 OFFCURVE",
"802 818 CURVE SMOOTH",
"814 740 LINE SMOOTH",
"816 726 OFFCURVE",
"807 727 OFFCURVE",
"792 731 CURVE SMOOTH",
"613 773 OFFCURVE",
"539 773 OFFCURVE",
"512 773 CURVE SMOOTH",
"330 773 OFFCURVE",
"207 676 OFFCURVE",
"207 444 CURVE",
"215 198 OFFCURVE",
"250 174 OFFCURVE",
"512 174 CURVE SMOOTH",
"586 174 OFFCURVE",
"650 185 OFFCURVE",
"683 209 CURVE SMOOTH",
"690 215 OFFCURVE",
"692 221 OFFCURVE",
"692 230 CURVE SMOOTH"
);
}
);
width = 897;
},
{
anchors = (
{
name = bottom;
position = "{530, 0}";
},
{
name = top;
position = "{530, 899}";
}
);
layerId = "285E899F-63D1-4687-98EA-700375B8DCD4";
paths = (
{
closed = 1;
nodes = (
"796 314 LINE SMOOTH",
"796 325 OFFCURVE",
"789 332 OFFCURVE",
"775 332 CURVE SMOOTH",
"604 332 LINE SMOOTH",
"590 332 OFFCURVE",
"583 338 OFFCURVE",
"583 350 CURVE SMOOTH",
"583 430 LINE SMOOTH",
"583 441 OFFCURVE",
"590 447 OFFCURVE",
"604 447 CURVE SMOOTH",
"928 447 LINE SMOOTH",
"941 447 OFFCURVE",
"948 441 OFFCURVE",
"948 430 CURVE SMOOTH",
"948 100 LINE SMOOTH",
"948 89 OFFCURVE",
"944 82 OFFCURVE",
"936 76 CURVE SMOOTH",
"834 18 OFFCURVE",
"713 -14 OFFCURVE",
"577 -14 CURVE SMOOTH",
"268 -14 OFFCURVE",
"84 156 OFFCURVE",
"84 445 CURVE SMOOTH",
"84 734 OFFCURVE",
"300 904 OFFCURVE",
"577 904 CURVE SMOOTH",
"620 904 OFFCURVE",
"705 909 OFFCURVE",
"908 864 CURVE SMOOTH",
"918 862 OFFCURVE",
"921 852 OFFCURVE",
"922 843 CURVE SMOOTH",
"936 762 LINE SMOOTH",
"938 748 OFFCURVE",
"928 749 OFFCURVE",
"911 753 CURVE SMOOTH",
"705 796 OFFCURVE",
"620 796 OFFCURVE",
"589 796 CURVE SMOOTH",
"379 796 OFFCURVE",
"238 696 OFFCURVE",
"238 457 CURVE",
"247 204 OFFCURVE",
"288 179 OFFCURVE",
"589 179 CURVE SMOOTH",
"674 179 OFFCURVE",
"747 191 OFFCURVE",
"785 215 CURVE SMOOTH",
"793 221 OFFCURVE",
"796 228 OFFCURVE",
"796 237 CURVE SMOOTH"
);
}
);
width = 1032;
},
{
anchors = (
{
name = bottom;
position = "{415, 0}";
},
{
name = top;
position = "{415, 864}";
}
);
layerId = "0964CBBB-CC62-4658-9513-E390A08878CC";
paths = (
{
closed = 1;
nodes = (
"623 302 LINE SMOOTH",
"623 313 OFFCURVE",
"617 319 OFFCURVE",
"607 319 CURVE SMOOTH",
"473 319 LINE SMOOTH",
"462 319 OFFCURVE",
"456 325 OFFCURVE",
"456 337 CURVE SMOOTH",
"456 413 LINE SMOOTH",
"456 424 OFFCURVE",
"462 430 OFFCURVE",
"473 430 CURVE SMOOTH",
"726 430 LINE SMOOTH",
"736 430 OFFCURVE",
"742 424 OFFCURVE",
"742 413 CURVE SMOOTH",
"742 96 LINE SMOOTH",
"742 85 OFFCURVE",
"739 79 OFFCURVE",
"733 73 CURVE SMOOTH",
"653 17 OFFCURVE",
"558 -14 OFFCURVE",
"452 -14 CURVE SMOOTH",
"210 -14 OFFCURVE",
"66 149 OFFCURVE",
"66 428 CURVE SMOOTH",
"66 706 OFFCURVE",
"235 869 OFFCURVE",
"452 869 CURVE SMOOTH",
"485 869 OFFCURVE",
"552 874 OFFCURVE",
"711 831 CURVE SMOOTH",
"718 829 OFFCURVE",
"721 819 OFFCURVE",
"722 810 CURVE SMOOTH",
"733 733 LINE SMOOTH",
"734 719 OFFCURVE",
"726 720 OFFCURVE",
"713 724 CURVE SMOOTH",
"552 765 OFFCURVE",
"485 765 OFFCURVE",
"461 765 CURVE SMOOTH",
"297 765 OFFCURVE",
"186 669 OFFCURVE",
"186 440 CURVE",
"194 196 OFFCURVE",
"225 172 OFFCURVE",
"461 172 CURVE SMOOTH",
"527 172 OFFCURVE",
"585 183 OFFCURVE",
"615 207 CURVE SMOOTH",
"621 213 OFFCURVE",
"623 219 OFFCURVE",
"623 228 CURVE SMOOTH"
);
}
);
width = 807;
}
);
leftKerningGroup = Round;
unicode = 0047;
},
{
color = 6;
glyphname = H;
lastChange = "2015-04-18 15:15:14 +0000";
layers = (
{
anchors = (
{
name = center;
position = "{406, 365}";
},
{
name = top;
position = "{406, 729}";
}
);
layerId = "6B6936E6-7670-4A82-900D-EAF583C971AF";
paths = (
{
closed = 1;
nodes = (
"83 831 LINE SMOOTH",
"83 850 OFFCURVE",
"94 860 OFFCURVE",
"113 860 CURVE SMOOTH",
"176 860 LINE SMOOTH",
"195 860 OFFCURVE",
"206 849 OFFCURVE",
"206 831 CURVE SMOOTH",
"206 436 LINE SMOOTH",
"206 417 OFFCURVE",
"215 407 OFFCURVE",
"234 407 CURVE SMOOTH",
"576 407 LINE SMOOTH",
"595 407 OFFCURVE",
"606 417 OFFCURVE",
"606 436 CURVE SMOOTH",
"606 831 LINE SMOOTH",
"606 849 OFFCURVE",
"615 860 OFFCURVE",
"634 860 CURVE SMOOTH",
"699 860 LINE SMOOTH",
"718 860 OFFCURVE",
"727 850 OFFCURVE",
"728 831 CURVE SMOOTH",
"738 28 LINE SMOOTH",
"739 11 OFFCURVE",
"728 0 OFFCURVE",
"710 0 CURVE SMOOTH",
"634 0 LINE SMOOTH",
"615 0 OFFCURVE",
"606 9 OFFCURVE",
"606 28 CURVE SMOOTH",
"606 217 LINE SMOOTH",
"606 236 OFFCURVE",
"595 246 OFFCURVE",
"576 246 CURVE SMOOTH",
"234 246 LINE SMOOTH",
"216 246 OFFCURVE",
"206 236 OFFCURVE",
"206 217 CURVE SMOOTH",
"206 28 LINE SMOOTH",
"206 9 OFFCURVE",
"195 0 OFFCURVE",
"176 0 CURVE SMOOTH",
"101 0 LINE SMOOTH",
"82 0 OFFCURVE",
"71 11 OFFCURVE",
"73 28 CURVE SMOOTH"
);
}
);
width = 811.063;
},
{
anchors = (
{
name = center;
position = "{467, 376}";
},
{
name = top;
position = "{467, 751}";
}
);
layerId = "285E899F-63D1-4687-98EA-700375B8DCD4";
paths = (
{
closed = 1;
nodes = (
"95 856 LINE SMOOTH",
"95 876 OFFCURVE",
"108 886 OFFCURVE",
"130 886 CURVE SMOOTH",
"202 886 LINE SMOOTH",
"224 886 OFFCURVE",
"237 874 OFFCURVE",
"237 856 CURVE SMOOTH",
"237 449 LINE SMOOTH",
"237 430 OFFCURVE",
"247 419 OFFCURVE",
"269 419 CURVE SMOOTH",
"662 419 LINE SMOOTH",
"684 419 OFFCURVE",
"697 430 OFFCURVE",
"697 449 CURVE SMOOTH",
"697 856 LINE SMOOTH",
"697 874 OFFCURVE",
"707 886 OFFCURVE",
"729 886 CURVE SMOOTH",
"804 886 LINE SMOOTH",
"826 886 OFFCURVE",
"836 876 OFFCURVE",
"837 856 CURVE SMOOTH",
"849 29 LINE SMOOTH",
"850 11 OFFCURVE",
"837 0 OFFCURVE",
"816 0 CURVE SMOOTH",
"729 0 LINE SMOOTH",
"707 0 OFFCURVE",
"697 9 OFFCURVE",
"697 29 CURVE SMOOTH",
"697 224 LINE SMOOTH",
"697 243 OFFCURVE",
"684 253 OFFCURVE",
"662 253 CURVE SMOOTH",
"269 253 LINE SMOOTH",
"248 253 OFFCURVE",
"237 243 OFFCURVE",
"237 224 CURVE SMOOTH",
"237 29 LINE SMOOTH",
"237 9 OFFCURVE",
"224 0 OFFCURVE",
"202 0 CURVE SMOOTH",
"116 0 LINE SMOOTH",
"94 0 OFFCURVE",
"82 11 OFFCURVE",
"84 29 CURVE SMOOTH"
);
}
);
width = 933;
},
{
anchors = (
{
name = center;
position = "{365, 361}";
},
{
name = top;
position = "{365, 722}";
}
);
layerId = "0964CBBB-CC62-4658-9513-E390A08878CC";
paths = (
{
closed = 1;
nodes = (
"75 823 LINE SMOOTH",
"75 842 OFFCURVE",
"85 851 OFFCURVE",
"102 851 CURVE SMOOTH",
"158 851 LINE SMOOTH",
"176 851 OFFCURVE",
"185 841 OFFCURVE",
"185 823 CURVE SMOOTH",
"185 432 LINE SMOOTH",
"185 413 OFFCURVE",
"194 403 OFFCURVE",
"211 403 CURVE SMOOTH",
"518 403 LINE SMOOTH",
"536 403 OFFCURVE",
"545 413 OFFCURVE",
"545 432 CURVE SMOOTH",
"545 823 LINE SMOOTH",
"545 841 OFFCURVE",
"554 851 OFFCURVE",
"571 851 CURVE SMOOTH",
"629 851 LINE SMOOTH",
"646 851 OFFCURVE",
"654 842 OFFCURVE",
"655 823 CURVE SMOOTH",
"664 28 LINE SMOOTH",
"665 11 OFFCURVE",
"655 0 OFFCURVE",
"639 0 CURVE SMOOTH",
"571 0 LINE SMOOTH",
"554 0 OFFCURVE",
"545 9 OFFCURVE",
"545 28 CURVE SMOOTH",
"545 215 LINE SMOOTH",
"545 234 OFFCURVE",
"536 244 OFFCURVE",
"518 244 CURVE SMOOTH",
"211 244 LINE SMOOTH",
"194 244 OFFCURVE",
"185 234 OFFCURVE",
"185 215 CURVE SMOOTH",
"185 28 LINE SMOOTH",
"185 9 OFFCURVE",
"176 0 OFFCURVE",
"158 0 CURVE SMOOTH",
"91 0 LINE SMOOTH",
"74 0 OFFCURVE",
"64 11 OFFCURVE",
"66 28 CURVE SMOOTH"
);
}
);
width = 730;
}
);
unicode = 0048;
},
{
color = 6;
glyphname = I;
lastChange = "2015-04-18 15:15:13 +0000";
layers = (
{
anchors = (
{
name = hookabovecomb;
position = "{194, 853}";
},
{
name = ogonek;
position = "{184, 0}";
},
{
name = top;
position = "{188, 860}";
}
);
layerId = "6B6936E6-7670-4A82-900D-EAF583C971AF";
paths = (
{
closed = 1;
nodes = (
"145 307 OFFCURVE",
"194 603 OFFCURVE",
"110 844 CURVE SMOOTH",
"104 859 OFFCURVE",
"121 870 OFFCURVE",
"140 870 CURVE SMOOTH",
"237 870 LINE SMOOTH",
"256 870 OFFCURVE",
"268 859 OFFCURVE",
"265 840 CURVE SMOOTH",
"235 635 OFFCURVE",
"231 168 OFFCURVE",
"286 31 CURVE SMOOTH",
"294 11 OFFCURVE",
"278 0 OFFCURVE",
"259 0 CURVE SMOOTH",
"102 0 LINE SMOOTH",
"82 0 OFFCURVE",
"69 9 OFFCURVE",
"74 29 CURVE SMOOTH"
);
}
);
width = 361.11;
},
{
anchors = (
{
name = hookabovecomb;
position = "{223, 879}";
},
{
name = ogonek;
position = "{212, 0}";
},
{
name = top;
position = "{216, 886}";
}
);
layerId = "285E899F-63D1-4687-98EA-700375B8DCD4";
paths = (
{
closed = 1;
nodes = (
"167 316 OFFCURVE",
"223 621 OFFCURVE",
"126 869 CURVE SMOOTH",
"120 885 OFFCURVE",
"139 896 OFFCURVE",
"161 896 CURVE SMOOTH",
"273 896 LINE SMOOTH",
"294 896 OFFCURVE",
"308 885 OFFCURVE",
"305 865 CURVE SMOOTH",
"270 654 OFFCURVE",
"266 173 OFFCURVE",
"329 32 CURVE SMOOTH",
"338 11 OFFCURVE",
"320 0 OFFCURVE",
"298 0 CURVE SMOOTH",
"117 0 LINE SMOOTH",
"94 0 OFFCURVE",
"79 9 OFFCURVE",
"85 30 CURVE SMOOTH"
);
}
);
width = 415;
},
{
anchors = (
{
name = hookabovecomb;
position = "{175, 844}";
},
{
name = ogonek;
position = "{166, 0}";
},
{
name = top;
position = "{169, 851}";
}
);
layerId = "0964CBBB-CC62-4658-9513-E390A08878CC";
paths = (
{
closed = 1;
nodes = (
"131 304 OFFCURVE",
"175 597 OFFCURVE",
"99 836 CURVE SMOOTH",
"94 850 OFFCURVE",
"109 861 OFFCURVE",
"126 861 CURVE SMOOTH",
"213 861 LINE SMOOTH",
"230 861 OFFCURVE",
"241 850 OFFCURVE",
"239 832 CURVE SMOOTH",
"212 629 OFFCURVE",
"208 166 OFFCURVE",
"257 31 CURVE SMOOTH",
"265 11 OFFCURVE",
"250 0 OFFCURVE",
"233 0 CURVE SMOOTH",
"92 0 LINE SMOOTH",
"74 0 OFFCURVE",
"62 9 OFFCURVE",
"67 29 CURVE SMOOTH"
);
}
);
width = 325;
}
);
unicode = 0049;
},
{
color = 6;
glyphname = J;
lastChange = "2015-04-18 15:15:13 +0000";
layers = (
{
anchors = (
{
name = top;
position = "{293, 729}";
}
);
layerId = "6B6936E6-7670-4A82-900D-EAF583C971AF";
paths = (
{
closed = 1;
nodes = (
"328 870 LINE SMOOTH",
"329 889 OFFCURVE",
"339 898 OFFCURVE",
"358 898 CURVE SMOOTH",
"423 893 LINE SMOOTH",
"441 892 OFFCURVE",
"451 882 OFFCURVE",
"450 863 CURVE SMOOTH",
"414 75 LINE SMOOTH",
"405 -133 OFFCURVE",
"325 -207 OFFCURVE",
"143 -211 CURVE",
"103 -207 LINE SMOOTH",
"84 -205 OFFCURVE",
"76 -194 OFFCURVE",
"74 -177 CURVE SMOOTH",
"73 -47 LINE SMOOTH",
"73 -26 OFFCURVE",
"85 -16 OFFCURVE",
"105 -21 CURVE SMOOTH",
"115 -23 LINE SMOOTH",
"128 -26 OFFCURVE",
"136 -27 OFFCURVE",
"150 -26 CURVE SMOOTH",
"240 -15 OFFCURVE",
"277 36 OFFCURVE",
"281 82 CURVE SMOOTH"
);
}
);
width = 523.068;
},
{
anchors = (
{
name = top;
position = "{337, 751}";
}
);
layerId = "285E899F-63D1-4687-98EA-700375B8DCD4";
paths = (
{
closed = 1;
nodes = (
"377 896 LINE SMOOTH",
"378 916 OFFCURVE",
"390 925 OFFCURVE",
"412 925 CURVE SMOOTH",
"486 920 LINE SMOOTH",
"507 919 OFFCURVE",
"519 908 OFFCURVE",
"518 889 CURVE SMOOTH",
"476 77 LINE SMOOTH",
"466 -137 OFFCURVE",
"374 -213 OFFCURVE",
"164 -217 CURVE",
"118 -213 LINE SMOOTH",
"97 -211 OFFCURVE",
"87 -200 OFFCURVE",
"85 -182 CURVE SMOOTH",
"84 -48 LINE SMOOTH",
"84 -27 OFFCURVE",
"98 -16 OFFCURVE",
"121 -22 CURVE SMOOTH",
"132 -24 LINE SMOOTH",
"147 -27 OFFCURVE",
"156 -28 OFFCURVE",
"173 -27 CURVE SMOOTH",
"276 -15 OFFCURVE",
"319 37 OFFCURVE",
"323 84 CURVE SMOOTH"
);
}
);
width = 601;
},
{
anchors = (
{
name = top;
position = "{264, 722}";
}
);
layerId = "0964CBBB-CC62-4658-9513-E390A08878CC";
paths = (
{
closed = 1;
nodes = (
"295 861 LINE SMOOTH",
"296 880 OFFCURVE",
"305 889 OFFCURVE",
"322 889 CURVE SMOOTH",
"381 884 LINE SMOOTH",
"397 883 OFFCURVE",
"406 873 OFFCURVE",
"405 854 CURVE SMOOTH",
"373 74 LINE SMOOTH",
"365 -132 OFFCURVE",
"293 -205 OFFCURVE",
"129 -209 CURVE",
"93 -205 LINE SMOOTH",
"76 -203 OFFCURVE",
"68 -192 OFFCURVE",
"67 -175 CURVE SMOOTH",
"66 -47 LINE SMOOTH",
"66 -26 OFFCURVE",
"77 -16 OFFCURVE",
"95 -21 CURVE SMOOTH",
"104 -23 LINE SMOOTH",
"115 -26 OFFCURVE",
"122 -27 OFFCURVE",
"135 -26 CURVE SMOOTH",
"216 -15 OFFCURVE",
"249 36 OFFCURVE",
"253 81 CURVE SMOOTH"
);
}
);
width = 471;
}
);
unicode = 004A;
},
{
color = 6;
glyphname = K;
lastChange = "2015-04-18 15:15:14 +0000";
layers = (
{
anchors = (
{
name = bottom;
position = "{390, 0}";
},
{
name = top;
position = "{390, 729}";
}
);
layerId = "6B6936E6-7670-4A82-900D-EAF583C971AF";
paths = (
{
closed = 1;
nodes = (
"95 832 LINE SMOOTH",
"95 851 OFFCURVE",
"105 860 OFFCURVE",
"124 860 CURVE SMOOTH",
"183 860 LINE SMOOTH",
"202 860 OFFCURVE",
"211 850 OFFCURVE",
"211 831 CURVE SMOOTH",
"202 546 LINE SMOOTH",
"200 520 OFFCURVE",
"218 513 OFFCURVE",
"237 531 CURVE SMOOTH",
"571 846 LINE SMOOTH",
"583 857 OFFCURVE",
"592 860 OFFCURVE",
"608 860 CURVE SMOOTH",
"684 860 LINE SMOOTH",
"711 860 OFFCURVE",
"717 843 OFFCURVE",
"698 825 CURVE SMOOTH",
"330 479 LINE SMOOTH",
"317 466 OFFCURVE",
"317 452 OFFCURVE",
"330 439 CURVE SMOOTH",
"731 35 LINE SMOOTH",
"749 18 OFFCURVE",
"742 0 OFFCURVE",
"716 0 CURVE SMOOTH",
"514 0 LINE SMOOTH",
"499 0 OFFCURVE",
"488 5 OFFCURVE",
"480 18 CURVE SMOOTH",
"238 361 LINE SMOOTH",
"222 383 OFFCURVE",
"203 376 OFFCURVE",
"204 348 CURVE SMOOTH",
"222 29 LINE SMOOTH",
"223 11 OFFCURVE",
"213 0 OFFCURVE",
"195 0 CURVE SMOOTH",
"101 0 LINE SMOOTH",
"82 0 OFFCURVE",
"73 11 OFFCURVE",
"73 29 CURVE SMOOTH"
);
}
);
width = 814.02;
},
{
anchors = (
{
name = bottom;
position = "{448, 0}";
},
{
name = top;
position = "{448, 751}";
}
);
layerId = "285E899F-63D1-4687-98EA-700375B8DCD4";
paths = (
{
closed = 1;
nodes = (
"109 857 LINE SMOOTH",
"109 877 OFFCURVE",
"121 886 OFFCURVE",
"143 886 CURVE SMOOTH",
"210 886 LINE SMOOTH",
"232 886 OFFCURVE",
"243 876 OFFCURVE",
"243 856 CURVE SMOOTH",
"232 562 LINE SMOOTH",
"230 536 OFFCURVE",
"251 528 OFFCURVE",
"273 547 CURVE SMOOTH",
"657 871 LINE SMOOTH",
"670 883 OFFCURVE",
"681 886 OFFCURVE",
"699 886 CURVE SMOOTH",
"787 886 LINE SMOOTH",
"818 886 OFFCURVE",
"825 868 OFFCURVE",
"803 850 CURVE SMOOTH",
"379 493 LINE SMOOTH",
"365 480 OFFCURVE",
"365 466 OFFCURVE",
"379 452 CURVE SMOOTH",
"841 36 LINE SMOOTH",
"861 19 OFFCURVE",
"853 0 OFFCURVE",
"823 0 CURVE SMOOTH",
"591 0 LINE SMOOTH",
"574 0 OFFCURVE",
"561 5 OFFCURVE",
"552 19 CURVE SMOOTH",
"274 372 LINE SMOOTH",
"255 394 OFFCURVE",
"233 387 OFFCURVE",
"235 358 CURVE SMOOTH",
"255 30 LINE SMOOTH",
"256 11 OFFCURVE",
"245 0 OFFCURVE",
"224 0 CURVE SMOOTH",
"116 0 LINE SMOOTH",
"94 0 OFFCURVE",
"84 11 OFFCURVE",
"84 30 CURVE SMOOTH"
);
}
);
width = 936;
},
{
anchors = (
{
name = bottom;
position = "{351, 0}";
},
{
name = top;
position = "{351, 722}";
}
);
layerId = "0964CBBB-CC62-4658-9513-E390A08878CC";
paths = (
{
closed = 1;
nodes = (
"86 824 LINE SMOOTH",
"86 842 OFFCURVE",
"95 851 OFFCURVE",
"112 851 CURVE SMOOTH",
"165 851 LINE SMOOTH",
"182 851 OFFCURVE",
"190 842 OFFCURVE",
"190 823 CURVE SMOOTH",
"182 541 LINE SMOOTH",
"180 515 OFFCURVE",
"196 508 OFFCURVE",
"213 526 CURVE SMOOTH",
"514 838 LINE SMOOTH",
"525 848 OFFCURVE",
"533 851 OFFCURVE",
"547 851 CURVE SMOOTH",
"616 851 LINE SMOOTH",
"640 851 OFFCURVE",
"645 835 OFFCURVE",
"628 817 CURVE SMOOTH",
"297 474 LINE SMOOTH",
"285 461 OFFCURVE",
"285 447 OFFCURVE",
"297 435 CURVE SMOOTH",
"658 35 LINE SMOOTH",
"674 18 OFFCURVE",
"668 0 OFFCURVE",
"644 0 CURVE SMOOTH",
"463 0 LINE SMOOTH",
"449 0 OFFCURVE",
"439 5 OFFCURVE",
"432 18 CURVE SMOOTH",
"214 357 LINE SMOOTH",
"200 379 OFFCURVE",
"183 372 OFFCURVE",
"184 345 CURVE SMOOTH",
"200 29 LINE SMOOTH",
"201 11 OFFCURVE",
"192 0 OFFCURVE",
"176 0 CURVE SMOOTH",
"91 0 LINE SMOOTH",
"74 0 OFFCURVE",
"66 11 OFFCURVE",
"66 29 CURVE SMOOTH"
);
}
);
width = 733;
}
);
unicode = 004B;
},
{
color = 6;
glyphname = L;
lastChange = "2015-04-18 15:15:14 +0000";
layers = (
{
anchors = (
{
name = "_ circumflexbelowcomb";
position = "{332, 0}";
},
{
name = top;
position = "{192, 729}";
}
);
layerId = "6B6936E6-7670-4A82-900D-EAF583C971AF";
paths = (
{
closed = 1;
nodes = (
"84 832 LINE SMOOTH",
"84 851 OFFCURVE",
"94 860 OFFCURVE",
"113 860 CURVE SMOOTH",
"172 860 LINE SMOOTH",
"191 860 OFFCURVE",
"202 850 OFFCURVE",
"202 832 CURVE SMOOTH",
"195 234 LINE SMOOTH",
"195 215 OFFCURVE",
"205 204 OFFCURVE",
"223 204 CURVE SMOOTH",
"607 204 LINE SMOOTH",
"627 204 OFFCURVE",
"636 195 OFFCURVE",
"635 175 CURVE SMOOTH",
"627 27 LINE SMOOTH",
"625 9 OFFCURVE",
"616 0 OFFCURVE",
"598 0 CURVE SMOOTH",
"101 0 LINE SMOOTH",
"83 0 OFFCURVE",
"73 11 OFFCURVE",
"73 28 CURVE SMOOTH"
);
}
);
width = 708.075;
},
{
anchors = (
{
name = "_ circumflexbelowcomb";
position = "{382, 0}";
},
{
name = top;
position = "{221, 751}";
}
);
layerId = "285E899F-63D1-4687-98EA-700375B8DCD4";
paths = (
{
closed = 1;
nodes = (
"97 857 LINE SMOOTH",
"97 877 OFFCURVE",
"108 886 OFFCURVE",
"130 886 CURVE SMOOTH",
"198 886 LINE SMOOTH",
"220 886 OFFCURVE",
"232 876 OFFCURVE",
"232 857 CURVE SMOOTH",
"224 241 LINE SMOOTH",
"224 221 OFFCURVE",
"236 210 OFFCURVE",
"256 210 CURVE SMOOTH",
"698 210 LINE SMOOTH",
"721 210 OFFCURVE",
"731 201 OFFCURVE",
"730 180 CURVE SMOOTH",
"721 28 LINE SMOOTH",
"719 9 OFFCURVE",
"708 0 OFFCURVE",
"688 0 CURVE SMOOTH",
"116 0 LINE SMOOTH",
"95 0 OFFCURVE",
"84 11 OFFCURVE",
"84 29 CURVE SMOOTH"
);
}
);
width = 814;
},
{
anchors = (
{
name = "_ circumflexbelowcomb";
position = "{299, 0}";
},
{
name = top;
position = "{173, 722}";
}
);
layerId = "0964CBBB-CC62-4658-9513-E390A08878CC";
paths = (
{
closed = 1;
nodes = (
"76 824 LINE SMOOTH",
"76 842 OFFCURVE",
"85 851 OFFCURVE",
"102 851 CURVE SMOOTH",
"155 851 LINE SMOOTH",
"172 851 OFFCURVE",
"182 842 OFFCURVE",
"182 824 CURVE SMOOTH",
"176 232 LINE SMOOTH",
"176 213 OFFCURVE",
"185 202 OFFCURVE",
"201 202 CURVE SMOOTH",
"546 202 LINE SMOOTH",
"564 202 OFFCURVE",
"572 193 OFFCURVE",
"572 173 CURVE SMOOTH",
"564 27 LINE SMOOTH",
"563 9 OFFCURVE",
"554 0 OFFCURVE",
"538 0 CURVE SMOOTH",
"91 0 LINE SMOOTH",
"75 0 OFFCURVE",
"66 11 OFFCURVE",
"66 28 CURVE SMOOTH"
);
}
);
width = 637;
}
);
unicode = 004C;
},
{
color = 6;
glyphname = M;
lastChange = "2015-04-18 15:15:13 +0000";
layers = (
{
anchors = (
{
name = _top;
position = "{448, 663}";
}
);
layerId = "6B6936E6-7670-4A82-900D-EAF583C971AF";
paths = (
{
closed = 1;
nodes = (
"115 832 LINE SMOOTH",
"116 851 OFFCURVE",
"125 860 OFFCURVE",
"144 860 CURVE SMOOTH",
"264 860 LINE SMOOTH",
"282 860 OFFCURVE",
"292 853 OFFCURVE",
"298 838 CURVE SMOOTH",
"455 394 LINE SMOOTH",
"463 371 OFFCURVE",
"485 371 OFFCURVE",
"493 394 CURVE SMOOTH",
"662 838 LINE SMOOTH",
"667 853 OFFCURVE",
"679 860 OFFCURVE",
"695 860 CURVE SMOOTH",
"804 860 LINE SMOOTH",
"823 860 OFFCURVE",
"833 851 OFFCURVE",
"834 832 CURVE SMOOTH",
"876 29 LINE SMOOTH",
"878 11 OFFCURVE",
"866 0 OFFCURVE",
"847 0 CURVE SMOOTH",
"747 0 LINE SMOOTH",
"728 0 OFFCURVE",
"718 11 OFFCURVE",
"718 29 CURVE SMOOTH",
"710 647 LINE SMOOTH",
"710 671 OFFCURVE",
"685 676 OFFCURVE",
"679 653 CURVE SMOOTH",
"552 149 LINE SMOOTH",
"548 132 OFFCURVE",
"535 125 OFFCURVE",
"519 125 CURVE SMOOTH",
"429 125 LINE SMOOTH",
"411 125 OFFCURVE",
"400 132 OFFCURVE",
"396 149 CURVE SMOOTH",
"269 653 LINE SMOOTH",
"263 676 OFFCURVE",
"238 671 OFFCURVE",
"238 647 CURVE SMOOTH",
"230 29 LINE SMOOTH",
"230 11 OFFCURVE",
"220 0 OFFCURVE",
"201 0 CURVE SMOOTH",
"101 0 LINE SMOOTH",
"82 0 OFFCURVE",
"72 11 OFFCURVE",
"73 29 CURVE SMOOTH"
);
}
);
width = 949.217;
},
{
anchors = (
{
name = _top;
position = "{515, 683}";
}
);
layerId = "285E899F-63D1-4687-98EA-700375B8DCD4";
paths = (
{
closed = 1;
nodes = (
"132 857 LINE SMOOTH",
"133 877 OFFCURVE",
"144 886 OFFCURVE",
"166 886 CURVE SMOOTH",
"304 886 LINE SMOOTH",
"324 886 OFFCURVE",
"336 879 OFFCURVE",
"343 863 CURVE SMOOTH",
"523 406 LINE SMOOTH",
"532 382 OFFCURVE",
"558 382 OFFCURVE",
"567 406 CURVE SMOOTH",
"761 863 LINE SMOOTH",
"767 879 OFFCURVE",
"781 886 OFFCURVE",
"799 886 CURVE SMOOTH",
"925 886 LINE SMOOTH",
"946 886 OFFCURVE",
"958 877 OFFCURVE",
"959 857 CURVE SMOOTH",
"1007 30 LINE SMOOTH",
"1010 11 OFFCURVE",
"996 0 OFFCURVE",
"974 0 CURVE SMOOTH",
"859 0 LINE SMOOTH",
"837 0 OFFCURVE",
"826 11 OFFCURVE",
"826 30 CURVE SMOOTH",
"816 666 LINE SMOOTH",
"816 691 OFFCURVE",
"788 696 OFFCURVE",
"781 673 CURVE SMOOTH",
"635 153 LINE SMOOTH",
"630 136 OFFCURVE",
"615 129 OFFCURVE",
"597 129 CURVE SMOOTH",
"493 129 LINE SMOOTH",
"473 129 OFFCURVE",
"460 136 OFFCURVE",
"455 153 CURVE SMOOTH",
"309 673 LINE SMOOTH",
"302 696 OFFCURVE",
"274 691 OFFCURVE",
"274 666 CURVE SMOOTH",
"265 30 LINE SMOOTH",
"265 11 OFFCURVE",
"253 0 OFFCURVE",
"231 0 CURVE SMOOTH",
"116 0 LINE SMOOTH",
"94 0 OFFCURVE",
"83 11 OFFCURVE",
"84 30 CURVE SMOOTH"
);
}
);
width = 1091;
},
{
anchors = (
{
name = _top;
position = "{403, 656}";
}
);
layerId = "0964CBBB-CC62-4658-9513-E390A08878CC";
paths = (
{
closed = 1;
nodes = (
"104 824 LINE SMOOTH",
"104 842 OFFCURVE",
"113 851 OFFCURVE",
"130 851 CURVE SMOOTH",
"238 851 LINE SMOOTH",
"254 851 OFFCURVE",
"263 844 OFFCURVE",
"268 830 CURVE SMOOTH",
"410 390 LINE SMOOTH",
"417 367 OFFCURVE",
"437 367 OFFCURVE",
"444 390 CURVE SMOOTH",
"596 830 LINE SMOOTH",
"600 844 OFFCURVE",
"611 851 OFFCURVE",
"626 851 CURVE SMOOTH",
"724 851 LINE SMOOTH",
"741 851 OFFCURVE",
"750 842 OFFCURVE",
"751 824 CURVE SMOOTH",
"788 29 LINE SMOOTH",
"790 11 OFFCURVE",
"779 0 OFFCURVE",
"762 0 CURVE SMOOTH",
"672 0 LINE SMOOTH",
"655 0 OFFCURVE",
"646 11 OFFCURVE",
"646 29 CURVE SMOOTH",
"639 641 LINE SMOOTH",
"639 664 OFFCURVE",
"617 669 OFFCURVE",
"611 646 CURVE SMOOTH",
"497 148 LINE SMOOTH",
"493 131 OFFCURVE",
"482 124 OFFCURVE",
"467 124 CURVE SMOOTH",
"386 124 LINE SMOOTH",
"370 124 OFFCURVE",
"360 131 OFFCURVE",
"356 148 CURVE SMOOTH",
"242 646 LINE SMOOTH",
"237 669 OFFCURVE",
"214 664 OFFCURVE",
"214 641 CURVE SMOOTH",
"207 29 LINE SMOOTH",
"207 11 OFFCURVE",
"198 0 OFFCURVE",
"181 0 CURVE SMOOTH",
"91 0 LINE SMOOTH",
"74 0 OFFCURVE",
"65 11 OFFCURVE",
"66 29 CURVE SMOOTH"
);
}
);
width = 854;
}
);
unicode = 004D;
},
{
color = 6;
glyphname = N;
lastChange = "2015-04-18 15:15:13 +0000";
layers = (
{
anchors = (
{
name = _;
position = "{420, 0}";
},
{
name = top;
position = "{420, 729}";
}
);
layerId = "6B6936E6-7670-4A82-900D-EAF583C971AF";
paths = (
{
closed = 1;
nodes = (
"106 814 LINE SMOOTH",
"107 833 OFFCURVE",
"117 843 OFFCURVE",
"135 843 CURVE SMOOTH",
"229 843 LINE SMOOTH",
"245 843 OFFCURVE",
"256 837 OFFCURVE",
"263 822 CURVE SMOOTH",
"589 224 LINE SMOOTH",
"603 199 OFFCURVE",
"623 204 OFFCURVE",
"624 232 CURVE SMOOTH",
"639 832 LINE SMOOTH",
"639 851 OFFCURVE",
"649 860 OFFCURVE",
"668 860 CURVE SMOOTH",
"718 860 LINE SMOOTH",
"737 860 OFFCURVE",
"747 850 OFFCURVE",
"747 832 CURVE SMOOTH",
"747 28 LINE SMOOTH",
"747 11 OFFCURVE",
"736 0 OFFCURVE",
"718 0 CURVE SMOOTH",
"601 0 LINE SMOOTH",
"585 0 OFFCURVE",
"574 6 OFFCURVE",
"567 21 CURVE SMOOTH",
"235 649 LINE SMOOTH",
"220 675 OFFCURVE",
"200 669 OFFCURVE",
"201 640 CURVE SMOOTH",
"242 29 LINE SMOOTH",
"243 11 OFFCURVE",
"233 0 OFFCURVE",
"214 0 CURVE SMOOTH",
"101 0 LINE SMOOTH",
"82 0 OFFCURVE",
"72 11 OFFCURVE",
"73 29 CURVE SMOOTH"
);
}
);
width = 820;
},
{
anchors = (
{
name = _;
position = "{483, 0}";
},
{
name = top;
position = "{483, 751}";
}
);
layerId = "285E899F-63D1-4687-98EA-700375B8DCD4";
paths = (
{
closed = 1;
nodes = (
"122 838 LINE SMOOTH",
"123 858 OFFCURVE",
"135 868 OFFCURVE",
"155 868 CURVE SMOOTH",
"263 868 LINE SMOOTH",
"282 868 OFFCURVE",
"294 862 OFFCURVE",
"302 847 CURVE SMOOTH",
"677 231 LINE SMOOTH",
"693 205 OFFCURVE",
"716 210 OFFCURVE",
"718 239 CURVE SMOOTH",
"735 857 LINE SMOOTH",
"735 877 OFFCURVE",
"746 886 OFFCURVE",
"768 886 CURVE SMOOTH",
"826 886 LINE SMOOTH",
"848 886 OFFCURVE",
"859 876 OFFCURVE",
"859 857 CURVE SMOOTH",
"859 29 LINE SMOOTH",
"859 11 OFFCURVE",
"846 0 OFFCURVE",
"826 0 CURVE SMOOTH",
"691 0 LINE SMOOTH",
"673 0 OFFCURVE",
"660 6 OFFCURVE",
"652 22 CURVE SMOOTH",
"270 668 LINE SMOOTH",
"253 695 OFFCURVE",
"230 689 OFFCURVE",
"231 659 CURVE SMOOTH",
"278 30 LINE SMOOTH",
"279 11 OFFCURVE",
"268 0 OFFCURVE",
"246 0 CURVE SMOOTH",
"116 0 LINE SMOOTH",
"94 0 OFFCURVE",
"83 11 OFFCURVE",
"84 30 CURVE SMOOTH"
);
}
);
width = 943;
},
{
anchors = (
{
name = _;
position = "{378, 0}";
},
{
name = top;
position = "{378, 722}";
}
);
layerId = "0964CBBB-CC62-4658-9513-E390A08878CC";
paths = (
{
closed = 1;
nodes = (
"95 806 LINE SMOOTH",
"96 825 OFFCURVE",
"105 835 OFFCURVE",
"122 835 CURVE SMOOTH",
"206 835 LINE SMOOTH",
"221 835 OFFCURVE",
"230 829 OFFCURVE",
"237 814 CURVE SMOOTH",
"530 222 LINE SMOOTH",
"543 197 OFFCURVE",
"561 202 OFFCURVE",
"562 230 CURVE SMOOTH",
"575 824 LINE SMOOTH",
"575 842 OFFCURVE",
"584 851 OFFCURVE",
"601 851 CURVE SMOOTH",
"646 851 LINE SMOOTH",
"663 851 OFFCURVE",
"672 842 OFFCURVE",
"672 824 CURVE SMOOTH",
"672 28 LINE SMOOTH",
"672 11 OFFCURVE",
"662 0 OFFCURVE",
"646 0 CURVE SMOOTH",
"541 0 LINE SMOOTH",
"527 0 OFFCURVE",
"517 6 OFFCURVE",
"510 21 CURVE SMOOTH",
"212 643 LINE SMOOTH",
"198 668 OFFCURVE",
"180 662 OFFCURVE",
"181 634 CURVE SMOOTH",
"218 29 LINE SMOOTH",
"219 11 OFFCURVE",
"210 0 OFFCURVE",
"193 0 CURVE SMOOTH",
"91 0 LINE SMOOTH",
"74 0 OFFCURVE",
"65 11 OFFCURVE",
"66 29 CURVE SMOOTH"
);
}
);
width = 738;
}
);
unicode = 004E;
},
{
color = 6;
glyphname = O;
lastChange = "2015-04-18 15:15:13 +0000";
layers = (
{
anchors = (
{
name = hookabovecomb;
position = "{491, 905}";
},
{
name = horn;
position = "{776, 635}";
},
{
name = top;
position = "{466, 902}";
}
);
layerId = "6B6936E6-7670-4A82-900D-EAF583C971AF";
paths = (
{
closed = 1;
nodes = (
"297 784 OFFCURVE",
"190 649 OFFCURVE",
"190 432 CURVE SMOOTH",
"190 254 OFFCURVE",
"297 207 OFFCURVE",
"466 207 CURVE SMOOTH",
"635 207 OFFCURVE",
"741 254 OFFCURVE",
"741 432 CURVE SMOOTH",
"741 649 OFFCURVE",
"635 784 OFFCURVE",
"466 784 CURVE SMOOTH"
);
},
{
closed = 1;
nodes = (
"684 878 OFFCURVE",
"859 703 OFFCURVE",
"859 432 CURVE SMOOTH",
"859 161 OFFCURVE",
"684 -14 OFFCURVE",
"466 -14 CURVE SMOOTH",
"247 -14 OFFCURVE",
"73 159 OFFCURVE",
"73 432 CURVE SMOOTH",
"73 703 OFFCURVE",
"247 878 OFFCURVE",
"466 878 CURVE SMOOTH"
);
}
);
width = 932;
},
{
anchors = (
{
name = hookabovecomb;
position = "{565, 932}";
},
{
name = horn;
position = "{892, 654}";
},
{
name = top;
position = "{536, 929}";
}
);
layerId = "285E899F-63D1-4687-98EA-700375B8DCD4";
paths = (
{
closed = 1;
nodes = (
"342 808 OFFCURVE",
"218 668 OFFCURVE",
"218 445 CURVE SMOOTH",
"218 262 OFFCURVE",
"342 213 OFFCURVE",
"536 213 CURVE SMOOTH",
"730 213 OFFCURVE",
"852 262 OFFCURVE",
"852 445 CURVE SMOOTH",
"852 668 OFFCURVE",
"730 808 OFFCURVE",
"536 808 CURVE SMOOTH"
);
},
{
closed = 1;
nodes = (
"787 904 OFFCURVE",
"988 724 OFFCURVE",
"988 445 CURVE SMOOTH",
"988 166 OFFCURVE",
"787 -14 OFFCURVE",
"536 -14 CURVE SMOOTH",
"284 -14 OFFCURVE",
"84 164 OFFCURVE",
"84 445 CURVE SMOOTH",
"84 724 OFFCURVE",
"284 904 OFFCURVE",
"536 904 CURVE SMOOTH"
);
}
);
width = 1072;
},
{
anchors = (
{
name = hookabovecomb;
position = "{442, 896}";
},
{
name = horn;
position = "{698, 629}";
},
{
name = top;
position = "{419, 893}";
}
);
layerId = "0964CBBB-CC62-4658-9513-E390A08878CC";
paths = (
{
closed = 1;
nodes = (
"267 776 OFFCURVE",
"171 643 OFFCURVE",
"171 428 CURVE SMOOTH",
"171 251 OFFCURVE",
"267 205 OFFCURVE",
"419 205 CURVE SMOOTH",
"572 205 OFFCURVE",
"667 251 OFFCURVE",
"667 428 CURVE SMOOTH",
"667 643 OFFCURVE",
"572 776 OFFCURVE",
"419 776 CURVE SMOOTH"
);
},
{
closed = 1;
nodes = (
"616 869 OFFCURVE",
"773 696 OFFCURVE",
"773 428 CURVE SMOOTH",
"773 159 OFFCURVE",
"616 -14 OFFCURVE",
"419 -14 CURVE SMOOTH",
"222 -14 OFFCURVE",
"66 157 OFFCURVE",
"66 428 CURVE SMOOTH",
"66 696 OFFCURVE",
"222 869 OFFCURVE",
"419 869 CURVE SMOOTH"
);
}
);
width = 839;
}
);
unicode = 004F;
},
{
color = 6;
glyphname = P;
lastChange = "2015-04-18 15:15:13 +0000";
layers = (
{
layerId = "6B6936E6-7670-4A82-900D-EAF583C971AF";
paths = (
{
closed = 1;
nodes = (
"269 782 LINE SMOOTH",
"250 782 OFFCURVE",
"240 773 OFFCURVE",
"239 754 CURVE SMOOTH",
"230 533 LINE SMOOTH",
"229 514 OFFCURVE",
"239 504 OFFCURVE",
"258 504 CURVE SMOOTH",
"387 504 LINE SMOOTH",
"502 504 OFFCURVE",
"568 524 OFFCURVE",
"568 649 CURVE SMOOTH",
"568 725 OFFCURVE",
"502 782 OFFCURVE",
"387 782 CURVE SMOOTH"
);
},
{
closed = 1;
nodes = (
"117 832 LINE SMOOTH",
"118 851 OFFCURVE",
"128 860 OFFCURVE",
"146 860 CURVE SMOOTH",
"375 860 LINE SMOOTH",
"568 860 OFFCURVE",
"668 772 OFFCURVE",
"668 603 CURVE SMOOTH",
"668 433 OFFCURVE",
"568 334 OFFCURVE",
"375 334 CURVE SMOOTH",
"263 334 LINE SMOOTH",
"244 334 OFFCURVE",
"233 324 OFFCURVE",
"233 306 CURVE SMOOTH",
"236 28 LINE SMOOTH",
"236 9 OFFCURVE",
"225 0 OFFCURVE",
"206 0 CURVE SMOOTH",
"101 0 LINE SMOOTH",
"82 0 OFFCURVE",
"72 11 OFFCURVE",
"73 29 CURVE SMOOTH"
);
}
);
width = 741;
},
{
layerId = "285E899F-63D1-4687-98EA-700375B8DCD4";
paths = (
{
closed = 1;
nodes = (
"309 805 LINE SMOOTH",
"288 805 OFFCURVE",
"276 796 OFFCURVE",
"275 777 CURVE SMOOTH",
"265 549 LINE SMOOTH",
"263 529 OFFCURVE",
"275 519 OFFCURVE",
"297 519 CURVE SMOOTH",
"445 519 LINE SMOOTH",
"577 519 OFFCURVE",
"653 540 OFFCURVE",
"653 668 CURVE SMOOTH",
"653 747 OFFCURVE",
"577 805 OFFCURVE",
"445 805 CURVE SMOOTH"
);
},
{
closed = 1;
nodes = (
"135 857 LINE SMOOTH",
"136 877 OFFCURVE",
"147 886 OFFCURVE",
"168 886 CURVE SMOOTH",
"431 886 LINE SMOOTH",
"653 886 OFFCURVE",
"768 795 OFFCURVE",
"768 621 CURVE SMOOTH",
"768 446 OFFCURVE",
"653 344 OFFCURVE",
"431 344 CURVE SMOOTH",
"302 344 LINE SMOOTH",
"281 344 OFFCURVE",
"268 334 OFFCURVE",
"268 315 CURVE SMOOTH",
"271 29 LINE SMOOTH",
"271 9 OFFCURVE",
"259 0 OFFCURVE",
"237 0 CURVE SMOOTH",
"116 0 LINE SMOOTH",
"94 0 OFFCURVE",
"83 11 OFFCURVE",
"84 30 CURVE SMOOTH"
);
}
);
width = 852;
},
{
layerId = "0964CBBB-CC62-4658-9513-E390A08878CC";
paths = (
{
closed = 1;
nodes = (
"242 774 LINE SMOOTH",
"225 774 OFFCURVE",
"216 765 OFFCURVE",
"215 746 CURVE SMOOTH",
"207 528 LINE SMOOTH",
"206 509 OFFCURVE",
"215 499 OFFCURVE",
"232 499 CURVE SMOOTH",
"348 499 LINE SMOOTH",
"452 499 OFFCURVE",
"511 519 OFFCURVE",
"511 643 CURVE SMOOTH",
"511 718 OFFCURVE",
"452 774 OFFCURVE",
"348 774 CURVE SMOOTH"
);
},
{
closed = 1;
nodes = (
"105 824 LINE SMOOTH",
"106 842 OFFCURVE",
"115 851 OFFCURVE",
"131 851 CURVE SMOOTH",
"338 851 LINE SMOOTH",
"511 851 OFFCURVE",
"601 764 OFFCURVE",
"601 597 CURVE SMOOTH",
"601 429 OFFCURVE",
"511 331 OFFCURVE",
"338 331 CURVE SMOOTH",
"237 331 LINE SMOOTH",
"220 331 OFFCURVE",
"210 321 OFFCURVE",
"210 303 CURVE SMOOTH",
"212 28 LINE SMOOTH",
"212 9 OFFCURVE",
"203 0 OFFCURVE",
"185 0 CURVE SMOOTH",
"91 0 LINE SMOOTH",
"74 0 OFFCURVE",
"65 11 OFFCURVE",
"66 29 CURVE SMOOTH"
);
}
);
width = 667;
}
);
unicode = 0050;
},
{
color = 6;
glyphname = Q;
lastChange = "2015-04-18 15:15:14 +0000";
layers = (
{
layerId = "6B6936E6-7670-4A82-900D-EAF583C971AF";
paths = (
{
closed = 1;
nodes = (
"297 804 OFFCURVE",
"195 670 OFFCURVE",
"195 453 CURVE SMOOTH",
"195 275 OFFCURVE",
"294 254 OFFCURVE",
"363 246 CURVE",
"394 243 LINE SMOOTH",
"434 236 OFFCURVE",
"417 240 OFFCURVE",
"467 315 CURVE SMOOTH",
"476 330 OFFCURVE",
"489 334 OFFCURVE",
"506 325 CURVE SMOOTH",
"552 302 OFFCURVE",
"589 262 OFFCURVE",
"638 293 CURVE SMOOTH",
"698 334 OFFCURVE",
"712 370 OFFCURVE",
"712 453 CURVE SMOOTH",
"712 670 OFFCURVE",
"612 804 OFFCURVE",
"454 804 CURVE SMOOTH"
);
},
{
closed = 1;
nodes = (
"842 -94 LINE SMOOTH",
"860 -112 OFFCURVE",
"851 -129 OFFCURVE",
"827 -129 CURVE SMOOTH",
"640 -129 LINE SMOOTH",
"625 -129 OFFCURVE",
"614 -124 OFFCURVE",
"605 -112 CURVE SMOOTH",
"512 -7 LINE SMOOTH",
"501 4 OFFCURVE",
"490 8 OFFCURVE",
"474 8 CURVE SMOOTH",
"463 7 OFFCURVE",
"456 7 OFFCURVE",
"448 7 CURVE SMOOTH",
"214 7 OFFCURVE",
"73 181 OFFCURVE",
"73 453 CURVE SMOOTH",
"73 724 OFFCURVE",
"224 899 OFFCURVE",
"454 899 CURVE SMOOTH",
"684 899 OFFCURVE",
"835 724 OFFCURVE",
"835 453 CURVE SMOOTH",
"835 270 OFFCURVE",
"771 167 OFFCURVE",
"710 94 CURVE SMOOTH",
"698 80 OFFCURVE",
"698 67 OFFCURVE",
"711 53 CURVE SMOOTH"
);
}
);
width = 924.503;
},
{
layerId = "285E899F-63D1-4687-98EA-700375B8DCD4";
paths = (
{
closed = 1;
nodes = (
"342 828 OFFCURVE",
"224 690 OFFCURVE",
"224 467 CURVE SMOOTH",
"224 283 OFFCURVE",
"338 262 OFFCURVE",
"417 253 CURVE",
"453 250 LINE SMOOTH",
"499 243 OFFCURVE",
"480 247 OFFCURVE",
"537 324 CURVE SMOOTH",
"547 340 OFFCURVE",
"562 344 OFFCURVE",
"582 335 CURVE SMOOTH",
"635 311 OFFCURVE",
"677 270 OFFCURVE",
"734 302 CURVE SMOOTH",
"803 344 OFFCURVE",
"819 381 OFFCURVE",
"819 467 CURVE SMOOTH",
"819 690 OFFCURVE",
"704 828 OFFCURVE",
"522 828 CURVE SMOOTH"
);
},
{
closed = 1;
nodes = (
"968 -97 LINE SMOOTH",
"989 -115 OFFCURVE",
"979 -133 OFFCURVE",
"951 -133 CURVE SMOOTH",
"736 -133 LINE SMOOTH",
"719 -133 OFFCURVE",
"706 -128 OFFCURVE",
"696 -115 CURVE SMOOTH",
"589 -7 LINE SMOOTH",
"576 4 OFFCURVE",
"564 8 OFFCURVE",
"545 8 CURVE SMOOTH",
"532 7 OFFCURVE",
"524 7 OFFCURVE",
"515 7 CURVE SMOOTH",
"246 7 OFFCURVE",
"84 186 OFFCURVE",
"84 467 CURVE SMOOTH",
"84 746 OFFCURVE",
"258 926 OFFCURVE",
"522 926 CURVE SMOOTH",
"787 926 OFFCURVE",
"960 746 OFFCURVE",
"960 467 CURVE SMOOTH",
"960 278 OFFCURVE",
"887 172 OFFCURVE",
"816 97 CURVE SMOOTH",
"803 82 OFFCURVE",
"803 69 OFFCURVE",
"818 55 CURVE SMOOTH"
);
}
);
width = 1064;
},
{
layerId = "0964CBBB-CC62-4658-9513-E390A08878CC";
paths = (
{
closed = 1;
nodes = (
"267 796 OFFCURVE",
"176 663 OFFCURVE",
"176 448 CURVE SMOOTH",
"176 272 OFFCURVE",
"265 251 OFFCURVE",
"327 244 CURVE",
"355 241 LINE SMOOTH",
"391 234 OFFCURVE",
"375 238 OFFCURVE",
"420 312 CURVE SMOOTH",
"428 327 OFFCURVE",
"440 331 OFFCURVE",
"455 322 CURVE SMOOTH",
"497 299 OFFCURVE",
"530 259 OFFCURVE",
"574 290 CURVE SMOOTH",
"628 331 OFFCURVE",
"641 366 OFFCURVE",
"641 448 CURVE SMOOTH",
"641 663 OFFCURVE",
"551 796 OFFCURVE",
"409 796 CURVE SMOOTH"
);
},
{
closed = 1;
nodes = (
"758 -93 LINE SMOOTH",
"774 -111 OFFCURVE",
"766 -128 OFFCURVE",
"744 -128 CURVE SMOOTH",
"576 -128 LINE SMOOTH",
"563 -128 OFFCURVE",
"553 -123 OFFCURVE",
"545 -111 CURVE SMOOTH",
"461 -7 LINE SMOOTH",
"451 4 OFFCURVE",
"441 8 OFFCURVE",
"427 8 CURVE SMOOTH",
"417 7 OFFCURVE",
"410 7 OFFCURVE",
"403 7 CURVE SMOOTH",
"193 7 OFFCURVE",
"66 179 OFFCURVE",
"66 448 CURVE SMOOTH",
"66 717 OFFCURVE",
"202 890 OFFCURVE",
"409 890 CURVE SMOOTH",
"616 890 OFFCURVE",
"752 717 OFFCURVE",
"752 448 CURVE SMOOTH",
"752 267 OFFCURVE",
"694 165 OFFCURVE",
"639 93 CURVE SMOOTH",
"628 79 OFFCURVE",
"628 66 OFFCURVE",
"640 52 CURVE SMOOTH"
);
}
);
width = 833;
}
);
leftKerningGroup = Round;
unicode = 0051;
},
{
color = 6;
glyphname = R;
lastChange = "2015-04-18 15:15:13 +0000";
layers = (
{
anchors = (
{
name = bottom;
position = "{374, 0}";
},
{
name = top;
position = "{374, 729}";
}
);
layerId = "6B6936E6-7670-4A82-900D-EAF583C971AF";
paths = (
{
closed = 1;
nodes = (
"560 365 OFFCURVE",
"609 314 OFFCURVE",
"649 235 CURVE SMOOTH",
"749 34 LINE SMOOTH",
"760 14 OFFCURVE",
"752 0 OFFCURVE",
"729 0 CURVE SMOOTH",
"614 0 LINE SMOOTH",
"597 0 OFFCURVE",
"586 7 OFFCURVE",
"580 22 CURVE SMOOTH",
"503 221 LINE",
"446 336 OFFCURVE",
"402 363 OFFCURVE",
"310 363 CURVE SMOOTH",
"241 363 LINE SMOOTH",
"223 363 OFFCURVE",
"211 354 OFFCURVE",
"212 335 CURVE SMOOTH",
"236 28 LINE SMOOTH",
"237 11 OFFCURVE",
"226 0 OFFCURVE",
"208 0 CURVE SMOOTH",
"101 0 LINE SMOOTH",
"84 0 OFFCURVE",
"73 11 OFFCURVE",
"73 28 CURVE SMOOTH",
"85 832 LINE SMOOTH",
"85 851 OFFCURVE",
"94 860 OFFCURVE",
"113 860 CURVE SMOOTH",
"348 860 LINE SMOOTH",
"521 860 OFFCURVE",
"623 779 OFFCURVE",
"623 612 CURVE SMOOTH",
"623 517 OFFCURVE",
"585 450 OFFCURVE",
"521 415 CURVE SMOOTH",
"504 406 OFFCURVE",
"504 400 OFFCURVE",
"520 391 CURVE SMOOTH"
);
},
{
closed = 1;
nodes = (
"242 782 LINE SMOOTH",
"223 782 OFFCURVE",
"213 772 OFFCURVE",
"212 754 CURVE SMOOTH",
"201 532 LINE SMOOTH",
"199 513 OFFCURVE",
"211 504 OFFCURVE",
"230 504 CURVE SMOOTH",
"359 504 LINE SMOOTH",
"448 504 OFFCURVE",
"539 546 OFFCURVE",
"539 616 CURVE SMOOTH",
"539 747 OFFCURVE",
"448 782 OFFCURVE",
"359 782 CURVE SMOOTH"
);
}
);
width = 826.878;
},
{
anchors = (
{
name = bottom;
position = "{430, 0}";
},
{
name = top;
position = "{430, 751}";
}
);
layerId = "285E899F-63D1-4687-98EA-700375B8DCD4";
paths = (
{
closed = 1;
nodes = (
"644 376 OFFCURVE",
"700 323 OFFCURVE",
"746 242 CURVE SMOOTH",
"861 35 LINE SMOOTH",
"874 14 OFFCURVE",
"865 0 OFFCURVE",
"838 0 CURVE SMOOTH",
"706 0 LINE SMOOTH",
"687 0 OFFCURVE",
"674 7 OFFCURVE",
"667 23 CURVE SMOOTH",
"578 228 LINE",
"513 346 OFFCURVE",
"462 374 OFFCURVE",
"357 374 CURVE SMOOTH",
"277 374 LINE SMOOTH",
"256 374 OFFCURVE",
"243 365 OFFCURVE",
"244 345 CURVE SMOOTH",
"271 29 LINE SMOOTH",
"273 11 OFFCURVE",
"260 0 OFFCURVE",
"239 0 CURVE SMOOTH",
"116 0 LINE SMOOTH",
"97 0 OFFCURVE",
"84 11 OFFCURVE",
"84 29 CURVE SMOOTH",
"98 857 LINE SMOOTH",
"98 877 OFFCURVE",
"108 886 OFFCURVE",
"130 886 CURVE SMOOTH",
"400 886 LINE SMOOTH",
"599 886 OFFCURVE",
"716 802 OFFCURVE",
"716 630 CURVE SMOOTH",
"716 533 OFFCURVE",
"673 464 OFFCURVE",
"599 427 CURVE SMOOTH",
"580 418 OFFCURVE",
"580 412 OFFCURVE",
"598 403 CURVE SMOOTH"
);
},
{
closed = 1;
nodes = (
"278 805 LINE SMOOTH",
"256 805 OFFCURVE",
"245 795 OFFCURVE",
"244 777 CURVE SMOOTH",
"231 548 LINE SMOOTH",
"229 528 OFFCURVE",
"243 519 OFFCURVE",
"265 519 CURVE SMOOTH",
"413 519 LINE SMOOTH",
"515 519 OFFCURVE",
"620 562 OFFCURVE",
"620 634 CURVE SMOOTH",
"620 769 OFFCURVE",
"515 805 OFFCURVE",
"413 805 CURVE SMOOTH"
);
}
);
width = 951;
},
{
anchors = (
{
name = bottom;
position = "{337, 0}";
},
{
name = top;
position = "{337, 722}";
}
);
layerId = "0964CBBB-CC62-4658-9513-E390A08878CC";
paths = (
{
closed = 1;
nodes = (
"504 361 OFFCURVE",
"548 311 OFFCURVE",
"584 233 CURVE SMOOTH",
"674 34 LINE SMOOTH",
"684 14 OFFCURVE",
"677 0 OFFCURVE",
"656 0 CURVE SMOOTH",
"553 0 LINE SMOOTH",
"537 0 OFFCURVE",
"527 7 OFFCURVE",
"522 22 CURVE SMOOTH",
"453 219 LINE",
"401 333 OFFCURVE",
"362 359 OFFCURVE",
"279 359 CURVE SMOOTH",
"217 359 LINE SMOOTH",
"201 359 OFFCURVE",
"190 350 OFFCURVE",
"191 332 CURVE SMOOTH",
"212 28 LINE SMOOTH",
"213 11 OFFCURVE",
"203 0 OFFCURVE",
"187 0 CURVE SMOOTH",
"91 0 LINE SMOOTH",
"76 0 OFFCURVE",
"66 11 OFFCURVE",
"66 28 CURVE SMOOTH",
"77 824 LINE SMOOTH",
"77 842 OFFCURVE",
"85 851 OFFCURVE",
"102 851 CURVE SMOOTH",
"313 851 LINE SMOOTH",
"469 851 OFFCURVE",
"561 771 OFFCURVE",
"561 606 CURVE SMOOTH",
"561 512 OFFCURVE",
"527 446 OFFCURVE",
"469 411 CURVE SMOOTH",
"454 402 OFFCURVE",
"454 396 OFFCURVE",
"468 387 CURVE SMOOTH"
);
},
{
closed = 1;
nodes = (
"218 774 LINE SMOOTH",
"201 774 OFFCURVE",
"192 764 OFFCURVE",
"191 746 CURVE SMOOTH",
"181 527 LINE SMOOTH",
"179 508 OFFCURVE",
"190 499 OFFCURVE",
"207 499 CURVE SMOOTH",
"323 499 LINE SMOOTH",
"403 499 OFFCURVE",
"485 541 OFFCURVE",
"485 610 CURVE SMOOTH",
"485 740 OFFCURVE",
"403 774 OFFCURVE",
"323 774 CURVE SMOOTH"
);
}
);
width = 744;
}
);
unicode = 0052;
},
{
color = 6;
glyphname = S;
lastChange = "2015-04-18 15:15:13 +0000";
layers = (
{
anchors = (
{
name = bottom;
position = "{386, -8}";
},
{
name = top;
position = "{386, 848}";
}
);
layerId = "6B6936E6-7670-4A82-900D-EAF583C971AF";
paths = (
{
closed = 1;
nodes = (
"648 758 LINE SMOOTH",
"643 736 OFFCURVE",
"622 727 OFFCURVE",
"602 736 CURVE SMOOTH",
"528 768 OFFCURVE",
"473 785 OFFCURVE",
"410 785 CURVE SMOOTH",
"283 785 OFFCURVE",
"211 733 OFFCURVE",
"211 642 CURVE SMOOTH",
"211 567 OFFCURVE",
"248 532 OFFCURVE",
"375 509 CURVE SMOOTH",
"446 495 LINE SMOOTH",
"620 462 OFFCURVE",
"700 380 OFFCURVE",
"700 240 CURVE SMOOTH",
"700 73 OFFCURVE",
"587 -14 OFFCURVE",
"371 -14 CURVE SMOOTH",
"295 -14 OFFCURVE",
"187 1 OFFCURVE",
"98 32 CURVE SMOOTH",
"82 38 OFFCURVE",
"72 49 OFFCURVE",
"73 65 CURVE SMOOTH",
"85 209 LINE SMOOTH",
"87 231 OFFCURVE",
"100 240 OFFCURVE",
"120 229 CURVE SMOOTH",
"202 188 OFFCURVE",
"306 168 OFFCURVE",
"382 168 CURVE SMOOTH",
"530 168 OFFCURVE",
"555 236 OFFCURVE",
"555 272 CURVE SMOOTH",
"555 318 OFFCURVE",
"530 360 OFFCURVE",
"412 384 CURVE SMOOTH",
"341 398 LINE SMOOTH",
"168 432 OFFCURVE",
"93 502 OFFCURVE",
"93 633 CURVE SMOOTH",
"93 785 OFFCURVE",
"208 878 OFFCURVE",
"397 878 CURVE SMOOTH",
"470 878 OFFCURVE",
"557 866 OFFCURVE",
"636 841 CURVE SMOOTH",
"653 838 OFFCURVE",
"663 826 OFFCURVE",
"660 810 CURVE SMOOTH"
);
}
);
width = 773;
},
{
anchors = (
{
name = bottom;
position = "{444, -8}";
},
{
name = top;
position = "{444, 873}";
}
);
layerId = "285E899F-63D1-4687-98EA-700375B8DCD4";
paths = (
{
closed = 1;
nodes = (
"745 781 LINE SMOOTH",
"739 758 OFFCURVE",
"715 749 OFFCURVE",
"692 758 CURVE SMOOTH",
"607 791 OFFCURVE",
"544 809 OFFCURVE",
"471 809 CURVE SMOOTH",
"325 809 OFFCURVE",
"243 755 OFFCURVE",
"243 661 CURVE SMOOTH",
"243 584 OFFCURVE",
"285 548 OFFCURVE",
"431 524 CURVE SMOOTH",
"513 510 LINE SMOOTH",
"713 476 OFFCURVE",
"805 391 OFFCURVE",
"805 247 CURVE SMOOTH",
"805 75 OFFCURVE",
"675 -14 OFFCURVE",
"427 -14 CURVE SMOOTH",
"339 -14 OFFCURVE",
"215 1 OFFCURVE",
"113 33 CURVE SMOOTH",
"94 39 OFFCURVE",
"83 50 OFFCURVE",
"84 67 CURVE SMOOTH",
"98 215 LINE SMOOTH",
"100 238 OFFCURVE",
"115 247 OFFCURVE",
"138 236 CURVE SMOOTH",
"232 194 OFFCURVE",
"352 173 OFFCURVE",
"439 173 CURVE SMOOTH",
"610 173 OFFCURVE",
"638 243 OFFCURVE",
"638 280 CURVE SMOOTH",
"638 328 OFFCURVE",
"610 371 OFFCURVE",
"474 396 CURVE SMOOTH",
"392 410 LINE SMOOTH",
"193 445 OFFCURVE",
"107 517 OFFCURVE",
"107 652 CURVE SMOOTH",
"107 809 OFFCURVE",
"239 904 OFFCURVE",
"457 904 CURVE SMOOTH",
"541 904 OFFCURVE",
"641 892 OFFCURVE",
"731 866 CURVE SMOOTH",
"751 863 OFFCURVE",
"762 851 OFFCURVE",
"759 834 CURVE SMOOTH"
);
}
);
width = 889;
},
{
anchors = (
{
name = bottom;
position = "{347, -8}";
},
{
name = top;
position = "{347, 840}";
}
);
layerId = "0964CBBB-CC62-4658-9513-E390A08878CC";
paths = (
{
closed = 1;
nodes = (
"583 750 LINE SMOOTH",
"579 729 OFFCURVE",
"560 720 OFFCURVE",
"542 729 CURVE SMOOTH",
"475 760 OFFCURVE",
"426 777 OFFCURVE",
"369 777 CURVE SMOOTH",
"255 777 OFFCURVE",
"190 726 OFFCURVE",
"190 636 CURVE SMOOTH",
"190 561 OFFCURVE",
"223 527 OFFCURVE",
"338 504 CURVE SMOOTH",
"401 490 LINE SMOOTH",
"558 457 OFFCURVE",
"630 376 OFFCURVE",
"630 238 CURVE SMOOTH",
"630 72 OFFCURVE",
"528 -14 OFFCURVE",
"334 -14 CURVE SMOOTH",
"266 -14 OFFCURVE",
"168 1 OFFCURVE",
"88 32 CURVE SMOOTH",
"74 38 OFFCURVE",
"65 49 OFFCURVE",
"66 64 CURVE SMOOTH",
"77 207 LINE SMOOTH",
"78 229 OFFCURVE",
"90 238 OFFCURVE",
"108 227 CURVE SMOOTH",
"182 186 OFFCURVE",
"275 166 OFFCURVE",
"344 166 CURVE SMOOTH",
"477 166 OFFCURVE",
"500 234 OFFCURVE",
"500 269 CURVE SMOOTH",
"500 315 OFFCURVE",
"477 356 OFFCURVE",
"371 380 CURVE SMOOTH",
"307 394 LINE SMOOTH",
"151 428 OFFCURVE",
"84 497 OFFCURVE",
"84 627 CURVE SMOOTH",
"84 777 OFFCURVE",
"187 869 OFFCURVE",
"357 869 CURVE SMOOTH",
"423 869 OFFCURVE",
"501 857 OFFCURVE",
"572 833 CURVE SMOOTH",
"588 830 OFFCURVE",
"597 818 OFFCURVE",
"594 802 CURVE SMOOTH"
);
}
);
width = 696;
}
);
unicode = 0053;
},
{
color = 6;
glyphname = T;
lastChange = "2015-04-18 15:15:13 +0000";
layers = (
{
anchors = (
{
name = bottom;
position = "{426, 0}";
},
{
name = center;
position = "{452, 365}";
},
{
name = top;
position = "{452, 837}";
}
);
layerId = "6B6936E6-7670-4A82-900D-EAF583C971AF";
paths = (
{
closed = 1;
nodes = (
"73 832 LINE SMOOTH",
"73 851 OFFCURVE",
"83 860 OFFCURVE",
"102 860 CURVE SMOOTH",
"772 860 LINE SMOOTH",
"792 860 OFFCURVE",
"802 850 OFFCURVE",
"802 832 CURVE SMOOTH",
"802 792 LINE SMOOTH",
"802 773 OFFCURVE",
"791 762 OFFCURVE",
"772 763 CURVE SMOOTH",
"525 773 LINE SMOOTH",
"507 773 OFFCURVE",
"496 763 OFFCURVE",
"497 743 CURVE SMOOTH",
"525 29 LINE SMOOTH",
"527 11 OFFCURVE",
"517 0 OFFCURVE",
"498 0 CURVE SMOOTH",
"379 0 LINE SMOOTH",
"360 0 OFFCURVE",
"351 11 OFFCURVE",
"351 29 CURVE SMOOTH",
"378 743 LINE SMOOTH",
"378 763 OFFCURVE",
"368 773 OFFCURVE",
"350 773 CURVE SMOOTH",
"103 763 LINE SMOOTH",
"83 762 OFFCURVE",
"73 773 OFFCURVE",
"73 792 CURVE SMOOTH"
);
}
);
width = 875;
},
{
anchors = (
{
name = bottom;
position = "{490, 0}";
},
{
name = center;
position = "{520, 376}";
},
{
name = top;
position = "{520, 862}";
}
);
layerId = "285E899F-63D1-4687-98EA-700375B8DCD4";
paths = (
{
closed = 1;
nodes = (
"84 857 LINE SMOOTH",
"84 877 OFFCURVE",
"95 886 OFFCURVE",
"117 886 CURVE SMOOTH",
"888 886 LINE SMOOTH",
"911 886 OFFCURVE",
"922 876 OFFCURVE",
"922 857 CURVE SMOOTH",
"922 816 LINE SMOOTH",
"922 796 OFFCURVE",
"910 785 OFFCURVE",
"888 786 CURVE SMOOTH",
"604 796 LINE SMOOTH",
"583 796 OFFCURVE",
"570 786 OFFCURVE",
"572 765 CURVE SMOOTH",
"604 30 LINE SMOOTH",
"606 11 OFFCURVE",
"595 0 OFFCURVE",
"573 0 CURVE SMOOTH",
"436 0 LINE SMOOTH",
"414 0 OFFCURVE",
"404 11 OFFCURVE",
"404 30 CURVE SMOOTH",
"435 765 LINE SMOOTH",
"435 786 OFFCURVE",
"423 796 OFFCURVE",
"402 796 CURVE SMOOTH",
"118 786 LINE SMOOTH",
"95 785 OFFCURVE",
"84 796 OFFCURVE",
"84 816 CURVE SMOOTH"
);
}
);
width = 1006;
},
{
anchors = (
{
name = bottom;
position = "{383, 0}";
},
{
name = center;
position = "{407, 361}";
},
{
name = top;
position = "{407, 829}";
}
);
layerId = "0964CBBB-CC62-4658-9513-E390A08878CC";
paths = (
{
closed = 1;
nodes = (
"66 824 LINE SMOOTH",
"66 842 OFFCURVE",
"75 851 OFFCURVE",
"92 851 CURVE SMOOTH",
"695 851 LINE SMOOTH",
"713 851 OFFCURVE",
"722 842 OFFCURVE",
"722 824 CURVE SMOOTH",
"722 784 LINE SMOOTH",
"722 765 OFFCURVE",
"712 754 OFFCURVE",
"695 755 CURVE SMOOTH",
"473 765 LINE SMOOTH",
"456 765 OFFCURVE",
"446 755 OFFCURVE",
"447 736 CURVE SMOOTH",
"473 29 LINE SMOOTH",
"474 11 OFFCURVE",
"465 0 OFFCURVE",
"448 0 CURVE SMOOTH",
"341 0 LINE SMOOTH",
"324 0 OFFCURVE",
"316 11 OFFCURVE",
"316 29 CURVE SMOOTH",
"340 736 LINE SMOOTH",
"340 755 OFFCURVE",
"331 765 OFFCURVE",
"315 765 CURVE SMOOTH",
"93 755 LINE SMOOTH",
"75 754 OFFCURVE",
"66 765 OFFCURVE",
"66 784 CURVE SMOOTH"
);
}
);
width = 788;
}
);
unicode = 0054;
},
{
color = 6;
glyphname = U;
lastChange = "2015-04-18 15:15:13 +0000";
layers = (
{
anchors = (
{
name = hookabovecomb;
position = "{408, 867}";
},
{
name = horn;
position = "{710, 727}";
},
{
name = ogonek;
position = "{417, 3}";
},
{
name = top;
position = "{408, 863}";
}
);
layerId = "6B6936E6-7670-4A82-900D-EAF583C971AF";
paths = (
{
closed = 1;
nodes = (
"73 834 LINE SMOOTH",
"73 853 OFFCURVE",
"82 863 OFFCURVE",
"101 863 CURVE SMOOTH",
"167 863 LINE SMOOTH",
"186 863 OFFCURVE",
"196 852 OFFCURVE",
"196 833 CURVE SMOOTH",
"191 420 LINE SMOOTH",
"190 282 OFFCURVE",
"259 207 OFFCURVE",
"409 207 CURVE SMOOTH",
"558 207 OFFCURVE",
"627 282 OFFCURVE",
"626 420 CURVE SMOOTH",
"622 833 LINE SMOOTH",
"622 852 OFFCURVE",
"631 863 OFFCURVE",
"650 863 CURVE SMOOTH",
"715 863 LINE SMOOTH",
"734 863 OFFCURVE",
"743 852 OFFCURVE",
"743 834 CURVE SMOOTH",
"738 326 LINE SMOOTH",
"736 102 OFFCURVE",
"625 -14 OFFCURVE",
"409 -14 CURVE SMOOTH",
"192 -14 OFFCURVE",
"81 102 OFFCURVE",
"79 326 CURVE SMOOTH"
);
}
);
width = 816;
},
{
anchors = (
{
name = hookabovecomb;
position = "{469, 893}";
},
{
name = horn;
position = "{816, 749}";
},
{
name = ogonek;
position = "{480, 3}";
},
{
name = top;
position = "{469, 889}";
}
);
layerId = "285E899F-63D1-4687-98EA-700375B8DCD4";
paths = (
{
closed = 1;
nodes = (
"84 859 LINE SMOOTH",
"84 879 OFFCURVE",
"94 889 OFFCURVE",
"116 889 CURVE SMOOTH",
"192 889 LINE SMOOTH",
"214 889 OFFCURVE",
"225 878 OFFCURVE",
"225 858 CURVE SMOOTH",
"220 433 LINE SMOOTH",
"218 290 OFFCURVE",
"298 213 OFFCURVE",
"470 213 CURVE SMOOTH",
"642 213 OFFCURVE",
"721 290 OFFCURVE",
"720 433 CURVE SMOOTH",
"715 858 LINE SMOOTH",
"715 878 OFFCURVE",
"726 889 OFFCURVE",
"747 889 CURVE SMOOTH",
"822 889 LINE SMOOTH",
"844 889 OFFCURVE",
"854 878 OFFCURVE",
"854 859 CURVE SMOOTH",
"849 336 LINE SMOOTH",
"846 105 OFFCURVE",
"719 -14 OFFCURVE",
"470 -14 CURVE SMOOTH",
"221 -14 OFFCURVE",
"93 105 OFFCURVE",
"91 336 CURVE SMOOTH"
);
}
);
width = 938;
},
{
anchors = (
{
name = hookabovecomb;
position = "{367, 858}";
},
{
name = horn;
position = "{639, 720}";
},
{
name = ogonek;
position = "{375, 3}";
},
{
name = top;
position = "{367, 854}";
}
);
layerId = "0964CBBB-CC62-4658-9513-E390A08878CC";
paths = (
{
closed = 1;
nodes = (
"66 826 LINE SMOOTH",
"66 844 OFFCURVE",
"74 854 OFFCURVE",
"91 854 CURVE SMOOTH",
"150 854 LINE SMOOTH",
"167 854 OFFCURVE",
"176 843 OFFCURVE",
"176 825 CURVE SMOOTH",
"172 416 LINE SMOOTH",
"171 279 OFFCURVE",
"233 205 OFFCURVE",
"368 205 CURVE SMOOTH",
"502 205 OFFCURVE",
"564 279 OFFCURVE",
"563 416 CURVE SMOOTH",
"560 825 LINE SMOOTH",
"560 843 OFFCURVE",
"568 854 OFFCURVE",
"585 854 CURVE SMOOTH",
"644 854 LINE SMOOTH",
"661 854 OFFCURVE",
"669 843 OFFCURVE",
"669 826 CURVE SMOOTH",
"664 323 LINE SMOOTH",
"662 101 OFFCURVE",
"563 -14 OFFCURVE",
"368 -14 CURVE SMOOTH",
"173 -14 OFFCURVE",
"73 101 OFFCURVE",
"71 323 CURVE SMOOTH"
);
}
);
width = 734;
}
);
unicode = 0055;
},
{
color = 6;
glyphname = V;
lastChange = "2015-04-18 15:15:13 +0000";
layers = (
{
layerId = "6B6936E6-7670-4A82-900D-EAF583C971AF";
paths = (
{
closed = 1;
nodes = (
"360 0 LINE SMOOTH",
"343 0 OFFCURVE",
"331 7 OFFCURVE",
"327 24 CURVE SMOOTH",
"75 827 LINE SMOOTH",
"68 847 OFFCURVE",
"78 860 OFFCURVE",
"99 860 CURVE SMOOTH",
"162 860 LINE SMOOTH",
"178 860 OFFCURVE",
"189 853 OFFCURVE",
"195 838 CURVE SMOOTH",
"410 262 LINE SMOOTH",
"419 238 OFFCURVE",
"439 238 OFFCURVE",
"448 262 CURVE SMOOTH",
"665 838 LINE SMOOTH",
"670 853 OFFCURVE",
"682 860 OFFCURVE",
"698 860 CURVE SMOOTH",
"760 860 LINE SMOOTH",
"781 860 OFFCURVE",
"789 847 OFFCURVE",
"783 827 CURVE SMOOTH",
"533 24 LINE SMOOTH",
"527 7 OFFCURVE",
"517 0 OFFCURVE",
"500 0 CURVE SMOOTH"
);
}
);
width = 857.939;
},
{
layerId = "285E899F-63D1-4687-98EA-700375B8DCD4";
paths = (
{
closed = 1;
nodes = (
"414 0 LINE SMOOTH",
"394 0 OFFCURVE",
"381 7 OFFCURVE",
"376 25 CURVE SMOOTH",
"86 852 LINE SMOOTH",
"78 872 OFFCURVE",
"90 886 OFFCURVE",
"114 886 CURVE SMOOTH",
"186 886 LINE SMOOTH",
"205 886 OFFCURVE",
"217 879 OFFCURVE",
"224 863 CURVE SMOOTH",
"471 270 LINE SMOOTH",
"482 245 OFFCURVE",
"505 245 OFFCURVE",
"515 270 CURVE SMOOTH",
"765 863 LINE SMOOTH",
"770 879 OFFCURVE",
"784 886 OFFCURVE",
"803 886 CURVE SMOOTH",
"874 886 LINE SMOOTH",
"898 886 OFFCURVE",
"907 872 OFFCURVE",
"900 852 CURVE SMOOTH",
"613 25 LINE SMOOTH",
"606 7 OFFCURVE",
"595 0 OFFCURVE",
"575 0 CURVE SMOOTH"
);
}
);
width = 987;
},
{
layerId = "0964CBBB-CC62-4658-9513-E390A08878CC";
paths = (
{
closed = 1;
nodes = (
"324 0 LINE SMOOTH",
"309 0 OFFCURVE",
"298 7 OFFCURVE",
"294 24 CURVE SMOOTH",
"68 819 LINE SMOOTH",
"61 839 OFFCURVE",
"70 851 OFFCURVE",
"89 851 CURVE SMOOTH",
"146 851 LINE SMOOTH",
"160 851 OFFCURVE",
"170 844 OFFCURVE",
"176 830 CURVE SMOOTH",
"369 259 LINE SMOOTH",
"377 236 OFFCURVE",
"395 236 OFFCURVE",
"403 259 CURVE SMOOTH",
"599 830 LINE SMOOTH",
"603 844 OFFCURVE",
"614 851 OFFCURVE",
"628 851 CURVE SMOOTH",
"684 851 LINE SMOOTH",
"703 851 OFFCURVE",
"710 839 OFFCURVE",
"705 819 CURVE SMOOTH",
"480 24 LINE SMOOTH",
"474 7 OFFCURVE",
"465 0 OFFCURVE",
"450 0 CURVE SMOOTH"
);
}
);
width = 772;
}
);
unicode = 0056;
},
{
color = 6;
glyphname = W;
lastChange = "2015-04-18 15:15:13 +0000";
layers = (
{
anchors = (
{
name = top;
position = "{610, 729}";
}
);
layerId = "6B6936E6-7670-4A82-900D-EAF583C971AF";
paths = (
{
closed = 1;
nodes = (
"74 828 LINE SMOOTH",
"69 848 OFFCURVE",
"80 860 OFFCURVE",
"100 860 CURVE SMOOTH",
"154 860 LINE SMOOTH",
"171 860 OFFCURVE",
"180 852 OFFCURVE",
"186 835 CURVE SMOOTH",
"379 287 LINE SMOOTH",
"387 262 OFFCURVE",
"403 258 OFFCURVE",
"418 283 CURVE SMOOTH",
"545 523 LINE SMOOTH",
"552 537 OFFCURVE",
"564 543 OFFCURVE",
"579 543 CURVE SMOOTH",
"635 543 LINE SMOOTH",
"651 543 OFFCURVE",
"662 537 OFFCURVE",
"669 523 CURVE SMOOTH",
"783 280 LINE SMOOTH",
"795 255 OFFCURVE",
"810 256 OFFCURVE",
"821 282 CURVE SMOOTH",
"1045 835 LINE SMOOTH",
"1052 852 OFFCURVE",
"1061 860 OFFCURVE",
"1078 860 CURVE SMOOTH",
"1133 860 LINE SMOOTH",
"1153 860 OFFCURVE",
"1164 848 OFFCURVE",
"1159 828 CURVE SMOOTH",
"917 25 LINE SMOOTH",
"912 8 OFFCURVE",
"901 0 OFFCURVE",
"885 0 CURVE SMOOTH",
"764 0 LINE SMOOTH",
"748 0 OFFCURVE",
"738 7 OFFCURVE",
"731 22 CURVE SMOOTH",
"629 250 LINE SMOOTH",
"618 276 OFFCURVE",
"604 276 OFFCURVE",
"592 250 CURVE SMOOTH",
"485 21 LINE SMOOTH",
"478 6 OFFCURVE",
"467 0 OFFCURVE",
"451 0 CURVE SMOOTH",
"320 0 LINE SMOOTH",
"302 0 OFFCURVE",
"292 8 OFFCURVE",
"288 26 CURVE SMOOTH"
);
}
);
width = 1233.2;
},
{
anchors = (
{
name = top;
position = "{702, 751}";
}
);
layerId = "285E899F-63D1-4687-98EA-700375B8DCD4";
paths = (
{
closed = 1;
nodes = (
"85 853 LINE SMOOTH",
"79 873 OFFCURVE",
"92 886 OFFCURVE",
"115 886 CURVE SMOOTH",
"177 886 LINE SMOOTH",
"197 886 OFFCURVE",
"207 878 OFFCURVE",
"214 860 CURVE SMOOTH",
"436 296 LINE SMOOTH",
"445 270 OFFCURVE",
"463 266 OFFCURVE",
"481 291 CURVE SMOOTH",
"627 539 LINE SMOOTH",
"635 553 OFFCURVE",
"649 559 OFFCURVE",
"666 559 CURVE SMOOTH",
"730 559 LINE SMOOTH",
"749 559 OFFCURVE",
"761 553 OFFCURVE",
"769 539 CURVE SMOOTH",
"900 288 LINE SMOOTH",
"914 263 OFFCURVE",
"931 264 OFFCURVE",
"944 290 CURVE SMOOTH",
"1202 860 LINE SMOOTH",
"1210 878 OFFCURVE",
"1220 886 OFFCURVE",
"1240 886 CURVE SMOOTH",
"1303 886 LINE SMOOTH",
"1326 886 OFFCURVE",
"1339 873 OFFCURVE",
"1333 853 CURVE SMOOTH",
"1055 26 LINE SMOOTH",
"1049 8 OFFCURVE",
"1036 0 OFFCURVE",
"1018 0 CURVE SMOOTH",
"879 0 LINE SMOOTH",
"860 0 OFFCURVE",
"849 7 OFFCURVE",
"841 23 CURVE SMOOTH",
"723 258 LINE SMOOTH",
"711 284 OFFCURVE",
"695 284 OFFCURVE",
"681 258 CURVE SMOOTH",
"558 22 LINE SMOOTH",
"550 6 OFFCURVE",
"537 0 OFFCURVE",
"519 0 CURVE SMOOTH",
"368 0 LINE SMOOTH",
"347 0 OFFCURVE",
"336 8 OFFCURVE",
"331 27 CURVE SMOOTH"
);
}
);
width = 1418;
},
{
anchors = (
{
name = top;
position = "{549, 722}";
}
);
layerId = "0964CBBB-CC62-4658-9513-E390A08878CC";
paths = (
{
closed = 1;
nodes = (
"67 820 LINE SMOOTH",
"62 840 OFFCURVE",
"72 851 OFFCURVE",
"90 851 CURVE SMOOTH",
"139 851 LINE SMOOTH",
"154 851 OFFCURVE",
"162 843 OFFCURVE",
"167 827 CURVE SMOOTH",
"341 284 LINE SMOOTH",
"348 259 OFFCURVE",
"363 255 OFFCURVE",
"376 280 CURVE SMOOTH",
"491 518 LINE SMOOTH",
"497 532 OFFCURVE",
"508 538 OFFCURVE",
"521 538 CURVE SMOOTH",
"572 538 LINE SMOOTH",
"586 538 OFFCURVE",
"596 532 OFFCURVE",
"602 518 CURVE SMOOTH",
"705 277 LINE SMOOTH",
"716 252 OFFCURVE",
"729 253 OFFCURVE",
"739 279 CURVE SMOOTH",
"941 827 LINE SMOOTH",
"947 843 OFFCURVE",
"955 851 OFFCURVE",
"970 851 CURVE SMOOTH",
"1020 851 LINE SMOOTH",
"1038 851 OFFCURVE",
"1048 840 OFFCURVE",
"1043 820 CURVE SMOOTH",
"825 25 LINE SMOOTH",
"821 8 OFFCURVE",
"811 0 OFFCURVE",
"797 0 CURVE SMOOTH",
"688 0 LINE SMOOTH",
"673 0 OFFCURVE",
"664 7 OFFCURVE",
"658 22 CURVE SMOOTH",
"566 248 LINE SMOOTH",
"556 273 OFFCURVE",
"544 273 OFFCURVE",
"533 248 CURVE SMOOTH",
"437 21 LINE SMOOTH",
"430 6 OFFCURVE",
"420 0 OFFCURVE",
"406 0 CURVE SMOOTH",
"288 0 LINE SMOOTH",
"272 0 OFFCURVE",
"263 8 OFFCURVE",
"259 26 CURVE SMOOTH"
);
}
);
width = 1110;
}
);
unicode = 0057;
},
{
color = 6;
glyphname = X;
lastChange = "2015-04-18 15:15:13 +0000";
layers = (
{
layerId = "6B6936E6-7670-4A82-900D-EAF583C971AF";
paths = (
{
closed = 1;
nodes = (
"125 826 LINE SMOOTH",
"115 846 OFFCURVE",
"123 860 OFFCURVE",
"145 860 CURVE SMOOTH",
"208 860 LINE SMOOTH",
"224 860 OFFCURVE",
"235 854 OFFCURVE",
"243 840 CURVE SMOOTH",
"424 529 LINE SMOOTH",
"436 509 OFFCURVE",
"452 509 OFFCURVE",
"464 529 CURVE SMOOTH",
"646 840 LINE SMOOTH",
"654 854 OFFCURVE",
"665 860 OFFCURVE",
"681 860 CURVE SMOOTH",
"743 860 LINE SMOOTH",
"766 860 OFFCURVE",
"774 846 OFFCURVE",
"763 826 CURVE SMOOTH",
"531 421 LINE SMOOTH",
"523 406 OFFCURVE",
"522 395 OFFCURVE",
"532 381 CURVE SMOOTH",
"790 35 LINE SMOOTH",
"804 17 OFFCURVE",
"796 0 OFFCURVE",
"772 0 CURVE SMOOTH",
"637 0 LINE SMOOTH",
"621 0 OFFCURVE",
"610 6 OFFCURVE",
"602 20 CURVE SMOOTH",
"455 262 LINE SMOOTH",
"443 281 OFFCURVE",
"427 281 OFFCURVE",
"416 262 CURVE SMOOTH",
"267 20 LINE SMOOTH",
"259 6 OFFCURVE",
"248 0 OFFCURVE",
"232 0 CURVE SMOOTH",
"98 0 LINE SMOOTH",
"73 0 OFFCURVE",
"65 15 OFFCURVE",
"81 35 CURVE SMOOTH",
"347 382 LINE SMOOTH",
"357 395 OFFCURVE",
"358 408 OFFCURVE",
"350 422 CURVE SMOOTH"
);
}
);
width = 869.889;
},
{
layerId = "285E899F-63D1-4687-98EA-700375B8DCD4";
paths = (
{
closed = 1;
nodes = (
"144 851 LINE SMOOTH",
"132 871 OFFCURVE",
"141 886 OFFCURVE",
"167 886 CURVE SMOOTH",
"239 886 LINE SMOOTH",
"258 886 OFFCURVE",
"270 880 OFFCURVE",
"279 865 CURVE SMOOTH",
"488 545 LINE SMOOTH",
"501 524 OFFCURVE",
"520 524 OFFCURVE",
"534 545 CURVE SMOOTH",
"743 865 LINE SMOOTH",
"752 880 OFFCURVE",
"765 886 OFFCURVE",
"783 886 CURVE SMOOTH",
"854 886 LINE SMOOTH",
"881 886 OFFCURVE",
"890 871 OFFCURVE",
"877 851 CURVE SMOOTH",
"611 434 LINE SMOOTH",
"601 418 OFFCURVE",
"600 407 OFFCURVE",
"612 392 CURVE SMOOTH",
"908 36 LINE SMOOTH",
"925 18 OFFCURVE",
"915 0 OFFCURVE",
"888 0 CURVE SMOOTH",
"733 0 LINE SMOOTH",
"714 0 OFFCURVE",
"702 6 OFFCURVE",
"692 21 CURVE SMOOTH",
"523 270 LINE SMOOTH",
"509 289 OFFCURVE",
"491 289 OFFCURVE",
"478 270 CURVE SMOOTH",
"307 21 LINE SMOOTH",
"298 6 OFFCURVE",
"285 0 OFFCURVE",
"267 0 CURVE SMOOTH",
"113 0 LINE SMOOTH",
"84 0 OFFCURVE",
"75 15 OFFCURVE",
"93 36 CURVE SMOOTH",
"399 393 LINE SMOOTH",
"411 407 OFFCURVE",
"412 420 OFFCURVE",
"402 435 CURVE SMOOTH"
);
}
);
width = 1001;
},
{
layerId = "0964CBBB-CC62-4658-9513-E390A08878CC";
paths = (
{
closed = 1;
nodes = (
"113 818 LINE SMOOTH",
"104 838 OFFCURVE",
"111 851 OFFCURVE",
"131 851 CURVE SMOOTH",
"187 851 LINE SMOOTH",
"202 851 OFFCURVE",
"212 845 OFFCURVE",
"219 832 CURVE SMOOTH",
"382 524 LINE SMOOTH",
"392 504 OFFCURVE",
"407 504 OFFCURVE",
"418 524 CURVE SMOOTH",
"581 832 LINE SMOOTH",
"589 845 OFFCURVE",
"599 851 OFFCURVE",
"613 851 CURVE SMOOTH",
"669 851 LINE SMOOTH",
"689 851 OFFCURVE",
"697 838 OFFCURVE",
"687 818 CURVE SMOOTH",
"478 417 LINE SMOOTH",
"471 402 OFFCURVE",
"470 391 OFFCURVE",
"479 377 CURVE SMOOTH",
"711 35 LINE SMOOTH",
"724 17 OFFCURVE",
"716 0 OFFCURVE",
"695 0 CURVE SMOOTH",
"573 0 LINE SMOOTH",
"559 0 OFFCURVE",
"549 6 OFFCURVE",
"542 20 CURVE SMOOTH",
"410 259 LINE SMOOTH",
"399 278 OFFCURVE",
"384 278 OFFCURVE",
"374 259 CURVE SMOOTH",
"240 20 LINE SMOOTH",
"233 6 OFFCURVE",
"223 0 OFFCURVE",
"209 0 CURVE SMOOTH",
"88 0 LINE SMOOTH",
"66 0 OFFCURVE",
"59 15 OFFCURVE",
"73 35 CURVE SMOOTH",
"312 378 LINE SMOOTH",
"321 391 OFFCURVE",
"322 404 OFFCURVE",
"315 418 CURVE SMOOTH"
);
}
);
width = 783;
}
);
unicode = 0058;
},
{
color = 6;
glyphname = Y;
lastChange = "2015-04-18 15:15:14 +0000";
layers = (
{
anchors = (
{
name = hookabovecomb;
position = "{429, 709}";
},
{
name = top;
position = "{422, 817}";
}
);
layerId = "6B6936E6-7670-4A82-900D-EAF583C971AF";
paths = (
{
closed = 1;
nodes = (
"77 826 LINE SMOOTH",
"67 846 OFFCURVE",
"76 860 OFFCURVE",
"98 860 CURVE SMOOTH",
"163 860 LINE SMOOTH",
"178 860 OFFCURVE",
"189 854 OFFCURVE",
"196 840 CURVE SMOOTH",
"405 457 LINE SMOOTH",
"415 437 OFFCURVE",
"433 437 OFFCURVE",
"444 457 CURVE SMOOTH",
"650 840 LINE SMOOTH",
"657 854 OFFCURVE",
"668 860 OFFCURVE",
"683 860 CURVE SMOOTH",
"748 860 LINE SMOOTH",
"771 860 OFFCURVE",
"779 846 OFFCURVE",
"768 826 CURVE SMOOTH",
"508 312 LINE SMOOTH",
"502 299 OFFCURVE",
"498 289 OFFCURVE",
"499 275 CURVE SMOOTH",
"523 28 LINE SMOOTH",
"524 11 OFFCURVE",
"512 0 OFFCURVE",
"493 0 CURVE SMOOTH",
"347 0 LINE SMOOTH",
"328 0 OFFCURVE",
"315 9 OFFCURVE",
"318 28 CURVE SMOOTH",
"341 275 LINE SMOOTH",
"342 289 OFFCURVE",
"339 299 OFFCURVE",
"333 312 CURVE SMOOTH"
);
}
);
width = 845.878;
},
{
anchors = (
{
name = hookabovecomb;
position = "{493, 730}";
},
{
name = top;
position = "{485, 842}";
}
);
layerId = "285E899F-63D1-4687-98EA-700375B8DCD4";
paths = (
{
closed = 1;
nodes = (
"89 851 LINE SMOOTH",
"77 871 OFFCURVE",
"87 886 OFFCURVE",
"113 886 CURVE SMOOTH",
"187 886 LINE SMOOTH",
"205 886 OFFCURVE",
"217 880 OFFCURVE",
"225 865 CURVE SMOOTH",
"466 471 LINE SMOOTH",
"477 450 OFFCURVE",
"498 450 OFFCURVE",
"511 471 CURVE SMOOTH",
"747 865 LINE SMOOTH",
"756 880 OFFCURVE",
"768 886 OFFCURVE",
"785 886 CURVE SMOOTH",
"860 886 LINE SMOOTH",
"887 886 OFFCURVE",
"896 871 OFFCURVE",
"883 851 CURVE SMOOTH",
"584 321 LINE SMOOTH",
"577 308 OFFCURVE",
"573 298 OFFCURVE",
"574 283 CURVE SMOOTH",
"601 29 LINE SMOOTH",
"603 11 OFFCURVE",
"589 0 OFFCURVE",
"567 0 CURVE SMOOTH",
"399 0 LINE SMOOTH",
"377 0 OFFCURVE",
"362 9 OFFCURVE",
"366 29 CURVE SMOOTH",
"392 283 LINE SMOOTH",
"393 298 OFFCURVE",
"390 308 OFFCURVE",
"383 321 CURVE SMOOTH"
);
}
);
width = 973;
},
{
anchors = (
{
name = hookabovecomb;
position = "{386, 702}";
},
{
name = top;
position = "{380, 809}";
}
);
layerId = "0964CBBB-CC62-4658-9513-E390A08878CC";
paths = (
{
closed = 1;
nodes = (
"69 818 LINE SMOOTH",
"60 838 OFFCURVE",
"68 851 OFFCURVE",
"88 851 CURVE SMOOTH",
"147 851 LINE SMOOTH",
"160 851 OFFCURVE",
"170 845 OFFCURVE",
"176 832 CURVE SMOOTH",
"365 452 LINE SMOOTH",
"374 433 OFFCURVE",
"390 433 OFFCURVE",
"400 452 CURVE SMOOTH",
"585 832 LINE SMOOTH",
"591 845 OFFCURVE",
"601 851 OFFCURVE",
"615 851 CURVE SMOOTH",
"673 851 LINE SMOOTH",
"694 851 OFFCURVE",
"701 838 OFFCURVE",
"691 818 CURVE SMOOTH",
"457 309 LINE SMOOTH",
"452 296 OFFCURVE",
"448 286 OFFCURVE",
"449 272 CURVE SMOOTH",
"471 28 LINE SMOOTH",
"472 11 OFFCURVE",
"461 0 OFFCURVE",
"444 0 CURVE SMOOTH",
"312 0 LINE SMOOTH",
"295 0 OFFCURVE",
"284 9 OFFCURVE",
"286 28 CURVE SMOOTH",
"307 272 LINE SMOOTH",
"308 286 OFFCURVE",
"305 296 OFFCURVE",
"300 309 CURVE SMOOTH"
);
}
);
width = 761;
}
);
unicode = 0059;
},
{
color = 6;
glyphname = Z;
lastChange = "2015-04-18 15:15:13 +0000";
layers = (
{
anchors = (
{
name = top;
position = "{450, 839}";
}
);
layerId = "6B6936E6-7670-4A82-900D-EAF583C971AF";
paths = (
{
closed = 1;
nodes = (
"75 832 LINE SMOOTH",
"75 851 OFFCURVE",
"84 860 OFFCURVE",
"103 860 CURVE SMOOTH",
"769 860 LINE SMOOTH",
"788 860 OFFCURVE",
"798 850 OFFCURVE",
"798 832 CURVE SMOOTH",
"798 792 LINE SMOOTH",
"798 778 OFFCURVE",
"794 768 OFFCURVE",
"784 756 CURVE SMOOTH",
"333 236 LINE SMOOTH",
"318 217 OFFCURVE",
"324 201 OFFCURVE",
"349 201 CURVE SMOOTH",
"752 201 LINE SMOOTH",
"771 201 OFFCURVE",
"782 191 OFFCURVE",
"782 172 CURVE SMOOTH",
"782 28 LINE SMOOTH",
"782 11 OFFCURVE",
"771 0 OFFCURVE",
"752 0 CURVE SMOOTH",
"101 0 LINE SMOOTH",
"83 0 OFFCURVE",
"73 11 OFFCURVE",
"73 28 CURVE SMOOTH",
"73 171 LINE SMOOTH",
"73 186 OFFCURVE",
"77 196 OFFCURVE",
"87 206 CURVE SMOOTH",
"573 727 LINE SMOOTH",
"591 746 OFFCURVE",
"584 762 OFFCURVE",
"558 762 CURVE SMOOTH",
"103 762 LINE SMOOTH",
"84 762 OFFCURVE",
"75 773 OFFCURVE",
"75 791 CURVE SMOOTH"
);
}
);
width = 871;
},
{
anchors = (
{
name = top;
position = "{518, 864}";
}
);
layerId = "285E899F-63D1-4687-98EA-700375B8DCD4";
paths = (
{
closed = 1;
nodes = (
"86 857 LINE SMOOTH",
"86 877 OFFCURVE",
"97 886 OFFCURVE",
"118 886 CURVE SMOOTH",
"884 886 LINE SMOOTH",
"906 886 OFFCURVE",
"918 876 OFFCURVE",
"918 857 CURVE SMOOTH",
"918 816 LINE SMOOTH",
"918 801 OFFCURVE",
"913 791 OFFCURVE",
"902 779 CURVE SMOOTH",
"383 243 LINE SMOOTH",
"366 224 OFFCURVE",
"373 207 OFFCURVE",
"401 207 CURVE SMOOTH",
"865 207 LINE SMOOTH",
"887 207 OFFCURVE",
"899 197 OFFCURVE",
"899 177 CURVE SMOOTH",
"899 29 LINE SMOOTH",
"899 11 OFFCURVE",
"887 0 OFFCURVE",
"865 0 CURVE SMOOTH",
"116 0 LINE SMOOTH",
"95 0 OFFCURVE",
"84 11 OFFCURVE",
"84 29 CURVE SMOOTH",
"84 176 LINE SMOOTH",
"84 192 OFFCURVE",
"89 202 OFFCURVE",
"100 212 CURVE SMOOTH",
"659 749 LINE SMOOTH",
"680 768 OFFCURVE",
"672 785 OFFCURVE",
"642 785 CURVE SMOOTH",
"118 785 LINE SMOOTH",
"97 785 OFFCURVE",
"86 796 OFFCURVE",
"86 815 CURVE SMOOTH"
);
}
);
width = 1002;
},
{
anchors = (
{
name = top;
position = "{405, 831}";
}
);
layerId = "0964CBBB-CC62-4658-9513-E390A08878CC";
paths = (
{
closed = 1;
nodes = (
"68 824 LINE SMOOTH",
"68 842 OFFCURVE",
"76 851 OFFCURVE",
"93 851 CURVE SMOOTH",
"692 851 LINE SMOOTH",
"709 851 OFFCURVE",
"718 842 OFFCURVE",
"718 824 CURVE SMOOTH",
"718 784 LINE SMOOTH",
"718 770 OFFCURVE",
"715 760 OFFCURVE",
"706 748 CURVE SMOOTH",
"300 234 LINE SMOOTH",
"286 215 OFFCURVE",
"292 199 OFFCURVE",
"314 199 CURVE SMOOTH",
"677 199 LINE SMOOTH",
"694 199 OFFCURVE",
"704 189 OFFCURVE",
"704 170 CURVE SMOOTH",
"704 28 LINE SMOOTH",
"704 11 OFFCURVE",
"694 0 OFFCURVE",
"677 0 CURVE SMOOTH",
"91 0 LINE SMOOTH",
"75 0 OFFCURVE",
"66 11 OFFCURVE",
"66 28 CURVE SMOOTH",
"66 169 LINE SMOOTH",
"66 184 OFFCURVE",
"69 194 OFFCURVE",
"78 204 CURVE SMOOTH",
"516 720 LINE SMOOTH",
"532 739 OFFCURVE",
"526 754 OFFCURVE",
"502 754 CURVE SMOOTH",
"93 754 LINE SMOOTH",
"76 754 OFFCURVE",
"68 765 OFFCURVE",
"68 783 CURVE SMOOTH"
);
}
);
width = 784;
}
);
unicode = 005A;
},
